%TF.GenerationSoftware,KiCad,Pcbnew,10.0.0*%
%TF.CreationDate,2026-04-12T16:45:19+01:00*%
%TF.ProjectId,PicoRX,5069636f-5258-42e6-9b69-6361645f7063,rev?*%
%TF.SameCoordinates,Original*%
%TF.FileFunction,Soldermask,Bot*%
%TF.FilePolarity,Negative*%
%FSLAX46Y46*%
G04 Gerber Fmt 4.6, Leading zero omitted, Abs format (unit mm)*
G04 Created by KiCad (PCBNEW 10.0.0) date 2026-04-12 16:45:19*
%MOMM*%
%LPD*%
G01*
G04 APERTURE LIST*
G04 Aperture macros list*
%AMRoundRect*
0 Rectangle with rounded corners*
0 $1 Rounding radius*
0 $2 $3 $4 $5 $6 $7 $8 $9 X,Y pos of 4 corners*
0 Add a 4 corners polygon primitive as box body*
4,1,4,$2,$3,$4,$5,$6,$7,$8,$9,$2,$3,0*
0 Add four circle primitives for the rounded corners*
1,1,$1+$1,$2,$3*
1,1,$1+$1,$4,$5*
1,1,$1+$1,$6,$7*
1,1,$1+$1,$8,$9*
0 Add four rect primitives between the rounded corners*
20,1,$1+$1,$2,$3,$4,$5,0*
20,1,$1+$1,$4,$5,$6,$7,0*
20,1,$1+$1,$6,$7,$8,$9,0*
20,1,$1+$1,$8,$9,$2,$3,0*%
G04 Aperture macros list end*
%ADD10R,1.700000X1.700000*%
%ADD11C,1.700000*%
%ADD12C,2.100000*%
%ADD13RoundRect,0.250000X-0.950000X-0.550000X0.950000X-0.550000X0.950000X0.550000X-0.950000X0.550000X0*%
%ADD14O,2.400000X1.600000*%
%ADD15O,1.700000X2.200000*%
%ADD16C,3.600000*%
%ADD17C,5.600000*%
%ADD18C,2.050000*%
%ADD19C,2.250000*%
%ADD20RoundRect,0.250000X-0.550000X-0.550000X0.550000X-0.550000X0.550000X0.550000X-0.550000X0.550000X0*%
%ADD21C,1.600000*%
%ADD22C,1.400000*%
%ADD23O,1.400000X1.400000*%
%ADD24RoundRect,0.250000X-0.450000X-0.450000X0.450000X-0.450000X0.450000X0.450000X-0.450000X0.450000X0*%
%ADD25O,1.700000X1.700000*%
G04 APERTURE END LIST*
D10*
%TO.C,J1*%
X217960000Y-45500000D03*
D11*
X220500000Y-45500000D03*
X223040000Y-45500000D03*
%TD*%
D10*
%TO.C,RV1*%
X187000000Y-71460000D03*
D11*
X187000000Y-74000000D03*
X187000000Y-76540000D03*
%TD*%
D12*
%TO.C,C10*%
X194770000Y-49000000D03*
X192230000Y-49000000D03*
%TD*%
D10*
%TO.C,J5*%
X110500000Y-85540000D03*
D11*
X110500000Y-83000000D03*
X110500000Y-80460000D03*
%TD*%
D12*
%TO.C,C3*%
X160460000Y-30500000D03*
X163000000Y-30500000D03*
%TD*%
D10*
%TO.C,SW2*%
X192000000Y-67920000D03*
D11*
X192000000Y-70460000D03*
X192000000Y-73000000D03*
X192000000Y-75540000D03*
X192000000Y-78080000D03*
%TD*%
D13*
%TO.C,U4*%
X160190000Y-52190000D03*
D14*
X160190000Y-54730000D03*
X160190000Y-57270000D03*
X160190000Y-59810000D03*
X167810000Y-59810000D03*
X167810000Y-57270000D03*
X167810000Y-54730000D03*
X167810000Y-52190000D03*
%TD*%
D12*
%TO.C,R16*%
X159420000Y-77500000D03*
X169580000Y-77500000D03*
%TD*%
%TO.C,R7*%
X194500000Y-30420000D03*
X194500000Y-40580000D03*
%TD*%
%TO.C,C13*%
X183000000Y-57230000D03*
X183000000Y-59770000D03*
%TD*%
D15*
%TO.C,U2*%
X224140000Y-79560000D03*
X224140000Y-77020000D03*
X224140000Y-68570000D03*
X224140000Y-66030000D03*
X224140000Y-63490000D03*
X201280000Y-71110000D03*
X201280000Y-68570000D03*
X201280000Y-66030000D03*
X201280000Y-63490000D03*
%TD*%
D12*
%TO.C,C14*%
X150000000Y-44500000D03*
X152540000Y-44500000D03*
%TD*%
D16*
%TO.C,H1*%
X127710000Y-34370000D03*
D17*
X127710000Y-34370000D03*
%TD*%
D12*
%TO.C,R10*%
X187000000Y-53920000D03*
X187000000Y-64080000D03*
%TD*%
%TO.C,R12*%
X172420000Y-53500000D03*
X182580000Y-53500000D03*
%TD*%
%TO.C,R5*%
X198500000Y-40580000D03*
X198500000Y-30420000D03*
%TD*%
%TO.C,C6*%
X190000000Y-41040000D03*
X190000000Y-38500000D03*
%TD*%
%TO.C,C5*%
X202000000Y-35000000D03*
X204540000Y-35000000D03*
%TD*%
%TO.C,R8*%
X171420000Y-63500000D03*
X181580000Y-63500000D03*
%TD*%
D18*
%TO.C,e1*%
X211500000Y-32000000D03*
D19*
X208960000Y-29460000D03*
X208960000Y-34540000D03*
X214040000Y-29460000D03*
X214040000Y-34540000D03*
%TD*%
D12*
%TO.C,C11*%
X163475000Y-43770000D03*
X163475000Y-41230000D03*
%TD*%
%TO.C,R1*%
X158920000Y-72500000D03*
X169080000Y-72500000D03*
%TD*%
%TO.C,C8*%
X180475000Y-39230000D03*
X180475000Y-41770000D03*
%TD*%
%TO.C,R17*%
X160420000Y-82000000D03*
X170580000Y-82000000D03*
%TD*%
%TO.C,R15*%
X145420000Y-65500000D03*
X155580000Y-65500000D03*
%TD*%
%TO.C,R2*%
X196500000Y-79580000D03*
X196500000Y-69420000D03*
%TD*%
%TO.C,R13*%
X146420000Y-49000000D03*
X156580000Y-49000000D03*
%TD*%
D20*
%TO.C,C1*%
X149500000Y-78500000D03*
D21*
X152000000Y-78500000D03*
%TD*%
D12*
%TO.C,R9*%
X182080000Y-47372500D03*
X171920000Y-47372500D03*
%TD*%
%TO.C,C4*%
X170000000Y-29000000D03*
X172540000Y-29000000D03*
%TD*%
D10*
%TO.C,SW3*%
X185000000Y-83000000D03*
D11*
X185000000Y-85540000D03*
%TD*%
D10*
%TO.C,J2*%
X110500000Y-75390000D03*
D11*
X110500000Y-72850000D03*
X110500000Y-70310000D03*
X110500000Y-67770000D03*
X110500000Y-65230000D03*
X110500000Y-62690000D03*
X110500000Y-60150000D03*
X110500000Y-57610000D03*
%TD*%
D10*
%TO.C,J4*%
X181500000Y-68920000D03*
D11*
X181500000Y-71460000D03*
X181500000Y-74000000D03*
X181500000Y-76540000D03*
%TD*%
D12*
%TO.C,R4*%
X155580000Y-70500000D03*
X145420000Y-70500000D03*
%TD*%
D22*
%TO.C,JP1*%
X149000000Y-53500000D03*
D23*
X149000000Y-56040000D03*
%TD*%
D16*
%TO.C,H2*%
X221610000Y-33270000D03*
D17*
X221610000Y-33270000D03*
%TD*%
D22*
%TO.C,JP2*%
X149000000Y-68000000D03*
D23*
X151540000Y-68000000D03*
%TD*%
D16*
%TO.C,H4*%
X127570000Y-73220000D03*
D17*
X127570000Y-73220000D03*
%TD*%
D10*
%TO.C,LS1*%
X192775000Y-85000000D03*
D11*
X190235000Y-85000000D03*
%TD*%
D12*
%TO.C,C16*%
X153230000Y-60500000D03*
X155770000Y-60500000D03*
%TD*%
%TO.C,C9*%
X162975000Y-38270000D03*
X162975000Y-35730000D03*
%TD*%
D10*
%TO.C,J3*%
X110500000Y-33800000D03*
D11*
X110500000Y-36340000D03*
X110500000Y-38880000D03*
%TD*%
D12*
%TO.C,C12*%
X186230000Y-47500000D03*
X188770000Y-47500000D03*
%TD*%
%TO.C,R6*%
X186500000Y-30920000D03*
X186500000Y-41080000D03*
%TD*%
%TO.C,R14*%
X145500000Y-52420000D03*
X145500000Y-62580000D03*
%TD*%
D24*
%TO.C,SW1*%
X219500000Y-49357500D03*
D22*
X222000000Y-49357500D03*
X224500000Y-49357500D03*
X224500000Y-52657500D03*
X222000000Y-52657500D03*
X219500000Y-52657500D03*
%TD*%
D12*
%TO.C,C7*%
X179475000Y-35770000D03*
X179475000Y-33230000D03*
%TD*%
D25*
%TO.C,U1*%
X119720000Y-31840000D03*
X119720000Y-34380000D03*
D10*
X119720000Y-36920000D03*
D25*
X119720000Y-39460000D03*
X119720000Y-42000000D03*
X119720000Y-44540000D03*
X119720000Y-47080000D03*
D10*
X119720000Y-49620000D03*
D25*
X119720000Y-52160000D03*
X119720000Y-54700000D03*
X119720000Y-57240000D03*
X119720000Y-59780000D03*
D10*
X119720000Y-62320000D03*
D25*
X119720000Y-64860000D03*
X119720000Y-67400000D03*
X119720000Y-69940000D03*
X119720000Y-72480000D03*
D10*
X119720000Y-75020000D03*
D25*
X119720000Y-77560000D03*
X119720000Y-80100000D03*
X137500000Y-80100000D03*
X137500000Y-77560000D03*
D10*
X137500000Y-75020000D03*
D25*
X137500000Y-72480000D03*
X137500000Y-69940000D03*
X137500000Y-67400000D03*
X137500000Y-64860000D03*
D10*
X137500000Y-62320000D03*
D25*
X137500000Y-59780000D03*
X137500000Y-57240000D03*
X137500000Y-54700000D03*
X137500000Y-52160000D03*
D10*
X137500000Y-49620000D03*
D25*
X137500000Y-47080000D03*
X137500000Y-44540000D03*
X137500000Y-42000000D03*
X137500000Y-39460000D03*
D10*
X137500000Y-36920000D03*
D25*
X137500000Y-34380000D03*
X137500000Y-31840000D03*
X126070000Y-79870000D03*
D10*
X128610000Y-79870000D03*
D25*
X131150000Y-79870000D03*
%TD*%
D12*
%TO.C,C2*%
X160500000Y-66540000D03*
X160500000Y-64000000D03*
%TD*%
D21*
%TO.C,FB1*%
X145920000Y-34500000D03*
X156080000Y-34500000D03*
%TD*%
D10*
%TO.C,SW4*%
X180000000Y-82725000D03*
D11*
X180000000Y-85265000D03*
%TD*%
D16*
%TO.C,H3*%
X214430000Y-83450000D03*
D17*
X214430000Y-83450000D03*
%TD*%
D12*
%TO.C,C15*%
X152000000Y-55500000D03*
X154540000Y-55500000D03*
%TD*%
%TO.C,R3*%
X174500000Y-67920000D03*
X174500000Y-78080000D03*
%TD*%
%TO.C,R11*%
X192000000Y-53420000D03*
X192000000Y-63580000D03*
%TD*%
D21*
%TO.C,FB2*%
X144920000Y-39500000D03*
X155080000Y-39500000D03*
%TD*%
M02*
