M48
; DRILL file KiCad 10.0.0 date 2026-04-12T16:45:37
; FORMAT={-:-/ absolute / metric / decimal}
; #@! TF.CreationDate,2026-04-12T16:45:37+01:00
; #@! TF.GenerationSoftware,Kicad,Pcbnew,10.0.0
; #@! TF.FileFunction,Plated,1,2,PTH
FMAT,2
METRIC
; #@! TA.AperFunction,Plated,PTH,ViaDrill
T1C0.300
; #@! TA.AperFunction,Plated,PTH,ComponentDrill
T2C0.700
; #@! TA.AperFunction,Plated,PTH,ComponentDrill
T3C0.800
; #@! TA.AperFunction,Plated,PTH,ComponentDrill
T4C0.900
; #@! TA.AperFunction,Plated,PTH,ComponentDrill
T5C1.000
; #@! TA.AperFunction,Plated,PTH,ComponentDrill
T6C1.020
; #@! TA.AperFunction,Plated,PTH,ComponentDrill
T7C1.500
; #@! TA.AperFunction,Plated,PTH,ComponentDrill
T8C1.700
; #@! TA.AperFunction,Plated,PTH,ComponentDrill
T9C3.200
%
G90
G05
T1
X110.5Y-43.81
X113.73Y-70.31
X115.96Y-83.65
X134.53Y-84.2
X141.439Y-73.93
X142.851Y-72.289
X143.71Y-68.52
X143.96Y-45.49
X144.34Y-78.69
X145.03Y-41.55
X145.51Y-42.46
X147.51Y-51.37
X148.25Y-58.41
X150.59Y-52.2
X152.0Y-72.85
X155.81Y-45.62
X158.11Y-68.957
X163.77Y-66.54
X165.02Y-61.97
X166.12Y-47.31
X166.49Y-41.87
X168.605Y-65.555
X169.73Y-68.957
X170.24Y-55.79
X170.504Y-45.05
X171.49Y-34.325
X171.966Y-35.588
X172.32Y-74.11
X172.872Y-50.62
X173.15Y-57.58
X173.28Y-43.86
X174.235Y-51.635
X174.58Y-61.11
X175.764Y-38.13
X177.095Y-51.375
X177.78Y-70.05
X181.748Y-61.311
X183.51Y-43.39
X184.36Y-67.43
X184.93Y-55.16
X189.63Y-67.81
X189.71Y-55.16
X194.77Y-55.9
X194.77Y-61.12
X197.38Y-53.26
T2
X149.0Y-53.5
X149.0Y-56.04
X149.0Y-68.0
X151.54Y-68.0
T3
X144.92Y-39.5
X145.92Y-34.5
X149.5Y-78.5
X152.0Y-78.5
X155.08Y-39.5
X156.08Y-34.5
X160.19Y-52.19
X160.19Y-54.73
X160.19Y-57.27
X160.19Y-59.81
X167.81Y-52.19
X167.81Y-54.73
X167.81Y-57.27
X167.81Y-59.81
T4
X145.42Y-65.5
X145.42Y-70.5
X145.5Y-52.42
X145.5Y-62.58
X146.42Y-49.0
X150.0Y-44.5
X152.0Y-55.5
X152.54Y-44.5
X153.23Y-60.5
X154.54Y-55.5
X155.58Y-65.5
X155.58Y-70.5
X155.77Y-60.5
X156.58Y-49.0
X158.92Y-72.5
X159.42Y-77.5
X160.42Y-82.0
X160.46Y-30.5
X160.5Y-64.0
X160.5Y-66.54
X162.975Y-35.73
X162.975Y-38.27
X163.0Y-30.5
X163.475Y-41.23
X163.475Y-43.77
X169.08Y-72.5
X169.58Y-77.5
X170.0Y-29.0
X170.58Y-82.0
X171.42Y-63.5
X171.92Y-47.372
X172.42Y-53.5
X172.54Y-29.0
X174.5Y-67.92
X174.5Y-78.08
X179.475Y-33.23
X179.475Y-35.77
X180.475Y-39.23
X180.475Y-41.77
X181.58Y-63.5
X182.08Y-47.372
X182.58Y-53.5
X183.0Y-57.23
X183.0Y-59.77
X186.23Y-47.5
X186.5Y-30.92
X186.5Y-41.08
X187.0Y-53.92
X187.0Y-64.08
X188.77Y-47.5
X190.0Y-38.5
X190.0Y-41.04
X192.0Y-53.42
X192.0Y-63.58
X192.23Y-49.0
X194.5Y-30.42
X194.5Y-40.58
X194.77Y-49.0
X196.5Y-69.42
X196.5Y-79.58
X198.5Y-30.42
X198.5Y-40.58
X202.0Y-35.0
X204.54Y-35.0
X219.5Y-49.357
X219.5Y-52.657
X222.0Y-49.357
X222.0Y-52.657
X224.5Y-49.357
X224.5Y-52.657
T5
X110.5Y-33.8
X110.5Y-36.34
X110.5Y-38.88
X110.5Y-57.61
X110.5Y-60.15
X110.5Y-62.69
X110.5Y-65.23
X110.5Y-67.77
X110.5Y-70.31
X110.5Y-72.85
X110.5Y-75.39
X110.5Y-80.46
X110.5Y-83.0
X110.5Y-85.54
X180.0Y-82.725
X180.0Y-85.265
X181.5Y-68.92
X181.5Y-71.46
X181.5Y-74.0
X181.5Y-76.54
X185.0Y-83.0
X185.0Y-85.54
X187.0Y-71.46
X187.0Y-74.0
X187.0Y-76.54
X190.235Y-85.0
X192.0Y-67.92
X192.0Y-70.46
X192.0Y-73.0
X192.0Y-75.54
X192.0Y-78.08
X192.775Y-85.0
X201.28Y-63.49
X201.28Y-66.03
X201.28Y-68.57
X201.28Y-71.11
X217.96Y-45.5
X220.5Y-45.5
X223.04Y-45.5
X224.14Y-63.49
X224.14Y-66.03
X224.14Y-68.57
X224.14Y-77.02
X224.14Y-79.56
T6
X119.72Y-31.84
X119.72Y-34.38
X119.72Y-36.92
X119.72Y-39.46
X119.72Y-42.0
X119.72Y-44.54
X119.72Y-47.08
X119.72Y-49.62
X119.72Y-52.16
X119.72Y-54.7
X119.72Y-57.24
X119.72Y-59.78
X119.72Y-62.32
X119.72Y-64.86
X119.72Y-67.4
X119.72Y-69.94
X119.72Y-72.48
X119.72Y-75.02
X119.72Y-77.56
X119.72Y-80.1
X126.07Y-79.87
X128.61Y-79.87
X131.15Y-79.87
X137.5Y-31.84
X137.5Y-34.38
X137.5Y-36.92
X137.5Y-39.46
X137.5Y-42.0
X137.5Y-44.54
X137.5Y-47.08
X137.5Y-49.62
X137.5Y-52.16
X137.5Y-54.7
X137.5Y-57.24
X137.5Y-59.78
X137.5Y-62.32
X137.5Y-64.86
X137.5Y-67.4
X137.5Y-69.94
X137.5Y-72.48
X137.5Y-75.02
X137.5Y-77.56
X137.5Y-80.1
T7
X211.5Y-32.0
T8
X208.96Y-29.46
X208.96Y-34.54
X214.04Y-29.46
X214.04Y-34.54
T9
X127.57Y-73.22
X127.71Y-34.37
X214.43Y-83.45
X221.61Y-33.27
M30
