%TF.GenerationSoftware,KiCad,Pcbnew,10.0.0*%
%TF.CreationDate,2026-04-12T16:45:19+01:00*%
%TF.ProjectId,PicoRX,5069636f-5258-42e6-9b69-6361645f7063,rev?*%
%TF.SameCoordinates,Original*%
%TF.FileFunction,Legend,Top*%
%TF.FilePolarity,Positive*%
%FSLAX46Y46*%
G04 Gerber Fmt 4.6, Leading zero omitted, Abs format (unit mm)*
G04 Created by KiCad (PCBNEW 10.0.0) date 2026-04-12 16:45:19*
%MOMM*%
%LPD*%
G01*
G04 APERTURE LIST*
%ADD10C,0.300000*%
%ADD11C,0.150000*%
%ADD12C,0.120000*%
G04 APERTURE END LIST*
D10*
X214140828Y-46779774D02*
X215640828Y-46279774D01*
X215640828Y-46279774D02*
X214140828Y-45779774D01*
X214855114Y-44779775D02*
X214926542Y-44565489D01*
X214926542Y-44565489D02*
X214997971Y-44494060D01*
X214997971Y-44494060D02*
X215140828Y-44422632D01*
X215140828Y-44422632D02*
X215355114Y-44422632D01*
X215355114Y-44422632D02*
X215497971Y-44494060D01*
X215497971Y-44494060D02*
X215569400Y-44565489D01*
X215569400Y-44565489D02*
X215640828Y-44708346D01*
X215640828Y-44708346D02*
X215640828Y-45279775D01*
X215640828Y-45279775D02*
X214140828Y-45279775D01*
X214140828Y-45279775D02*
X214140828Y-44779775D01*
X214140828Y-44779775D02*
X214212257Y-44636918D01*
X214212257Y-44636918D02*
X214283685Y-44565489D01*
X214283685Y-44565489D02*
X214426542Y-44494060D01*
X214426542Y-44494060D02*
X214569400Y-44494060D01*
X214569400Y-44494060D02*
X214712257Y-44565489D01*
X214712257Y-44565489D02*
X214783685Y-44636918D01*
X214783685Y-44636918D02*
X214855114Y-44779775D01*
X214855114Y-44779775D02*
X214855114Y-45279775D01*
X215640828Y-43136918D02*
X214855114Y-43136918D01*
X214855114Y-43136918D02*
X214712257Y-43208346D01*
X214712257Y-43208346D02*
X214640828Y-43351203D01*
X214640828Y-43351203D02*
X214640828Y-43636918D01*
X214640828Y-43636918D02*
X214712257Y-43779775D01*
X215569400Y-43136918D02*
X215640828Y-43279775D01*
X215640828Y-43279775D02*
X215640828Y-43636918D01*
X215640828Y-43636918D02*
X215569400Y-43779775D01*
X215569400Y-43779775D02*
X215426542Y-43851203D01*
X215426542Y-43851203D02*
X215283685Y-43851203D01*
X215283685Y-43851203D02*
X215140828Y-43779775D01*
X215140828Y-43779775D02*
X215069400Y-43636918D01*
X215069400Y-43636918D02*
X215069400Y-43279775D01*
X215069400Y-43279775D02*
X214997971Y-43136918D01*
X214640828Y-42636917D02*
X214640828Y-42065489D01*
X214140828Y-42422632D02*
X215426542Y-42422632D01*
X215426542Y-42422632D02*
X215569400Y-42351203D01*
X215569400Y-42351203D02*
X215640828Y-42208346D01*
X215640828Y-42208346D02*
X215640828Y-42065489D01*
X215069400Y-40422632D02*
X215069400Y-39279775D01*
X215640828Y-39851203D02*
X214497971Y-39851203D01*
X214140828Y-38779774D02*
X215640828Y-38279774D01*
X215640828Y-38279774D02*
X214140828Y-37779774D01*
X215569400Y-36708346D02*
X215640828Y-36851203D01*
X215640828Y-36851203D02*
X215640828Y-37136918D01*
X215640828Y-37136918D02*
X215569400Y-37279775D01*
X215569400Y-37279775D02*
X215426542Y-37351203D01*
X215426542Y-37351203D02*
X214855114Y-37351203D01*
X214855114Y-37351203D02*
X214712257Y-37279775D01*
X214712257Y-37279775D02*
X214640828Y-37136918D01*
X214640828Y-37136918D02*
X214640828Y-36851203D01*
X214640828Y-36851203D02*
X214712257Y-36708346D01*
X214712257Y-36708346D02*
X214855114Y-36636918D01*
X214855114Y-36636918D02*
X214997971Y-36636918D01*
X214997971Y-36636918D02*
X215140828Y-37351203D01*
X225190828Y-46689774D02*
X226690828Y-46189774D01*
X226690828Y-46189774D02*
X225190828Y-45689774D01*
X225905114Y-44689775D02*
X225976542Y-44475489D01*
X225976542Y-44475489D02*
X226047971Y-44404060D01*
X226047971Y-44404060D02*
X226190828Y-44332632D01*
X226190828Y-44332632D02*
X226405114Y-44332632D01*
X226405114Y-44332632D02*
X226547971Y-44404060D01*
X226547971Y-44404060D02*
X226619400Y-44475489D01*
X226619400Y-44475489D02*
X226690828Y-44618346D01*
X226690828Y-44618346D02*
X226690828Y-45189775D01*
X226690828Y-45189775D02*
X225190828Y-45189775D01*
X225190828Y-45189775D02*
X225190828Y-44689775D01*
X225190828Y-44689775D02*
X225262257Y-44546918D01*
X225262257Y-44546918D02*
X225333685Y-44475489D01*
X225333685Y-44475489D02*
X225476542Y-44404060D01*
X225476542Y-44404060D02*
X225619400Y-44404060D01*
X225619400Y-44404060D02*
X225762257Y-44475489D01*
X225762257Y-44475489D02*
X225833685Y-44546918D01*
X225833685Y-44546918D02*
X225905114Y-44689775D01*
X225905114Y-44689775D02*
X225905114Y-45189775D01*
X226690828Y-43046918D02*
X225905114Y-43046918D01*
X225905114Y-43046918D02*
X225762257Y-43118346D01*
X225762257Y-43118346D02*
X225690828Y-43261203D01*
X225690828Y-43261203D02*
X225690828Y-43546918D01*
X225690828Y-43546918D02*
X225762257Y-43689775D01*
X226619400Y-43046918D02*
X226690828Y-43189775D01*
X226690828Y-43189775D02*
X226690828Y-43546918D01*
X226690828Y-43546918D02*
X226619400Y-43689775D01*
X226619400Y-43689775D02*
X226476542Y-43761203D01*
X226476542Y-43761203D02*
X226333685Y-43761203D01*
X226333685Y-43761203D02*
X226190828Y-43689775D01*
X226190828Y-43689775D02*
X226119400Y-43546918D01*
X226119400Y-43546918D02*
X226119400Y-43189775D01*
X226119400Y-43189775D02*
X226047971Y-43046918D01*
X225690828Y-42546917D02*
X225690828Y-41975489D01*
X225190828Y-42332632D02*
X226476542Y-42332632D01*
X226476542Y-42332632D02*
X226619400Y-42261203D01*
X226619400Y-42261203D02*
X226690828Y-42118346D01*
X226690828Y-42118346D02*
X226690828Y-41975489D01*
X226119400Y-40332632D02*
X226119400Y-39189775D01*
X225690828Y-38618346D02*
X226690828Y-38261203D01*
X226690828Y-38261203D02*
X225690828Y-37904060D01*
X226619400Y-36761203D02*
X226690828Y-36904060D01*
X226690828Y-36904060D02*
X226690828Y-37189775D01*
X226690828Y-37189775D02*
X226619400Y-37332632D01*
X226619400Y-37332632D02*
X226476542Y-37404060D01*
X226476542Y-37404060D02*
X225905114Y-37404060D01*
X225905114Y-37404060D02*
X225762257Y-37332632D01*
X225762257Y-37332632D02*
X225690828Y-37189775D01*
X225690828Y-37189775D02*
X225690828Y-36904060D01*
X225690828Y-36904060D02*
X225762257Y-36761203D01*
X225762257Y-36761203D02*
X225905114Y-36689775D01*
X225905114Y-36689775D02*
X226047971Y-36689775D01*
X226047971Y-36689775D02*
X226190828Y-37404060D01*
D11*
X220506666Y-42494819D02*
X220506666Y-43209104D01*
X220506666Y-43209104D02*
X220459047Y-43351961D01*
X220459047Y-43351961D02*
X220363809Y-43447200D01*
X220363809Y-43447200D02*
X220220952Y-43494819D01*
X220220952Y-43494819D02*
X220125714Y-43494819D01*
X221506666Y-43494819D02*
X220935238Y-43494819D01*
X221220952Y-43494819D02*
X221220952Y-42494819D01*
X221220952Y-42494819D02*
X221125714Y-42637676D01*
X221125714Y-42637676D02*
X221030476Y-42732914D01*
X221030476Y-42732914D02*
X220935238Y-42780533D01*
X186404761Y-68954819D02*
X186071428Y-68478628D01*
X185833333Y-68954819D02*
X185833333Y-67954819D01*
X185833333Y-67954819D02*
X186214285Y-67954819D01*
X186214285Y-67954819D02*
X186309523Y-68002438D01*
X186309523Y-68002438D02*
X186357142Y-68050057D01*
X186357142Y-68050057D02*
X186404761Y-68145295D01*
X186404761Y-68145295D02*
X186404761Y-68288152D01*
X186404761Y-68288152D02*
X186357142Y-68383390D01*
X186357142Y-68383390D02*
X186309523Y-68431009D01*
X186309523Y-68431009D02*
X186214285Y-68478628D01*
X186214285Y-68478628D02*
X185833333Y-68478628D01*
X186690476Y-67954819D02*
X187023809Y-68954819D01*
X187023809Y-68954819D02*
X187357142Y-67954819D01*
X188214285Y-68954819D02*
X187642857Y-68954819D01*
X187928571Y-68954819D02*
X187928571Y-67954819D01*
X187928571Y-67954819D02*
X187833333Y-68097676D01*
X187833333Y-68097676D02*
X187738095Y-68192914D01*
X187738095Y-68192914D02*
X187642857Y-68240533D01*
X192857142Y-51559580D02*
X192809523Y-51607200D01*
X192809523Y-51607200D02*
X192666666Y-51654819D01*
X192666666Y-51654819D02*
X192571428Y-51654819D01*
X192571428Y-51654819D02*
X192428571Y-51607200D01*
X192428571Y-51607200D02*
X192333333Y-51511961D01*
X192333333Y-51511961D02*
X192285714Y-51416723D01*
X192285714Y-51416723D02*
X192238095Y-51226247D01*
X192238095Y-51226247D02*
X192238095Y-51083390D01*
X192238095Y-51083390D02*
X192285714Y-50892914D01*
X192285714Y-50892914D02*
X192333333Y-50797676D01*
X192333333Y-50797676D02*
X192428571Y-50702438D01*
X192428571Y-50702438D02*
X192571428Y-50654819D01*
X192571428Y-50654819D02*
X192666666Y-50654819D01*
X192666666Y-50654819D02*
X192809523Y-50702438D01*
X192809523Y-50702438D02*
X192857142Y-50750057D01*
X193809523Y-51654819D02*
X193238095Y-51654819D01*
X193523809Y-51654819D02*
X193523809Y-50654819D01*
X193523809Y-50654819D02*
X193428571Y-50797676D01*
X193428571Y-50797676D02*
X193333333Y-50892914D01*
X193333333Y-50892914D02*
X193238095Y-50940533D01*
X194428571Y-50654819D02*
X194523809Y-50654819D01*
X194523809Y-50654819D02*
X194619047Y-50702438D01*
X194619047Y-50702438D02*
X194666666Y-50750057D01*
X194666666Y-50750057D02*
X194714285Y-50845295D01*
X194714285Y-50845295D02*
X194761904Y-51035771D01*
X194761904Y-51035771D02*
X194761904Y-51273866D01*
X194761904Y-51273866D02*
X194714285Y-51464342D01*
X194714285Y-51464342D02*
X194666666Y-51559580D01*
X194666666Y-51559580D02*
X194619047Y-51607200D01*
X194619047Y-51607200D02*
X194523809Y-51654819D01*
X194523809Y-51654819D02*
X194428571Y-51654819D01*
X194428571Y-51654819D02*
X194333333Y-51607200D01*
X194333333Y-51607200D02*
X194285714Y-51559580D01*
X194285714Y-51559580D02*
X194238095Y-51464342D01*
X194238095Y-51464342D02*
X194190476Y-51273866D01*
X194190476Y-51273866D02*
X194190476Y-51035771D01*
X194190476Y-51035771D02*
X194238095Y-50845295D01*
X194238095Y-50845295D02*
X194285714Y-50750057D01*
X194285714Y-50750057D02*
X194333333Y-50702438D01*
X194333333Y-50702438D02*
X194428571Y-50654819D01*
X113166666Y-84454819D02*
X113166666Y-85169104D01*
X113166666Y-85169104D02*
X113119047Y-85311961D01*
X113119047Y-85311961D02*
X113023809Y-85407200D01*
X113023809Y-85407200D02*
X112880952Y-85454819D01*
X112880952Y-85454819D02*
X112785714Y-85454819D01*
X114119047Y-84454819D02*
X113642857Y-84454819D01*
X113642857Y-84454819D02*
X113595238Y-84931009D01*
X113595238Y-84931009D02*
X113642857Y-84883390D01*
X113642857Y-84883390D02*
X113738095Y-84835771D01*
X113738095Y-84835771D02*
X113976190Y-84835771D01*
X113976190Y-84835771D02*
X114071428Y-84883390D01*
X114071428Y-84883390D02*
X114119047Y-84931009D01*
X114119047Y-84931009D02*
X114166666Y-85026247D01*
X114166666Y-85026247D02*
X114166666Y-85264342D01*
X114166666Y-85264342D02*
X114119047Y-85359580D01*
X114119047Y-85359580D02*
X114071428Y-85407200D01*
X114071428Y-85407200D02*
X113976190Y-85454819D01*
X113976190Y-85454819D02*
X113738095Y-85454819D01*
X113738095Y-85454819D02*
X113642857Y-85407200D01*
X113642857Y-85407200D02*
X113595238Y-85359580D01*
X161563333Y-28659580D02*
X161515714Y-28707200D01*
X161515714Y-28707200D02*
X161372857Y-28754819D01*
X161372857Y-28754819D02*
X161277619Y-28754819D01*
X161277619Y-28754819D02*
X161134762Y-28707200D01*
X161134762Y-28707200D02*
X161039524Y-28611961D01*
X161039524Y-28611961D02*
X160991905Y-28516723D01*
X160991905Y-28516723D02*
X160944286Y-28326247D01*
X160944286Y-28326247D02*
X160944286Y-28183390D01*
X160944286Y-28183390D02*
X160991905Y-27992914D01*
X160991905Y-27992914D02*
X161039524Y-27897676D01*
X161039524Y-27897676D02*
X161134762Y-27802438D01*
X161134762Y-27802438D02*
X161277619Y-27754819D01*
X161277619Y-27754819D02*
X161372857Y-27754819D01*
X161372857Y-27754819D02*
X161515714Y-27802438D01*
X161515714Y-27802438D02*
X161563333Y-27850057D01*
X161896667Y-27754819D02*
X162515714Y-27754819D01*
X162515714Y-27754819D02*
X162182381Y-28135771D01*
X162182381Y-28135771D02*
X162325238Y-28135771D01*
X162325238Y-28135771D02*
X162420476Y-28183390D01*
X162420476Y-28183390D02*
X162468095Y-28231009D01*
X162468095Y-28231009D02*
X162515714Y-28326247D01*
X162515714Y-28326247D02*
X162515714Y-28564342D01*
X162515714Y-28564342D02*
X162468095Y-28659580D01*
X162468095Y-28659580D02*
X162420476Y-28707200D01*
X162420476Y-28707200D02*
X162325238Y-28754819D01*
X162325238Y-28754819D02*
X162039524Y-28754819D01*
X162039524Y-28754819D02*
X161944286Y-28707200D01*
X161944286Y-28707200D02*
X161896667Y-28659580D01*
X190666667Y-65947200D02*
X190809524Y-65994819D01*
X190809524Y-65994819D02*
X191047619Y-65994819D01*
X191047619Y-65994819D02*
X191142857Y-65947200D01*
X191142857Y-65947200D02*
X191190476Y-65899580D01*
X191190476Y-65899580D02*
X191238095Y-65804342D01*
X191238095Y-65804342D02*
X191238095Y-65709104D01*
X191238095Y-65709104D02*
X191190476Y-65613866D01*
X191190476Y-65613866D02*
X191142857Y-65566247D01*
X191142857Y-65566247D02*
X191047619Y-65518628D01*
X191047619Y-65518628D02*
X190857143Y-65471009D01*
X190857143Y-65471009D02*
X190761905Y-65423390D01*
X190761905Y-65423390D02*
X190714286Y-65375771D01*
X190714286Y-65375771D02*
X190666667Y-65280533D01*
X190666667Y-65280533D02*
X190666667Y-65185295D01*
X190666667Y-65185295D02*
X190714286Y-65090057D01*
X190714286Y-65090057D02*
X190761905Y-65042438D01*
X190761905Y-65042438D02*
X190857143Y-64994819D01*
X190857143Y-64994819D02*
X191095238Y-64994819D01*
X191095238Y-64994819D02*
X191238095Y-65042438D01*
X191571429Y-64994819D02*
X191809524Y-65994819D01*
X191809524Y-65994819D02*
X192000000Y-65280533D01*
X192000000Y-65280533D02*
X192190476Y-65994819D01*
X192190476Y-65994819D02*
X192428572Y-64994819D01*
X192761905Y-65090057D02*
X192809524Y-65042438D01*
X192809524Y-65042438D02*
X192904762Y-64994819D01*
X192904762Y-64994819D02*
X193142857Y-64994819D01*
X193142857Y-64994819D02*
X193238095Y-65042438D01*
X193238095Y-65042438D02*
X193285714Y-65090057D01*
X193285714Y-65090057D02*
X193333333Y-65185295D01*
X193333333Y-65185295D02*
X193333333Y-65280533D01*
X193333333Y-65280533D02*
X193285714Y-65423390D01*
X193285714Y-65423390D02*
X192714286Y-65994819D01*
X192714286Y-65994819D02*
X193333333Y-65994819D01*
X163238095Y-49314819D02*
X163238095Y-50124342D01*
X163238095Y-50124342D02*
X163285714Y-50219580D01*
X163285714Y-50219580D02*
X163333333Y-50267200D01*
X163333333Y-50267200D02*
X163428571Y-50314819D01*
X163428571Y-50314819D02*
X163619047Y-50314819D01*
X163619047Y-50314819D02*
X163714285Y-50267200D01*
X163714285Y-50267200D02*
X163761904Y-50219580D01*
X163761904Y-50219580D02*
X163809523Y-50124342D01*
X163809523Y-50124342D02*
X163809523Y-49314819D01*
X164714285Y-49648152D02*
X164714285Y-50314819D01*
X164476190Y-49267200D02*
X164238095Y-49981485D01*
X164238095Y-49981485D02*
X164857142Y-49981485D01*
X163857142Y-75754819D02*
X163523809Y-75278628D01*
X163285714Y-75754819D02*
X163285714Y-74754819D01*
X163285714Y-74754819D02*
X163666666Y-74754819D01*
X163666666Y-74754819D02*
X163761904Y-74802438D01*
X163761904Y-74802438D02*
X163809523Y-74850057D01*
X163809523Y-74850057D02*
X163857142Y-74945295D01*
X163857142Y-74945295D02*
X163857142Y-75088152D01*
X163857142Y-75088152D02*
X163809523Y-75183390D01*
X163809523Y-75183390D02*
X163761904Y-75231009D01*
X163761904Y-75231009D02*
X163666666Y-75278628D01*
X163666666Y-75278628D02*
X163285714Y-75278628D01*
X164809523Y-75754819D02*
X164238095Y-75754819D01*
X164523809Y-75754819D02*
X164523809Y-74754819D01*
X164523809Y-74754819D02*
X164428571Y-74897676D01*
X164428571Y-74897676D02*
X164333333Y-74992914D01*
X164333333Y-74992914D02*
X164238095Y-75040533D01*
X165666666Y-74754819D02*
X165476190Y-74754819D01*
X165476190Y-74754819D02*
X165380952Y-74802438D01*
X165380952Y-74802438D02*
X165333333Y-74850057D01*
X165333333Y-74850057D02*
X165238095Y-74992914D01*
X165238095Y-74992914D02*
X165190476Y-75183390D01*
X165190476Y-75183390D02*
X165190476Y-75564342D01*
X165190476Y-75564342D02*
X165238095Y-75659580D01*
X165238095Y-75659580D02*
X165285714Y-75707200D01*
X165285714Y-75707200D02*
X165380952Y-75754819D01*
X165380952Y-75754819D02*
X165571428Y-75754819D01*
X165571428Y-75754819D02*
X165666666Y-75707200D01*
X165666666Y-75707200D02*
X165714285Y-75659580D01*
X165714285Y-75659580D02*
X165761904Y-75564342D01*
X165761904Y-75564342D02*
X165761904Y-75326247D01*
X165761904Y-75326247D02*
X165714285Y-75231009D01*
X165714285Y-75231009D02*
X165666666Y-75183390D01*
X165666666Y-75183390D02*
X165571428Y-75135771D01*
X165571428Y-75135771D02*
X165380952Y-75135771D01*
X165380952Y-75135771D02*
X165285714Y-75183390D01*
X165285714Y-75183390D02*
X165238095Y-75231009D01*
X165238095Y-75231009D02*
X165190476Y-75326247D01*
X192954819Y-33666666D02*
X192478628Y-33999999D01*
X192954819Y-34238094D02*
X191954819Y-34238094D01*
X191954819Y-34238094D02*
X191954819Y-33857142D01*
X191954819Y-33857142D02*
X192002438Y-33761904D01*
X192002438Y-33761904D02*
X192050057Y-33714285D01*
X192050057Y-33714285D02*
X192145295Y-33666666D01*
X192145295Y-33666666D02*
X192288152Y-33666666D01*
X192288152Y-33666666D02*
X192383390Y-33714285D01*
X192383390Y-33714285D02*
X192431009Y-33761904D01*
X192431009Y-33761904D02*
X192478628Y-33857142D01*
X192478628Y-33857142D02*
X192478628Y-34238094D01*
X191954819Y-33333332D02*
X191954819Y-32666666D01*
X191954819Y-32666666D02*
X192954819Y-33095237D01*
X185559580Y-59142857D02*
X185607200Y-59190476D01*
X185607200Y-59190476D02*
X185654819Y-59333333D01*
X185654819Y-59333333D02*
X185654819Y-59428571D01*
X185654819Y-59428571D02*
X185607200Y-59571428D01*
X185607200Y-59571428D02*
X185511961Y-59666666D01*
X185511961Y-59666666D02*
X185416723Y-59714285D01*
X185416723Y-59714285D02*
X185226247Y-59761904D01*
X185226247Y-59761904D02*
X185083390Y-59761904D01*
X185083390Y-59761904D02*
X184892914Y-59714285D01*
X184892914Y-59714285D02*
X184797676Y-59666666D01*
X184797676Y-59666666D02*
X184702438Y-59571428D01*
X184702438Y-59571428D02*
X184654819Y-59428571D01*
X184654819Y-59428571D02*
X184654819Y-59333333D01*
X184654819Y-59333333D02*
X184702438Y-59190476D01*
X184702438Y-59190476D02*
X184750057Y-59142857D01*
X185654819Y-58190476D02*
X185654819Y-58761904D01*
X185654819Y-58476190D02*
X184654819Y-58476190D01*
X184654819Y-58476190D02*
X184797676Y-58571428D01*
X184797676Y-58571428D02*
X184892914Y-58666666D01*
X184892914Y-58666666D02*
X184940533Y-58761904D01*
X184654819Y-57857142D02*
X184654819Y-57238095D01*
X184654819Y-57238095D02*
X185035771Y-57571428D01*
X185035771Y-57571428D02*
X185035771Y-57428571D01*
X185035771Y-57428571D02*
X185083390Y-57333333D01*
X185083390Y-57333333D02*
X185131009Y-57285714D01*
X185131009Y-57285714D02*
X185226247Y-57238095D01*
X185226247Y-57238095D02*
X185464342Y-57238095D01*
X185464342Y-57238095D02*
X185559580Y-57285714D01*
X185559580Y-57285714D02*
X185607200Y-57333333D01*
X185607200Y-57333333D02*
X185654819Y-57428571D01*
X185654819Y-57428571D02*
X185654819Y-57714285D01*
X185654819Y-57714285D02*
X185607200Y-57809523D01*
X185607200Y-57809523D02*
X185559580Y-57857142D01*
X210749726Y-72007619D02*
X211777821Y-72007619D01*
X211777821Y-72007619D02*
X211898773Y-71947142D01*
X211898773Y-71947142D02*
X211959250Y-71886666D01*
X211959250Y-71886666D02*
X212019726Y-71765714D01*
X212019726Y-71765714D02*
X212019726Y-71523809D01*
X212019726Y-71523809D02*
X211959250Y-71402857D01*
X211959250Y-71402857D02*
X211898773Y-71342380D01*
X211898773Y-71342380D02*
X211777821Y-71281904D01*
X211777821Y-71281904D02*
X210749726Y-71281904D01*
X210870678Y-70737619D02*
X210810202Y-70677143D01*
X210810202Y-70677143D02*
X210749726Y-70556190D01*
X210749726Y-70556190D02*
X210749726Y-70253809D01*
X210749726Y-70253809D02*
X210810202Y-70132857D01*
X210810202Y-70132857D02*
X210870678Y-70072381D01*
X210870678Y-70072381D02*
X210991630Y-70011904D01*
X210991630Y-70011904D02*
X211112583Y-70011904D01*
X211112583Y-70011904D02*
X211294011Y-70072381D01*
X211294011Y-70072381D02*
X212019726Y-70798095D01*
X212019726Y-70798095D02*
X212019726Y-70011904D01*
X150627142Y-42659580D02*
X150579523Y-42707200D01*
X150579523Y-42707200D02*
X150436666Y-42754819D01*
X150436666Y-42754819D02*
X150341428Y-42754819D01*
X150341428Y-42754819D02*
X150198571Y-42707200D01*
X150198571Y-42707200D02*
X150103333Y-42611961D01*
X150103333Y-42611961D02*
X150055714Y-42516723D01*
X150055714Y-42516723D02*
X150008095Y-42326247D01*
X150008095Y-42326247D02*
X150008095Y-42183390D01*
X150008095Y-42183390D02*
X150055714Y-41992914D01*
X150055714Y-41992914D02*
X150103333Y-41897676D01*
X150103333Y-41897676D02*
X150198571Y-41802438D01*
X150198571Y-41802438D02*
X150341428Y-41754819D01*
X150341428Y-41754819D02*
X150436666Y-41754819D01*
X150436666Y-41754819D02*
X150579523Y-41802438D01*
X150579523Y-41802438D02*
X150627142Y-41850057D01*
X151579523Y-42754819D02*
X151008095Y-42754819D01*
X151293809Y-42754819D02*
X151293809Y-41754819D01*
X151293809Y-41754819D02*
X151198571Y-41897676D01*
X151198571Y-41897676D02*
X151103333Y-41992914D01*
X151103333Y-41992914D02*
X151008095Y-42040533D01*
X152436666Y-42088152D02*
X152436666Y-42754819D01*
X152198571Y-41707200D02*
X151960476Y-42421485D01*
X151960476Y-42421485D02*
X152579523Y-42421485D01*
X126948095Y-31074819D02*
X126948095Y-30074819D01*
X126948095Y-30551009D02*
X127519523Y-30551009D01*
X127519523Y-31074819D02*
X127519523Y-30074819D01*
X128519523Y-31074819D02*
X127948095Y-31074819D01*
X128233809Y-31074819D02*
X128233809Y-30074819D01*
X128233809Y-30074819D02*
X128138571Y-30217676D01*
X128138571Y-30217676D02*
X128043333Y-30312914D01*
X128043333Y-30312914D02*
X127948095Y-30360533D01*
X189654819Y-59642857D02*
X189178628Y-59976190D01*
X189654819Y-60214285D02*
X188654819Y-60214285D01*
X188654819Y-60214285D02*
X188654819Y-59833333D01*
X188654819Y-59833333D02*
X188702438Y-59738095D01*
X188702438Y-59738095D02*
X188750057Y-59690476D01*
X188750057Y-59690476D02*
X188845295Y-59642857D01*
X188845295Y-59642857D02*
X188988152Y-59642857D01*
X188988152Y-59642857D02*
X189083390Y-59690476D01*
X189083390Y-59690476D02*
X189131009Y-59738095D01*
X189131009Y-59738095D02*
X189178628Y-59833333D01*
X189178628Y-59833333D02*
X189178628Y-60214285D01*
X189654819Y-58690476D02*
X189654819Y-59261904D01*
X189654819Y-58976190D02*
X188654819Y-58976190D01*
X188654819Y-58976190D02*
X188797676Y-59071428D01*
X188797676Y-59071428D02*
X188892914Y-59166666D01*
X188892914Y-59166666D02*
X188940533Y-59261904D01*
X188654819Y-58071428D02*
X188654819Y-57976190D01*
X188654819Y-57976190D02*
X188702438Y-57880952D01*
X188702438Y-57880952D02*
X188750057Y-57833333D01*
X188750057Y-57833333D02*
X188845295Y-57785714D01*
X188845295Y-57785714D02*
X189035771Y-57738095D01*
X189035771Y-57738095D02*
X189273866Y-57738095D01*
X189273866Y-57738095D02*
X189464342Y-57785714D01*
X189464342Y-57785714D02*
X189559580Y-57833333D01*
X189559580Y-57833333D02*
X189607200Y-57880952D01*
X189607200Y-57880952D02*
X189654819Y-57976190D01*
X189654819Y-57976190D02*
X189654819Y-58071428D01*
X189654819Y-58071428D02*
X189607200Y-58166666D01*
X189607200Y-58166666D02*
X189559580Y-58214285D01*
X189559580Y-58214285D02*
X189464342Y-58261904D01*
X189464342Y-58261904D02*
X189273866Y-58309523D01*
X189273866Y-58309523D02*
X189035771Y-58309523D01*
X189035771Y-58309523D02*
X188845295Y-58261904D01*
X188845295Y-58261904D02*
X188750057Y-58214285D01*
X188750057Y-58214285D02*
X188702438Y-58166666D01*
X188702438Y-58166666D02*
X188654819Y-58071428D01*
X176857142Y-51754819D02*
X176523809Y-51278628D01*
X176285714Y-51754819D02*
X176285714Y-50754819D01*
X176285714Y-50754819D02*
X176666666Y-50754819D01*
X176666666Y-50754819D02*
X176761904Y-50802438D01*
X176761904Y-50802438D02*
X176809523Y-50850057D01*
X176809523Y-50850057D02*
X176857142Y-50945295D01*
X176857142Y-50945295D02*
X176857142Y-51088152D01*
X176857142Y-51088152D02*
X176809523Y-51183390D01*
X176809523Y-51183390D02*
X176761904Y-51231009D01*
X176761904Y-51231009D02*
X176666666Y-51278628D01*
X176666666Y-51278628D02*
X176285714Y-51278628D01*
X177809523Y-51754819D02*
X177238095Y-51754819D01*
X177523809Y-51754819D02*
X177523809Y-50754819D01*
X177523809Y-50754819D02*
X177428571Y-50897676D01*
X177428571Y-50897676D02*
X177333333Y-50992914D01*
X177333333Y-50992914D02*
X177238095Y-51040533D01*
X178190476Y-50850057D02*
X178238095Y-50802438D01*
X178238095Y-50802438D02*
X178333333Y-50754819D01*
X178333333Y-50754819D02*
X178571428Y-50754819D01*
X178571428Y-50754819D02*
X178666666Y-50802438D01*
X178666666Y-50802438D02*
X178714285Y-50850057D01*
X178714285Y-50850057D02*
X178761904Y-50945295D01*
X178761904Y-50945295D02*
X178761904Y-51040533D01*
X178761904Y-51040533D02*
X178714285Y-51183390D01*
X178714285Y-51183390D02*
X178142857Y-51754819D01*
X178142857Y-51754819D02*
X178761904Y-51754819D01*
X200454819Y-32166666D02*
X199978628Y-32499999D01*
X200454819Y-32738094D02*
X199454819Y-32738094D01*
X199454819Y-32738094D02*
X199454819Y-32357142D01*
X199454819Y-32357142D02*
X199502438Y-32261904D01*
X199502438Y-32261904D02*
X199550057Y-32214285D01*
X199550057Y-32214285D02*
X199645295Y-32166666D01*
X199645295Y-32166666D02*
X199788152Y-32166666D01*
X199788152Y-32166666D02*
X199883390Y-32214285D01*
X199883390Y-32214285D02*
X199931009Y-32261904D01*
X199931009Y-32261904D02*
X199978628Y-32357142D01*
X199978628Y-32357142D02*
X199978628Y-32738094D01*
X199454819Y-31261904D02*
X199454819Y-31738094D01*
X199454819Y-31738094D02*
X199931009Y-31785713D01*
X199931009Y-31785713D02*
X199883390Y-31738094D01*
X199883390Y-31738094D02*
X199835771Y-31642856D01*
X199835771Y-31642856D02*
X199835771Y-31404761D01*
X199835771Y-31404761D02*
X199883390Y-31309523D01*
X199883390Y-31309523D02*
X199931009Y-31261904D01*
X199931009Y-31261904D02*
X200026247Y-31214285D01*
X200026247Y-31214285D02*
X200264342Y-31214285D01*
X200264342Y-31214285D02*
X200359580Y-31261904D01*
X200359580Y-31261904D02*
X200407200Y-31309523D01*
X200407200Y-31309523D02*
X200454819Y-31404761D01*
X200454819Y-31404761D02*
X200454819Y-31642856D01*
X200454819Y-31642856D02*
X200407200Y-31738094D01*
X200407200Y-31738094D02*
X200359580Y-31785713D01*
X190333333Y-43859580D02*
X190285714Y-43907200D01*
X190285714Y-43907200D02*
X190142857Y-43954819D01*
X190142857Y-43954819D02*
X190047619Y-43954819D01*
X190047619Y-43954819D02*
X189904762Y-43907200D01*
X189904762Y-43907200D02*
X189809524Y-43811961D01*
X189809524Y-43811961D02*
X189761905Y-43716723D01*
X189761905Y-43716723D02*
X189714286Y-43526247D01*
X189714286Y-43526247D02*
X189714286Y-43383390D01*
X189714286Y-43383390D02*
X189761905Y-43192914D01*
X189761905Y-43192914D02*
X189809524Y-43097676D01*
X189809524Y-43097676D02*
X189904762Y-43002438D01*
X189904762Y-43002438D02*
X190047619Y-42954819D01*
X190047619Y-42954819D02*
X190142857Y-42954819D01*
X190142857Y-42954819D02*
X190285714Y-43002438D01*
X190285714Y-43002438D02*
X190333333Y-43050057D01*
X191190476Y-42954819D02*
X191000000Y-42954819D01*
X191000000Y-42954819D02*
X190904762Y-43002438D01*
X190904762Y-43002438D02*
X190857143Y-43050057D01*
X190857143Y-43050057D02*
X190761905Y-43192914D01*
X190761905Y-43192914D02*
X190714286Y-43383390D01*
X190714286Y-43383390D02*
X190714286Y-43764342D01*
X190714286Y-43764342D02*
X190761905Y-43859580D01*
X190761905Y-43859580D02*
X190809524Y-43907200D01*
X190809524Y-43907200D02*
X190904762Y-43954819D01*
X190904762Y-43954819D02*
X191095238Y-43954819D01*
X191095238Y-43954819D02*
X191190476Y-43907200D01*
X191190476Y-43907200D02*
X191238095Y-43859580D01*
X191238095Y-43859580D02*
X191285714Y-43764342D01*
X191285714Y-43764342D02*
X191285714Y-43526247D01*
X191285714Y-43526247D02*
X191238095Y-43431009D01*
X191238095Y-43431009D02*
X191190476Y-43383390D01*
X191190476Y-43383390D02*
X191095238Y-43335771D01*
X191095238Y-43335771D02*
X190904762Y-43335771D01*
X190904762Y-43335771D02*
X190809524Y-43383390D01*
X190809524Y-43383390D02*
X190761905Y-43431009D01*
X190761905Y-43431009D02*
X190714286Y-43526247D01*
X203103333Y-33159580D02*
X203055714Y-33207200D01*
X203055714Y-33207200D02*
X202912857Y-33254819D01*
X202912857Y-33254819D02*
X202817619Y-33254819D01*
X202817619Y-33254819D02*
X202674762Y-33207200D01*
X202674762Y-33207200D02*
X202579524Y-33111961D01*
X202579524Y-33111961D02*
X202531905Y-33016723D01*
X202531905Y-33016723D02*
X202484286Y-32826247D01*
X202484286Y-32826247D02*
X202484286Y-32683390D01*
X202484286Y-32683390D02*
X202531905Y-32492914D01*
X202531905Y-32492914D02*
X202579524Y-32397676D01*
X202579524Y-32397676D02*
X202674762Y-32302438D01*
X202674762Y-32302438D02*
X202817619Y-32254819D01*
X202817619Y-32254819D02*
X202912857Y-32254819D01*
X202912857Y-32254819D02*
X203055714Y-32302438D01*
X203055714Y-32302438D02*
X203103333Y-32350057D01*
X204008095Y-32254819D02*
X203531905Y-32254819D01*
X203531905Y-32254819D02*
X203484286Y-32731009D01*
X203484286Y-32731009D02*
X203531905Y-32683390D01*
X203531905Y-32683390D02*
X203627143Y-32635771D01*
X203627143Y-32635771D02*
X203865238Y-32635771D01*
X203865238Y-32635771D02*
X203960476Y-32683390D01*
X203960476Y-32683390D02*
X204008095Y-32731009D01*
X204008095Y-32731009D02*
X204055714Y-32826247D01*
X204055714Y-32826247D02*
X204055714Y-33064342D01*
X204055714Y-33064342D02*
X204008095Y-33159580D01*
X204008095Y-33159580D02*
X203960476Y-33207200D01*
X203960476Y-33207200D02*
X203865238Y-33254819D01*
X203865238Y-33254819D02*
X203627143Y-33254819D01*
X203627143Y-33254819D02*
X203531905Y-33207200D01*
X203531905Y-33207200D02*
X203484286Y-33159580D01*
X175833333Y-61754819D02*
X175500000Y-61278628D01*
X175261905Y-61754819D02*
X175261905Y-60754819D01*
X175261905Y-60754819D02*
X175642857Y-60754819D01*
X175642857Y-60754819D02*
X175738095Y-60802438D01*
X175738095Y-60802438D02*
X175785714Y-60850057D01*
X175785714Y-60850057D02*
X175833333Y-60945295D01*
X175833333Y-60945295D02*
X175833333Y-61088152D01*
X175833333Y-61088152D02*
X175785714Y-61183390D01*
X175785714Y-61183390D02*
X175738095Y-61231009D01*
X175738095Y-61231009D02*
X175642857Y-61278628D01*
X175642857Y-61278628D02*
X175261905Y-61278628D01*
X176404762Y-61183390D02*
X176309524Y-61135771D01*
X176309524Y-61135771D02*
X176261905Y-61088152D01*
X176261905Y-61088152D02*
X176214286Y-60992914D01*
X176214286Y-60992914D02*
X176214286Y-60945295D01*
X176214286Y-60945295D02*
X176261905Y-60850057D01*
X176261905Y-60850057D02*
X176309524Y-60802438D01*
X176309524Y-60802438D02*
X176404762Y-60754819D01*
X176404762Y-60754819D02*
X176595238Y-60754819D01*
X176595238Y-60754819D02*
X176690476Y-60802438D01*
X176690476Y-60802438D02*
X176738095Y-60850057D01*
X176738095Y-60850057D02*
X176785714Y-60945295D01*
X176785714Y-60945295D02*
X176785714Y-60992914D01*
X176785714Y-60992914D02*
X176738095Y-61088152D01*
X176738095Y-61088152D02*
X176690476Y-61135771D01*
X176690476Y-61135771D02*
X176595238Y-61183390D01*
X176595238Y-61183390D02*
X176404762Y-61183390D01*
X176404762Y-61183390D02*
X176309524Y-61231009D01*
X176309524Y-61231009D02*
X176261905Y-61278628D01*
X176261905Y-61278628D02*
X176214286Y-61373866D01*
X176214286Y-61373866D02*
X176214286Y-61564342D01*
X176214286Y-61564342D02*
X176261905Y-61659580D01*
X176261905Y-61659580D02*
X176309524Y-61707200D01*
X176309524Y-61707200D02*
X176404762Y-61754819D01*
X176404762Y-61754819D02*
X176595238Y-61754819D01*
X176595238Y-61754819D02*
X176690476Y-61707200D01*
X176690476Y-61707200D02*
X176738095Y-61659580D01*
X176738095Y-61659580D02*
X176785714Y-61564342D01*
X176785714Y-61564342D02*
X176785714Y-61373866D01*
X176785714Y-61373866D02*
X176738095Y-61278628D01*
X176738095Y-61278628D02*
X176690476Y-61231009D01*
X176690476Y-61231009D02*
X176595238Y-61183390D01*
X161634580Y-43142857D02*
X161682200Y-43190476D01*
X161682200Y-43190476D02*
X161729819Y-43333333D01*
X161729819Y-43333333D02*
X161729819Y-43428571D01*
X161729819Y-43428571D02*
X161682200Y-43571428D01*
X161682200Y-43571428D02*
X161586961Y-43666666D01*
X161586961Y-43666666D02*
X161491723Y-43714285D01*
X161491723Y-43714285D02*
X161301247Y-43761904D01*
X161301247Y-43761904D02*
X161158390Y-43761904D01*
X161158390Y-43761904D02*
X160967914Y-43714285D01*
X160967914Y-43714285D02*
X160872676Y-43666666D01*
X160872676Y-43666666D02*
X160777438Y-43571428D01*
X160777438Y-43571428D02*
X160729819Y-43428571D01*
X160729819Y-43428571D02*
X160729819Y-43333333D01*
X160729819Y-43333333D02*
X160777438Y-43190476D01*
X160777438Y-43190476D02*
X160825057Y-43142857D01*
X161729819Y-42190476D02*
X161729819Y-42761904D01*
X161729819Y-42476190D02*
X160729819Y-42476190D01*
X160729819Y-42476190D02*
X160872676Y-42571428D01*
X160872676Y-42571428D02*
X160967914Y-42666666D01*
X160967914Y-42666666D02*
X161015533Y-42761904D01*
X161729819Y-41238095D02*
X161729819Y-41809523D01*
X161729819Y-41523809D02*
X160729819Y-41523809D01*
X160729819Y-41523809D02*
X160872676Y-41619047D01*
X160872676Y-41619047D02*
X160967914Y-41714285D01*
X160967914Y-41714285D02*
X161015533Y-41809523D01*
X163833333Y-70754819D02*
X163500000Y-70278628D01*
X163261905Y-70754819D02*
X163261905Y-69754819D01*
X163261905Y-69754819D02*
X163642857Y-69754819D01*
X163642857Y-69754819D02*
X163738095Y-69802438D01*
X163738095Y-69802438D02*
X163785714Y-69850057D01*
X163785714Y-69850057D02*
X163833333Y-69945295D01*
X163833333Y-69945295D02*
X163833333Y-70088152D01*
X163833333Y-70088152D02*
X163785714Y-70183390D01*
X163785714Y-70183390D02*
X163738095Y-70231009D01*
X163738095Y-70231009D02*
X163642857Y-70278628D01*
X163642857Y-70278628D02*
X163261905Y-70278628D01*
X164785714Y-70754819D02*
X164214286Y-70754819D01*
X164500000Y-70754819D02*
X164500000Y-69754819D01*
X164500000Y-69754819D02*
X164404762Y-69897676D01*
X164404762Y-69897676D02*
X164309524Y-69992914D01*
X164309524Y-69992914D02*
X164214286Y-70040533D01*
X183034580Y-40666666D02*
X183082200Y-40714285D01*
X183082200Y-40714285D02*
X183129819Y-40857142D01*
X183129819Y-40857142D02*
X183129819Y-40952380D01*
X183129819Y-40952380D02*
X183082200Y-41095237D01*
X183082200Y-41095237D02*
X182986961Y-41190475D01*
X182986961Y-41190475D02*
X182891723Y-41238094D01*
X182891723Y-41238094D02*
X182701247Y-41285713D01*
X182701247Y-41285713D02*
X182558390Y-41285713D01*
X182558390Y-41285713D02*
X182367914Y-41238094D01*
X182367914Y-41238094D02*
X182272676Y-41190475D01*
X182272676Y-41190475D02*
X182177438Y-41095237D01*
X182177438Y-41095237D02*
X182129819Y-40952380D01*
X182129819Y-40952380D02*
X182129819Y-40857142D01*
X182129819Y-40857142D02*
X182177438Y-40714285D01*
X182177438Y-40714285D02*
X182225057Y-40666666D01*
X182558390Y-40095237D02*
X182510771Y-40190475D01*
X182510771Y-40190475D02*
X182463152Y-40238094D01*
X182463152Y-40238094D02*
X182367914Y-40285713D01*
X182367914Y-40285713D02*
X182320295Y-40285713D01*
X182320295Y-40285713D02*
X182225057Y-40238094D01*
X182225057Y-40238094D02*
X182177438Y-40190475D01*
X182177438Y-40190475D02*
X182129819Y-40095237D01*
X182129819Y-40095237D02*
X182129819Y-39904761D01*
X182129819Y-39904761D02*
X182177438Y-39809523D01*
X182177438Y-39809523D02*
X182225057Y-39761904D01*
X182225057Y-39761904D02*
X182320295Y-39714285D01*
X182320295Y-39714285D02*
X182367914Y-39714285D01*
X182367914Y-39714285D02*
X182463152Y-39761904D01*
X182463152Y-39761904D02*
X182510771Y-39809523D01*
X182510771Y-39809523D02*
X182558390Y-39904761D01*
X182558390Y-39904761D02*
X182558390Y-40095237D01*
X182558390Y-40095237D02*
X182606009Y-40190475D01*
X182606009Y-40190475D02*
X182653628Y-40238094D01*
X182653628Y-40238094D02*
X182748866Y-40285713D01*
X182748866Y-40285713D02*
X182939342Y-40285713D01*
X182939342Y-40285713D02*
X183034580Y-40238094D01*
X183034580Y-40238094D02*
X183082200Y-40190475D01*
X183082200Y-40190475D02*
X183129819Y-40095237D01*
X183129819Y-40095237D02*
X183129819Y-39904761D01*
X183129819Y-39904761D02*
X183082200Y-39809523D01*
X183082200Y-39809523D02*
X183034580Y-39761904D01*
X183034580Y-39761904D02*
X182939342Y-39714285D01*
X182939342Y-39714285D02*
X182748866Y-39714285D01*
X182748866Y-39714285D02*
X182653628Y-39761904D01*
X182653628Y-39761904D02*
X182606009Y-39809523D01*
X182606009Y-39809523D02*
X182558390Y-39904761D01*
X164857142Y-84954819D02*
X164523809Y-84478628D01*
X164285714Y-84954819D02*
X164285714Y-83954819D01*
X164285714Y-83954819D02*
X164666666Y-83954819D01*
X164666666Y-83954819D02*
X164761904Y-84002438D01*
X164761904Y-84002438D02*
X164809523Y-84050057D01*
X164809523Y-84050057D02*
X164857142Y-84145295D01*
X164857142Y-84145295D02*
X164857142Y-84288152D01*
X164857142Y-84288152D02*
X164809523Y-84383390D01*
X164809523Y-84383390D02*
X164761904Y-84431009D01*
X164761904Y-84431009D02*
X164666666Y-84478628D01*
X164666666Y-84478628D02*
X164285714Y-84478628D01*
X165809523Y-84954819D02*
X165238095Y-84954819D01*
X165523809Y-84954819D02*
X165523809Y-83954819D01*
X165523809Y-83954819D02*
X165428571Y-84097676D01*
X165428571Y-84097676D02*
X165333333Y-84192914D01*
X165333333Y-84192914D02*
X165238095Y-84240533D01*
X166142857Y-83954819D02*
X166809523Y-83954819D01*
X166809523Y-83954819D02*
X166380952Y-84954819D01*
X149857142Y-63754819D02*
X149523809Y-63278628D01*
X149285714Y-63754819D02*
X149285714Y-62754819D01*
X149285714Y-62754819D02*
X149666666Y-62754819D01*
X149666666Y-62754819D02*
X149761904Y-62802438D01*
X149761904Y-62802438D02*
X149809523Y-62850057D01*
X149809523Y-62850057D02*
X149857142Y-62945295D01*
X149857142Y-62945295D02*
X149857142Y-63088152D01*
X149857142Y-63088152D02*
X149809523Y-63183390D01*
X149809523Y-63183390D02*
X149761904Y-63231009D01*
X149761904Y-63231009D02*
X149666666Y-63278628D01*
X149666666Y-63278628D02*
X149285714Y-63278628D01*
X150809523Y-63754819D02*
X150238095Y-63754819D01*
X150523809Y-63754819D02*
X150523809Y-62754819D01*
X150523809Y-62754819D02*
X150428571Y-62897676D01*
X150428571Y-62897676D02*
X150333333Y-62992914D01*
X150333333Y-62992914D02*
X150238095Y-63040533D01*
X151714285Y-62754819D02*
X151238095Y-62754819D01*
X151238095Y-62754819D02*
X151190476Y-63231009D01*
X151190476Y-63231009D02*
X151238095Y-63183390D01*
X151238095Y-63183390D02*
X151333333Y-63135771D01*
X151333333Y-63135771D02*
X151571428Y-63135771D01*
X151571428Y-63135771D02*
X151666666Y-63183390D01*
X151666666Y-63183390D02*
X151714285Y-63231009D01*
X151714285Y-63231009D02*
X151761904Y-63326247D01*
X151761904Y-63326247D02*
X151761904Y-63564342D01*
X151761904Y-63564342D02*
X151714285Y-63659580D01*
X151714285Y-63659580D02*
X151666666Y-63707200D01*
X151666666Y-63707200D02*
X151571428Y-63754819D01*
X151571428Y-63754819D02*
X151333333Y-63754819D01*
X151333333Y-63754819D02*
X151238095Y-63707200D01*
X151238095Y-63707200D02*
X151190476Y-63659580D01*
X198954819Y-74666666D02*
X198478628Y-74999999D01*
X198954819Y-75238094D02*
X197954819Y-75238094D01*
X197954819Y-75238094D02*
X197954819Y-74857142D01*
X197954819Y-74857142D02*
X198002438Y-74761904D01*
X198002438Y-74761904D02*
X198050057Y-74714285D01*
X198050057Y-74714285D02*
X198145295Y-74666666D01*
X198145295Y-74666666D02*
X198288152Y-74666666D01*
X198288152Y-74666666D02*
X198383390Y-74714285D01*
X198383390Y-74714285D02*
X198431009Y-74761904D01*
X198431009Y-74761904D02*
X198478628Y-74857142D01*
X198478628Y-74857142D02*
X198478628Y-75238094D01*
X198050057Y-74285713D02*
X198002438Y-74238094D01*
X198002438Y-74238094D02*
X197954819Y-74142856D01*
X197954819Y-74142856D02*
X197954819Y-73904761D01*
X197954819Y-73904761D02*
X198002438Y-73809523D01*
X198002438Y-73809523D02*
X198050057Y-73761904D01*
X198050057Y-73761904D02*
X198145295Y-73714285D01*
X198145295Y-73714285D02*
X198240533Y-73714285D01*
X198240533Y-73714285D02*
X198383390Y-73761904D01*
X198383390Y-73761904D02*
X198954819Y-74333332D01*
X198954819Y-74333332D02*
X198954819Y-73714285D01*
X150857142Y-51454819D02*
X150523809Y-50978628D01*
X150285714Y-51454819D02*
X150285714Y-50454819D01*
X150285714Y-50454819D02*
X150666666Y-50454819D01*
X150666666Y-50454819D02*
X150761904Y-50502438D01*
X150761904Y-50502438D02*
X150809523Y-50550057D01*
X150809523Y-50550057D02*
X150857142Y-50645295D01*
X150857142Y-50645295D02*
X150857142Y-50788152D01*
X150857142Y-50788152D02*
X150809523Y-50883390D01*
X150809523Y-50883390D02*
X150761904Y-50931009D01*
X150761904Y-50931009D02*
X150666666Y-50978628D01*
X150666666Y-50978628D02*
X150285714Y-50978628D01*
X151809523Y-51454819D02*
X151238095Y-51454819D01*
X151523809Y-51454819D02*
X151523809Y-50454819D01*
X151523809Y-50454819D02*
X151428571Y-50597676D01*
X151428571Y-50597676D02*
X151333333Y-50692914D01*
X151333333Y-50692914D02*
X151238095Y-50740533D01*
X152142857Y-50454819D02*
X152761904Y-50454819D01*
X152761904Y-50454819D02*
X152428571Y-50835771D01*
X152428571Y-50835771D02*
X152571428Y-50835771D01*
X152571428Y-50835771D02*
X152666666Y-50883390D01*
X152666666Y-50883390D02*
X152714285Y-50931009D01*
X152714285Y-50931009D02*
X152761904Y-51026247D01*
X152761904Y-51026247D02*
X152761904Y-51264342D01*
X152761904Y-51264342D02*
X152714285Y-51359580D01*
X152714285Y-51359580D02*
X152666666Y-51407200D01*
X152666666Y-51407200D02*
X152571428Y-51454819D01*
X152571428Y-51454819D02*
X152285714Y-51454819D01*
X152285714Y-51454819D02*
X152190476Y-51407200D01*
X152190476Y-51407200D02*
X152142857Y-51359580D01*
X149333333Y-76303080D02*
X149285714Y-76350700D01*
X149285714Y-76350700D02*
X149142857Y-76398319D01*
X149142857Y-76398319D02*
X149047619Y-76398319D01*
X149047619Y-76398319D02*
X148904762Y-76350700D01*
X148904762Y-76350700D02*
X148809524Y-76255461D01*
X148809524Y-76255461D02*
X148761905Y-76160223D01*
X148761905Y-76160223D02*
X148714286Y-75969747D01*
X148714286Y-75969747D02*
X148714286Y-75826890D01*
X148714286Y-75826890D02*
X148761905Y-75636414D01*
X148761905Y-75636414D02*
X148809524Y-75541176D01*
X148809524Y-75541176D02*
X148904762Y-75445938D01*
X148904762Y-75445938D02*
X149047619Y-75398319D01*
X149047619Y-75398319D02*
X149142857Y-75398319D01*
X149142857Y-75398319D02*
X149285714Y-75445938D01*
X149285714Y-75445938D02*
X149333333Y-75493557D01*
X150285714Y-76398319D02*
X149714286Y-76398319D01*
X150000000Y-76398319D02*
X150000000Y-75398319D01*
X150000000Y-75398319D02*
X149904762Y-75541176D01*
X149904762Y-75541176D02*
X149809524Y-75636414D01*
X149809524Y-75636414D02*
X149714286Y-75684033D01*
X176833333Y-50027319D02*
X176500000Y-49551128D01*
X176261905Y-50027319D02*
X176261905Y-49027319D01*
X176261905Y-49027319D02*
X176642857Y-49027319D01*
X176642857Y-49027319D02*
X176738095Y-49074938D01*
X176738095Y-49074938D02*
X176785714Y-49122557D01*
X176785714Y-49122557D02*
X176833333Y-49217795D01*
X176833333Y-49217795D02*
X176833333Y-49360652D01*
X176833333Y-49360652D02*
X176785714Y-49455890D01*
X176785714Y-49455890D02*
X176738095Y-49503509D01*
X176738095Y-49503509D02*
X176642857Y-49551128D01*
X176642857Y-49551128D02*
X176261905Y-49551128D01*
X177309524Y-50027319D02*
X177500000Y-50027319D01*
X177500000Y-50027319D02*
X177595238Y-49979700D01*
X177595238Y-49979700D02*
X177642857Y-49932080D01*
X177642857Y-49932080D02*
X177738095Y-49789223D01*
X177738095Y-49789223D02*
X177785714Y-49598747D01*
X177785714Y-49598747D02*
X177785714Y-49217795D01*
X177785714Y-49217795D02*
X177738095Y-49122557D01*
X177738095Y-49122557D02*
X177690476Y-49074938D01*
X177690476Y-49074938D02*
X177595238Y-49027319D01*
X177595238Y-49027319D02*
X177404762Y-49027319D01*
X177404762Y-49027319D02*
X177309524Y-49074938D01*
X177309524Y-49074938D02*
X177261905Y-49122557D01*
X177261905Y-49122557D02*
X177214286Y-49217795D01*
X177214286Y-49217795D02*
X177214286Y-49455890D01*
X177214286Y-49455890D02*
X177261905Y-49551128D01*
X177261905Y-49551128D02*
X177309524Y-49598747D01*
X177309524Y-49598747D02*
X177404762Y-49646366D01*
X177404762Y-49646366D02*
X177595238Y-49646366D01*
X177595238Y-49646366D02*
X177690476Y-49598747D01*
X177690476Y-49598747D02*
X177738095Y-49551128D01*
X177738095Y-49551128D02*
X177785714Y-49455890D01*
X175398333Y-30359580D02*
X175350714Y-30407200D01*
X175350714Y-30407200D02*
X175207857Y-30454819D01*
X175207857Y-30454819D02*
X175112619Y-30454819D01*
X175112619Y-30454819D02*
X174969762Y-30407200D01*
X174969762Y-30407200D02*
X174874524Y-30311961D01*
X174874524Y-30311961D02*
X174826905Y-30216723D01*
X174826905Y-30216723D02*
X174779286Y-30026247D01*
X174779286Y-30026247D02*
X174779286Y-29883390D01*
X174779286Y-29883390D02*
X174826905Y-29692914D01*
X174826905Y-29692914D02*
X174874524Y-29597676D01*
X174874524Y-29597676D02*
X174969762Y-29502438D01*
X174969762Y-29502438D02*
X175112619Y-29454819D01*
X175112619Y-29454819D02*
X175207857Y-29454819D01*
X175207857Y-29454819D02*
X175350714Y-29502438D01*
X175350714Y-29502438D02*
X175398333Y-29550057D01*
X176255476Y-29788152D02*
X176255476Y-30454819D01*
X176017381Y-29407200D02*
X175779286Y-30121485D01*
X175779286Y-30121485D02*
X176398333Y-30121485D01*
X183666667Y-81027200D02*
X183809524Y-81074819D01*
X183809524Y-81074819D02*
X184047619Y-81074819D01*
X184047619Y-81074819D02*
X184142857Y-81027200D01*
X184142857Y-81027200D02*
X184190476Y-80979580D01*
X184190476Y-80979580D02*
X184238095Y-80884342D01*
X184238095Y-80884342D02*
X184238095Y-80789104D01*
X184238095Y-80789104D02*
X184190476Y-80693866D01*
X184190476Y-80693866D02*
X184142857Y-80646247D01*
X184142857Y-80646247D02*
X184047619Y-80598628D01*
X184047619Y-80598628D02*
X183857143Y-80551009D01*
X183857143Y-80551009D02*
X183761905Y-80503390D01*
X183761905Y-80503390D02*
X183714286Y-80455771D01*
X183714286Y-80455771D02*
X183666667Y-80360533D01*
X183666667Y-80360533D02*
X183666667Y-80265295D01*
X183666667Y-80265295D02*
X183714286Y-80170057D01*
X183714286Y-80170057D02*
X183761905Y-80122438D01*
X183761905Y-80122438D02*
X183857143Y-80074819D01*
X183857143Y-80074819D02*
X184095238Y-80074819D01*
X184095238Y-80074819D02*
X184238095Y-80122438D01*
X184571429Y-80074819D02*
X184809524Y-81074819D01*
X184809524Y-81074819D02*
X185000000Y-80360533D01*
X185000000Y-80360533D02*
X185190476Y-81074819D01*
X185190476Y-81074819D02*
X185428572Y-80074819D01*
X185714286Y-80074819D02*
X186333333Y-80074819D01*
X186333333Y-80074819D02*
X186000000Y-80455771D01*
X186000000Y-80455771D02*
X186142857Y-80455771D01*
X186142857Y-80455771D02*
X186238095Y-80503390D01*
X186238095Y-80503390D02*
X186285714Y-80551009D01*
X186285714Y-80551009D02*
X186333333Y-80646247D01*
X186333333Y-80646247D02*
X186333333Y-80884342D01*
X186333333Y-80884342D02*
X186285714Y-80979580D01*
X186285714Y-80979580D02*
X186238095Y-81027200D01*
X186238095Y-81027200D02*
X186142857Y-81074819D01*
X186142857Y-81074819D02*
X185857143Y-81074819D01*
X185857143Y-81074819D02*
X185761905Y-81027200D01*
X185761905Y-81027200D02*
X185714286Y-80979580D01*
X110166666Y-77224819D02*
X110166666Y-77939104D01*
X110166666Y-77939104D02*
X110119047Y-78081961D01*
X110119047Y-78081961D02*
X110023809Y-78177200D01*
X110023809Y-78177200D02*
X109880952Y-78224819D01*
X109880952Y-78224819D02*
X109785714Y-78224819D01*
X110595238Y-77320057D02*
X110642857Y-77272438D01*
X110642857Y-77272438D02*
X110738095Y-77224819D01*
X110738095Y-77224819D02*
X110976190Y-77224819D01*
X110976190Y-77224819D02*
X111071428Y-77272438D01*
X111071428Y-77272438D02*
X111119047Y-77320057D01*
X111119047Y-77320057D02*
X111166666Y-77415295D01*
X111166666Y-77415295D02*
X111166666Y-77510533D01*
X111166666Y-77510533D02*
X111119047Y-77653390D01*
X111119047Y-77653390D02*
X110547619Y-78224819D01*
X110547619Y-78224819D02*
X111166666Y-78224819D01*
X181166666Y-65994819D02*
X181166666Y-66709104D01*
X181166666Y-66709104D02*
X181119047Y-66851961D01*
X181119047Y-66851961D02*
X181023809Y-66947200D01*
X181023809Y-66947200D02*
X180880952Y-66994819D01*
X180880952Y-66994819D02*
X180785714Y-66994819D01*
X182071428Y-66328152D02*
X182071428Y-66994819D01*
X181833333Y-65947200D02*
X181595238Y-66661485D01*
X181595238Y-66661485D02*
X182214285Y-66661485D01*
X147833333Y-73133447D02*
X147500000Y-72657256D01*
X147261905Y-73133447D02*
X147261905Y-72133447D01*
X147261905Y-72133447D02*
X147642857Y-72133447D01*
X147642857Y-72133447D02*
X147738095Y-72181066D01*
X147738095Y-72181066D02*
X147785714Y-72228685D01*
X147785714Y-72228685D02*
X147833333Y-72323923D01*
X147833333Y-72323923D02*
X147833333Y-72466780D01*
X147833333Y-72466780D02*
X147785714Y-72562018D01*
X147785714Y-72562018D02*
X147738095Y-72609637D01*
X147738095Y-72609637D02*
X147642857Y-72657256D01*
X147642857Y-72657256D02*
X147261905Y-72657256D01*
X148690476Y-72466780D02*
X148690476Y-73133447D01*
X148452381Y-72085828D02*
X148214286Y-72800113D01*
X148214286Y-72800113D02*
X148833333Y-72800113D01*
X148454819Y-59053333D02*
X149169104Y-59053333D01*
X149169104Y-59053333D02*
X149311961Y-59100952D01*
X149311961Y-59100952D02*
X149407200Y-59196190D01*
X149407200Y-59196190D02*
X149454819Y-59339047D01*
X149454819Y-59339047D02*
X149454819Y-59434285D01*
X149454819Y-58577142D02*
X148454819Y-58577142D01*
X148454819Y-58577142D02*
X148454819Y-58196190D01*
X148454819Y-58196190D02*
X148502438Y-58100952D01*
X148502438Y-58100952D02*
X148550057Y-58053333D01*
X148550057Y-58053333D02*
X148645295Y-58005714D01*
X148645295Y-58005714D02*
X148788152Y-58005714D01*
X148788152Y-58005714D02*
X148883390Y-58053333D01*
X148883390Y-58053333D02*
X148931009Y-58100952D01*
X148931009Y-58100952D02*
X148978628Y-58196190D01*
X148978628Y-58196190D02*
X148978628Y-58577142D01*
X149454819Y-57053333D02*
X149454819Y-57624761D01*
X149454819Y-57339047D02*
X148454819Y-57339047D01*
X148454819Y-57339047D02*
X148597676Y-57434285D01*
X148597676Y-57434285D02*
X148692914Y-57529523D01*
X148692914Y-57529523D02*
X148740533Y-57624761D01*
X220848095Y-29974819D02*
X220848095Y-28974819D01*
X220848095Y-29451009D02*
X221419523Y-29451009D01*
X221419523Y-29974819D02*
X221419523Y-28974819D01*
X221848095Y-29070057D02*
X221895714Y-29022438D01*
X221895714Y-29022438D02*
X221990952Y-28974819D01*
X221990952Y-28974819D02*
X222229047Y-28974819D01*
X222229047Y-28974819D02*
X222324285Y-29022438D01*
X222324285Y-29022438D02*
X222371904Y-29070057D01*
X222371904Y-29070057D02*
X222419523Y-29165295D01*
X222419523Y-29165295D02*
X222419523Y-29260533D01*
X222419523Y-29260533D02*
X222371904Y-29403390D01*
X222371904Y-29403390D02*
X221800476Y-29974819D01*
X221800476Y-29974819D02*
X222419523Y-29974819D01*
X145166666Y-67454819D02*
X145166666Y-68169104D01*
X145166666Y-68169104D02*
X145119047Y-68311961D01*
X145119047Y-68311961D02*
X145023809Y-68407200D01*
X145023809Y-68407200D02*
X144880952Y-68454819D01*
X144880952Y-68454819D02*
X144785714Y-68454819D01*
X145642857Y-68454819D02*
X145642857Y-67454819D01*
X145642857Y-67454819D02*
X146023809Y-67454819D01*
X146023809Y-67454819D02*
X146119047Y-67502438D01*
X146119047Y-67502438D02*
X146166666Y-67550057D01*
X146166666Y-67550057D02*
X146214285Y-67645295D01*
X146214285Y-67645295D02*
X146214285Y-67788152D01*
X146214285Y-67788152D02*
X146166666Y-67883390D01*
X146166666Y-67883390D02*
X146119047Y-67931009D01*
X146119047Y-67931009D02*
X146023809Y-67978628D01*
X146023809Y-67978628D02*
X145642857Y-67978628D01*
X146595238Y-67550057D02*
X146642857Y-67502438D01*
X146642857Y-67502438D02*
X146738095Y-67454819D01*
X146738095Y-67454819D02*
X146976190Y-67454819D01*
X146976190Y-67454819D02*
X147071428Y-67502438D01*
X147071428Y-67502438D02*
X147119047Y-67550057D01*
X147119047Y-67550057D02*
X147166666Y-67645295D01*
X147166666Y-67645295D02*
X147166666Y-67740533D01*
X147166666Y-67740533D02*
X147119047Y-67883390D01*
X147119047Y-67883390D02*
X146547619Y-68454819D01*
X146547619Y-68454819D02*
X147166666Y-68454819D01*
X126808095Y-69924819D02*
X126808095Y-68924819D01*
X126808095Y-69401009D02*
X127379523Y-69401009D01*
X127379523Y-69924819D02*
X127379523Y-68924819D01*
X128284285Y-69258152D02*
X128284285Y-69924819D01*
X128046190Y-68877200D02*
X127808095Y-69591485D01*
X127808095Y-69591485D02*
X128427142Y-69591485D01*
X195689819Y-85642857D02*
X195689819Y-86119047D01*
X195689819Y-86119047D02*
X194689819Y-86119047D01*
X195642200Y-85357142D02*
X195689819Y-85214285D01*
X195689819Y-85214285D02*
X195689819Y-84976190D01*
X195689819Y-84976190D02*
X195642200Y-84880952D01*
X195642200Y-84880952D02*
X195594580Y-84833333D01*
X195594580Y-84833333D02*
X195499342Y-84785714D01*
X195499342Y-84785714D02*
X195404104Y-84785714D01*
X195404104Y-84785714D02*
X195308866Y-84833333D01*
X195308866Y-84833333D02*
X195261247Y-84880952D01*
X195261247Y-84880952D02*
X195213628Y-84976190D01*
X195213628Y-84976190D02*
X195166009Y-85166666D01*
X195166009Y-85166666D02*
X195118390Y-85261904D01*
X195118390Y-85261904D02*
X195070771Y-85309523D01*
X195070771Y-85309523D02*
X194975533Y-85357142D01*
X194975533Y-85357142D02*
X194880295Y-85357142D01*
X194880295Y-85357142D02*
X194785057Y-85309523D01*
X194785057Y-85309523D02*
X194737438Y-85261904D01*
X194737438Y-85261904D02*
X194689819Y-85166666D01*
X194689819Y-85166666D02*
X194689819Y-84928571D01*
X194689819Y-84928571D02*
X194737438Y-84785714D01*
X195689819Y-83833333D02*
X195689819Y-84404761D01*
X195689819Y-84119047D02*
X194689819Y-84119047D01*
X194689819Y-84119047D02*
X194832676Y-84214285D01*
X194832676Y-84214285D02*
X194927914Y-84309523D01*
X194927914Y-84309523D02*
X194975533Y-84404761D01*
X151859580Y-61142857D02*
X151907200Y-61190476D01*
X151907200Y-61190476D02*
X151954819Y-61333333D01*
X151954819Y-61333333D02*
X151954819Y-61428571D01*
X151954819Y-61428571D02*
X151907200Y-61571428D01*
X151907200Y-61571428D02*
X151811961Y-61666666D01*
X151811961Y-61666666D02*
X151716723Y-61714285D01*
X151716723Y-61714285D02*
X151526247Y-61761904D01*
X151526247Y-61761904D02*
X151383390Y-61761904D01*
X151383390Y-61761904D02*
X151192914Y-61714285D01*
X151192914Y-61714285D02*
X151097676Y-61666666D01*
X151097676Y-61666666D02*
X151002438Y-61571428D01*
X151002438Y-61571428D02*
X150954819Y-61428571D01*
X150954819Y-61428571D02*
X150954819Y-61333333D01*
X150954819Y-61333333D02*
X151002438Y-61190476D01*
X151002438Y-61190476D02*
X151050057Y-61142857D01*
X151954819Y-60190476D02*
X151954819Y-60761904D01*
X151954819Y-60476190D02*
X150954819Y-60476190D01*
X150954819Y-60476190D02*
X151097676Y-60571428D01*
X151097676Y-60571428D02*
X151192914Y-60666666D01*
X151192914Y-60666666D02*
X151240533Y-60761904D01*
X150954819Y-59333333D02*
X150954819Y-59523809D01*
X150954819Y-59523809D02*
X151002438Y-59619047D01*
X151002438Y-59619047D02*
X151050057Y-59666666D01*
X151050057Y-59666666D02*
X151192914Y-59761904D01*
X151192914Y-59761904D02*
X151383390Y-59809523D01*
X151383390Y-59809523D02*
X151764342Y-59809523D01*
X151764342Y-59809523D02*
X151859580Y-59761904D01*
X151859580Y-59761904D02*
X151907200Y-59714285D01*
X151907200Y-59714285D02*
X151954819Y-59619047D01*
X151954819Y-59619047D02*
X151954819Y-59428571D01*
X151954819Y-59428571D02*
X151907200Y-59333333D01*
X151907200Y-59333333D02*
X151859580Y-59285714D01*
X151859580Y-59285714D02*
X151764342Y-59238095D01*
X151764342Y-59238095D02*
X151526247Y-59238095D01*
X151526247Y-59238095D02*
X151431009Y-59285714D01*
X151431009Y-59285714D02*
X151383390Y-59333333D01*
X151383390Y-59333333D02*
X151335771Y-59428571D01*
X151335771Y-59428571D02*
X151335771Y-59619047D01*
X151335771Y-59619047D02*
X151383390Y-59714285D01*
X151383390Y-59714285D02*
X151431009Y-59761904D01*
X151431009Y-59761904D02*
X151526247Y-59809523D01*
X170213095Y-35454819D02*
X170213095Y-36264342D01*
X170213095Y-36264342D02*
X170260714Y-36359580D01*
X170260714Y-36359580D02*
X170308333Y-36407200D01*
X170308333Y-36407200D02*
X170403571Y-36454819D01*
X170403571Y-36454819D02*
X170594047Y-36454819D01*
X170594047Y-36454819D02*
X170689285Y-36407200D01*
X170689285Y-36407200D02*
X170736904Y-36359580D01*
X170736904Y-36359580D02*
X170784523Y-36264342D01*
X170784523Y-36264342D02*
X170784523Y-35454819D01*
X171165476Y-35454819D02*
X171784523Y-35454819D01*
X171784523Y-35454819D02*
X171451190Y-35835771D01*
X171451190Y-35835771D02*
X171594047Y-35835771D01*
X171594047Y-35835771D02*
X171689285Y-35883390D01*
X171689285Y-35883390D02*
X171736904Y-35931009D01*
X171736904Y-35931009D02*
X171784523Y-36026247D01*
X171784523Y-36026247D02*
X171784523Y-36264342D01*
X171784523Y-36264342D02*
X171736904Y-36359580D01*
X171736904Y-36359580D02*
X171689285Y-36407200D01*
X171689285Y-36407200D02*
X171594047Y-36454819D01*
X171594047Y-36454819D02*
X171308333Y-36454819D01*
X171308333Y-36454819D02*
X171213095Y-36407200D01*
X171213095Y-36407200D02*
X171165476Y-36359580D01*
X161134580Y-37166666D02*
X161182200Y-37214285D01*
X161182200Y-37214285D02*
X161229819Y-37357142D01*
X161229819Y-37357142D02*
X161229819Y-37452380D01*
X161229819Y-37452380D02*
X161182200Y-37595237D01*
X161182200Y-37595237D02*
X161086961Y-37690475D01*
X161086961Y-37690475D02*
X160991723Y-37738094D01*
X160991723Y-37738094D02*
X160801247Y-37785713D01*
X160801247Y-37785713D02*
X160658390Y-37785713D01*
X160658390Y-37785713D02*
X160467914Y-37738094D01*
X160467914Y-37738094D02*
X160372676Y-37690475D01*
X160372676Y-37690475D02*
X160277438Y-37595237D01*
X160277438Y-37595237D02*
X160229819Y-37452380D01*
X160229819Y-37452380D02*
X160229819Y-37357142D01*
X160229819Y-37357142D02*
X160277438Y-37214285D01*
X160277438Y-37214285D02*
X160325057Y-37166666D01*
X161229819Y-36690475D02*
X161229819Y-36499999D01*
X161229819Y-36499999D02*
X161182200Y-36404761D01*
X161182200Y-36404761D02*
X161134580Y-36357142D01*
X161134580Y-36357142D02*
X160991723Y-36261904D01*
X160991723Y-36261904D02*
X160801247Y-36214285D01*
X160801247Y-36214285D02*
X160420295Y-36214285D01*
X160420295Y-36214285D02*
X160325057Y-36261904D01*
X160325057Y-36261904D02*
X160277438Y-36309523D01*
X160277438Y-36309523D02*
X160229819Y-36404761D01*
X160229819Y-36404761D02*
X160229819Y-36595237D01*
X160229819Y-36595237D02*
X160277438Y-36690475D01*
X160277438Y-36690475D02*
X160325057Y-36738094D01*
X160325057Y-36738094D02*
X160420295Y-36785713D01*
X160420295Y-36785713D02*
X160658390Y-36785713D01*
X160658390Y-36785713D02*
X160753628Y-36738094D01*
X160753628Y-36738094D02*
X160801247Y-36690475D01*
X160801247Y-36690475D02*
X160848866Y-36595237D01*
X160848866Y-36595237D02*
X160848866Y-36404761D01*
X160848866Y-36404761D02*
X160801247Y-36309523D01*
X160801247Y-36309523D02*
X160753628Y-36261904D01*
X160753628Y-36261904D02*
X160658390Y-36214285D01*
X110166666Y-30874819D02*
X110166666Y-31589104D01*
X110166666Y-31589104D02*
X110119047Y-31731961D01*
X110119047Y-31731961D02*
X110023809Y-31827200D01*
X110023809Y-31827200D02*
X109880952Y-31874819D01*
X109880952Y-31874819D02*
X109785714Y-31874819D01*
X110547619Y-30874819D02*
X111166666Y-30874819D01*
X111166666Y-30874819D02*
X110833333Y-31255771D01*
X110833333Y-31255771D02*
X110976190Y-31255771D01*
X110976190Y-31255771D02*
X111071428Y-31303390D01*
X111071428Y-31303390D02*
X111119047Y-31351009D01*
X111119047Y-31351009D02*
X111166666Y-31446247D01*
X111166666Y-31446247D02*
X111166666Y-31684342D01*
X111166666Y-31684342D02*
X111119047Y-31779580D01*
X111119047Y-31779580D02*
X111071428Y-31827200D01*
X111071428Y-31827200D02*
X110976190Y-31874819D01*
X110976190Y-31874819D02*
X110690476Y-31874819D01*
X110690476Y-31874819D02*
X110595238Y-31827200D01*
X110595238Y-31827200D02*
X110547619Y-31779580D01*
X186857142Y-45659580D02*
X186809523Y-45707200D01*
X186809523Y-45707200D02*
X186666666Y-45754819D01*
X186666666Y-45754819D02*
X186571428Y-45754819D01*
X186571428Y-45754819D02*
X186428571Y-45707200D01*
X186428571Y-45707200D02*
X186333333Y-45611961D01*
X186333333Y-45611961D02*
X186285714Y-45516723D01*
X186285714Y-45516723D02*
X186238095Y-45326247D01*
X186238095Y-45326247D02*
X186238095Y-45183390D01*
X186238095Y-45183390D02*
X186285714Y-44992914D01*
X186285714Y-44992914D02*
X186333333Y-44897676D01*
X186333333Y-44897676D02*
X186428571Y-44802438D01*
X186428571Y-44802438D02*
X186571428Y-44754819D01*
X186571428Y-44754819D02*
X186666666Y-44754819D01*
X186666666Y-44754819D02*
X186809523Y-44802438D01*
X186809523Y-44802438D02*
X186857142Y-44850057D01*
X187809523Y-45754819D02*
X187238095Y-45754819D01*
X187523809Y-45754819D02*
X187523809Y-44754819D01*
X187523809Y-44754819D02*
X187428571Y-44897676D01*
X187428571Y-44897676D02*
X187333333Y-44992914D01*
X187333333Y-44992914D02*
X187238095Y-45040533D01*
X188190476Y-44850057D02*
X188238095Y-44802438D01*
X188238095Y-44802438D02*
X188333333Y-44754819D01*
X188333333Y-44754819D02*
X188571428Y-44754819D01*
X188571428Y-44754819D02*
X188666666Y-44802438D01*
X188666666Y-44802438D02*
X188714285Y-44850057D01*
X188714285Y-44850057D02*
X188761904Y-44945295D01*
X188761904Y-44945295D02*
X188761904Y-45040533D01*
X188761904Y-45040533D02*
X188714285Y-45183390D01*
X188714285Y-45183390D02*
X188142857Y-45754819D01*
X188142857Y-45754819D02*
X188761904Y-45754819D01*
X189154819Y-36166666D02*
X188678628Y-36499999D01*
X189154819Y-36738094D02*
X188154819Y-36738094D01*
X188154819Y-36738094D02*
X188154819Y-36357142D01*
X188154819Y-36357142D02*
X188202438Y-36261904D01*
X188202438Y-36261904D02*
X188250057Y-36214285D01*
X188250057Y-36214285D02*
X188345295Y-36166666D01*
X188345295Y-36166666D02*
X188488152Y-36166666D01*
X188488152Y-36166666D02*
X188583390Y-36214285D01*
X188583390Y-36214285D02*
X188631009Y-36261904D01*
X188631009Y-36261904D02*
X188678628Y-36357142D01*
X188678628Y-36357142D02*
X188678628Y-36738094D01*
X188154819Y-35309523D02*
X188154819Y-35499999D01*
X188154819Y-35499999D02*
X188202438Y-35595237D01*
X188202438Y-35595237D02*
X188250057Y-35642856D01*
X188250057Y-35642856D02*
X188392914Y-35738094D01*
X188392914Y-35738094D02*
X188583390Y-35785713D01*
X188583390Y-35785713D02*
X188964342Y-35785713D01*
X188964342Y-35785713D02*
X189059580Y-35738094D01*
X189059580Y-35738094D02*
X189107200Y-35690475D01*
X189107200Y-35690475D02*
X189154819Y-35595237D01*
X189154819Y-35595237D02*
X189154819Y-35404761D01*
X189154819Y-35404761D02*
X189107200Y-35309523D01*
X189107200Y-35309523D02*
X189059580Y-35261904D01*
X189059580Y-35261904D02*
X188964342Y-35214285D01*
X188964342Y-35214285D02*
X188726247Y-35214285D01*
X188726247Y-35214285D02*
X188631009Y-35261904D01*
X188631009Y-35261904D02*
X188583390Y-35309523D01*
X188583390Y-35309523D02*
X188535771Y-35404761D01*
X188535771Y-35404761D02*
X188535771Y-35595237D01*
X188535771Y-35595237D02*
X188583390Y-35690475D01*
X188583390Y-35690475D02*
X188631009Y-35738094D01*
X188631009Y-35738094D02*
X188726247Y-35785713D01*
X148154819Y-58142857D02*
X147678628Y-58476190D01*
X148154819Y-58714285D02*
X147154819Y-58714285D01*
X147154819Y-58714285D02*
X147154819Y-58333333D01*
X147154819Y-58333333D02*
X147202438Y-58238095D01*
X147202438Y-58238095D02*
X147250057Y-58190476D01*
X147250057Y-58190476D02*
X147345295Y-58142857D01*
X147345295Y-58142857D02*
X147488152Y-58142857D01*
X147488152Y-58142857D02*
X147583390Y-58190476D01*
X147583390Y-58190476D02*
X147631009Y-58238095D01*
X147631009Y-58238095D02*
X147678628Y-58333333D01*
X147678628Y-58333333D02*
X147678628Y-58714285D01*
X148154819Y-57190476D02*
X148154819Y-57761904D01*
X148154819Y-57476190D02*
X147154819Y-57476190D01*
X147154819Y-57476190D02*
X147297676Y-57571428D01*
X147297676Y-57571428D02*
X147392914Y-57666666D01*
X147392914Y-57666666D02*
X147440533Y-57761904D01*
X147488152Y-56333333D02*
X148154819Y-56333333D01*
X147107200Y-56571428D02*
X147821485Y-56809523D01*
X147821485Y-56809523D02*
X147821485Y-56190476D01*
X207956667Y-44664700D02*
X208099524Y-44712319D01*
X208099524Y-44712319D02*
X208337619Y-44712319D01*
X208337619Y-44712319D02*
X208432857Y-44664700D01*
X208432857Y-44664700D02*
X208480476Y-44617080D01*
X208480476Y-44617080D02*
X208528095Y-44521842D01*
X208528095Y-44521842D02*
X208528095Y-44426604D01*
X208528095Y-44426604D02*
X208480476Y-44331366D01*
X208480476Y-44331366D02*
X208432857Y-44283747D01*
X208432857Y-44283747D02*
X208337619Y-44236128D01*
X208337619Y-44236128D02*
X208147143Y-44188509D01*
X208147143Y-44188509D02*
X208051905Y-44140890D01*
X208051905Y-44140890D02*
X208004286Y-44093271D01*
X208004286Y-44093271D02*
X207956667Y-43998033D01*
X207956667Y-43998033D02*
X207956667Y-43902795D01*
X207956667Y-43902795D02*
X208004286Y-43807557D01*
X208004286Y-43807557D02*
X208051905Y-43759938D01*
X208051905Y-43759938D02*
X208147143Y-43712319D01*
X208147143Y-43712319D02*
X208385238Y-43712319D01*
X208385238Y-43712319D02*
X208528095Y-43759938D01*
X208861429Y-43712319D02*
X209099524Y-44712319D01*
X209099524Y-44712319D02*
X209290000Y-43998033D01*
X209290000Y-43998033D02*
X209480476Y-44712319D01*
X209480476Y-44712319D02*
X209718572Y-43712319D01*
X210623333Y-44712319D02*
X210051905Y-44712319D01*
X210337619Y-44712319D02*
X210337619Y-43712319D01*
X210337619Y-43712319D02*
X210242381Y-43855176D01*
X210242381Y-43855176D02*
X210147143Y-43950414D01*
X210147143Y-43950414D02*
X210051905Y-43998033D01*
X177634580Y-34666666D02*
X177682200Y-34714285D01*
X177682200Y-34714285D02*
X177729819Y-34857142D01*
X177729819Y-34857142D02*
X177729819Y-34952380D01*
X177729819Y-34952380D02*
X177682200Y-35095237D01*
X177682200Y-35095237D02*
X177586961Y-35190475D01*
X177586961Y-35190475D02*
X177491723Y-35238094D01*
X177491723Y-35238094D02*
X177301247Y-35285713D01*
X177301247Y-35285713D02*
X177158390Y-35285713D01*
X177158390Y-35285713D02*
X176967914Y-35238094D01*
X176967914Y-35238094D02*
X176872676Y-35190475D01*
X176872676Y-35190475D02*
X176777438Y-35095237D01*
X176777438Y-35095237D02*
X176729819Y-34952380D01*
X176729819Y-34952380D02*
X176729819Y-34857142D01*
X176729819Y-34857142D02*
X176777438Y-34714285D01*
X176777438Y-34714285D02*
X176825057Y-34666666D01*
X176729819Y-34333332D02*
X176729819Y-33666666D01*
X176729819Y-33666666D02*
X177729819Y-34095237D01*
X127848095Y-55424819D02*
X127848095Y-56234342D01*
X127848095Y-56234342D02*
X127895714Y-56329580D01*
X127895714Y-56329580D02*
X127943333Y-56377200D01*
X127943333Y-56377200D02*
X128038571Y-56424819D01*
X128038571Y-56424819D02*
X128229047Y-56424819D01*
X128229047Y-56424819D02*
X128324285Y-56377200D01*
X128324285Y-56377200D02*
X128371904Y-56329580D01*
X128371904Y-56329580D02*
X128419523Y-56234342D01*
X128419523Y-56234342D02*
X128419523Y-55424819D01*
X129419523Y-56424819D02*
X128848095Y-56424819D01*
X129133809Y-56424819D02*
X129133809Y-55424819D01*
X129133809Y-55424819D02*
X129038571Y-55567676D01*
X129038571Y-55567676D02*
X128943333Y-55662914D01*
X128943333Y-55662914D02*
X128848095Y-55710533D01*
X114453998Y-67790868D02*
X114373185Y-67817805D01*
X114373185Y-67817805D02*
X114292373Y-67898618D01*
X114292373Y-67898618D02*
X114238498Y-68006367D01*
X114238498Y-68006367D02*
X114238498Y-68114117D01*
X114238498Y-68114117D02*
X114265436Y-68194929D01*
X114265436Y-68194929D02*
X114346248Y-68329616D01*
X114346248Y-68329616D02*
X114427060Y-68410428D01*
X114427060Y-68410428D02*
X114561747Y-68491241D01*
X114561747Y-68491241D02*
X114642560Y-68518178D01*
X114642560Y-68518178D02*
X114750309Y-68518178D01*
X114750309Y-68518178D02*
X114858059Y-68464303D01*
X114858059Y-68464303D02*
X114911934Y-68410428D01*
X114911934Y-68410428D02*
X114965808Y-68302679D01*
X114965808Y-68302679D02*
X114965808Y-68248804D01*
X114965808Y-68248804D02*
X114777247Y-68060242D01*
X114777247Y-68060242D02*
X114669497Y-68167992D01*
X115262120Y-68060242D02*
X114696434Y-67494557D01*
X114696434Y-67494557D02*
X114911934Y-67279057D01*
X114911934Y-67279057D02*
X114992746Y-67252120D01*
X114992746Y-67252120D02*
X115046621Y-67252120D01*
X115046621Y-67252120D02*
X115127433Y-67279057D01*
X115127433Y-67279057D02*
X115208245Y-67359870D01*
X115208245Y-67359870D02*
X115235182Y-67440682D01*
X115235182Y-67440682D02*
X115235182Y-67494557D01*
X115235182Y-67494557D02*
X115208245Y-67575369D01*
X115208245Y-67575369D02*
X114992746Y-67790868D01*
X116124117Y-67198245D02*
X115800868Y-67521494D01*
X115962492Y-67359870D02*
X115396807Y-66794184D01*
X115396807Y-66794184D02*
X115423744Y-66928871D01*
X115423744Y-66928871D02*
X115423744Y-67036621D01*
X115423744Y-67036621D02*
X115396807Y-67117433D01*
X116662865Y-66659497D02*
X116339616Y-66982746D01*
X116501240Y-66821121D02*
X115935555Y-66255436D01*
X115935555Y-66255436D02*
X115962492Y-66390123D01*
X115962492Y-66390123D02*
X115962492Y-66497873D01*
X115962492Y-66497873D02*
X115935555Y-66578685D01*
X114453998Y-70330868D02*
X114373185Y-70357805D01*
X114373185Y-70357805D02*
X114292373Y-70438618D01*
X114292373Y-70438618D02*
X114238498Y-70546367D01*
X114238498Y-70546367D02*
X114238498Y-70654117D01*
X114238498Y-70654117D02*
X114265436Y-70734929D01*
X114265436Y-70734929D02*
X114346248Y-70869616D01*
X114346248Y-70869616D02*
X114427060Y-70950428D01*
X114427060Y-70950428D02*
X114561747Y-71031241D01*
X114561747Y-71031241D02*
X114642560Y-71058178D01*
X114642560Y-71058178D02*
X114750309Y-71058178D01*
X114750309Y-71058178D02*
X114858059Y-71004303D01*
X114858059Y-71004303D02*
X114911934Y-70950428D01*
X114911934Y-70950428D02*
X114965808Y-70842679D01*
X114965808Y-70842679D02*
X114965808Y-70788804D01*
X114965808Y-70788804D02*
X114777247Y-70600242D01*
X114777247Y-70600242D02*
X114669497Y-70707992D01*
X115262120Y-70600242D02*
X114696434Y-70034557D01*
X114696434Y-70034557D02*
X114911934Y-69819057D01*
X114911934Y-69819057D02*
X114992746Y-69792120D01*
X114992746Y-69792120D02*
X115046621Y-69792120D01*
X115046621Y-69792120D02*
X115127433Y-69819057D01*
X115127433Y-69819057D02*
X115208245Y-69899870D01*
X115208245Y-69899870D02*
X115235182Y-69980682D01*
X115235182Y-69980682D02*
X115235182Y-70034557D01*
X115235182Y-70034557D02*
X115208245Y-70115369D01*
X115208245Y-70115369D02*
X114992746Y-70330868D01*
X116124117Y-69738245D02*
X115800868Y-70061494D01*
X115962492Y-69899870D02*
X115396807Y-69334184D01*
X115396807Y-69334184D02*
X115423744Y-69468871D01*
X115423744Y-69468871D02*
X115423744Y-69576621D01*
X115423744Y-69576621D02*
X115396807Y-69657433D01*
X115827805Y-69010935D02*
X115827805Y-68957060D01*
X115827805Y-68957060D02*
X115854743Y-68876248D01*
X115854743Y-68876248D02*
X115989430Y-68741561D01*
X115989430Y-68741561D02*
X116070242Y-68714624D01*
X116070242Y-68714624D02*
X116124117Y-68714624D01*
X116124117Y-68714624D02*
X116204929Y-68741561D01*
X116204929Y-68741561D02*
X116258804Y-68795436D01*
X116258804Y-68795436D02*
X116312679Y-68903186D01*
X116312679Y-68903186D02*
X116312679Y-69549683D01*
X116312679Y-69549683D02*
X116662865Y-69199497D01*
X114553998Y-77950868D02*
X114473185Y-77977805D01*
X114473185Y-77977805D02*
X114392373Y-78058618D01*
X114392373Y-78058618D02*
X114338498Y-78166367D01*
X114338498Y-78166367D02*
X114338498Y-78274117D01*
X114338498Y-78274117D02*
X114365436Y-78354929D01*
X114365436Y-78354929D02*
X114446248Y-78489616D01*
X114446248Y-78489616D02*
X114527060Y-78570428D01*
X114527060Y-78570428D02*
X114661747Y-78651241D01*
X114661747Y-78651241D02*
X114742560Y-78678178D01*
X114742560Y-78678178D02*
X114850309Y-78678178D01*
X114850309Y-78678178D02*
X114958059Y-78624303D01*
X114958059Y-78624303D02*
X115011934Y-78570428D01*
X115011934Y-78570428D02*
X115065808Y-78462679D01*
X115065808Y-78462679D02*
X115065808Y-78408804D01*
X115065808Y-78408804D02*
X114877247Y-78220242D01*
X114877247Y-78220242D02*
X114769497Y-78327992D01*
X115362120Y-78220242D02*
X114796434Y-77654557D01*
X114796434Y-77654557D02*
X115011934Y-77439057D01*
X115011934Y-77439057D02*
X115092746Y-77412120D01*
X115092746Y-77412120D02*
X115146621Y-77412120D01*
X115146621Y-77412120D02*
X115227433Y-77439057D01*
X115227433Y-77439057D02*
X115308245Y-77519870D01*
X115308245Y-77519870D02*
X115335182Y-77600682D01*
X115335182Y-77600682D02*
X115335182Y-77654557D01*
X115335182Y-77654557D02*
X115308245Y-77735369D01*
X115308245Y-77735369D02*
X115092746Y-77950868D01*
X116224117Y-77358245D02*
X115900868Y-77681494D01*
X116062492Y-77519870D02*
X115496807Y-76954184D01*
X115496807Y-76954184D02*
X115523744Y-77088871D01*
X115523744Y-77088871D02*
X115523744Y-77196621D01*
X115523744Y-77196621D02*
X115496807Y-77277433D01*
X116331866Y-76496248D02*
X116708990Y-76873372D01*
X115981680Y-76415436D02*
X116251054Y-76954184D01*
X116251054Y-76954184D02*
X116601240Y-76603998D01*
X114599998Y-65250868D02*
X114519185Y-65277805D01*
X114519185Y-65277805D02*
X114438373Y-65358618D01*
X114438373Y-65358618D02*
X114384498Y-65466367D01*
X114384498Y-65466367D02*
X114384498Y-65574117D01*
X114384498Y-65574117D02*
X114411436Y-65654929D01*
X114411436Y-65654929D02*
X114492248Y-65789616D01*
X114492248Y-65789616D02*
X114573060Y-65870428D01*
X114573060Y-65870428D02*
X114707747Y-65951241D01*
X114707747Y-65951241D02*
X114788560Y-65978178D01*
X114788560Y-65978178D02*
X114896309Y-65978178D01*
X114896309Y-65978178D02*
X115004059Y-65924303D01*
X115004059Y-65924303D02*
X115057934Y-65870428D01*
X115057934Y-65870428D02*
X115111808Y-65762679D01*
X115111808Y-65762679D02*
X115111808Y-65708804D01*
X115111808Y-65708804D02*
X114923247Y-65520242D01*
X114923247Y-65520242D02*
X114815497Y-65627992D01*
X115408120Y-65520242D02*
X114842434Y-64954557D01*
X114842434Y-64954557D02*
X115057934Y-64739057D01*
X115057934Y-64739057D02*
X115138746Y-64712120D01*
X115138746Y-64712120D02*
X115192621Y-64712120D01*
X115192621Y-64712120D02*
X115273433Y-64739057D01*
X115273433Y-64739057D02*
X115354245Y-64819870D01*
X115354245Y-64819870D02*
X115381182Y-64900682D01*
X115381182Y-64900682D02*
X115381182Y-64954557D01*
X115381182Y-64954557D02*
X115354245Y-65035369D01*
X115354245Y-65035369D02*
X115138746Y-65250868D01*
X116270117Y-64658245D02*
X115946868Y-64981494D01*
X116108492Y-64819870D02*
X115542807Y-64254184D01*
X115542807Y-64254184D02*
X115569744Y-64388871D01*
X115569744Y-64388871D02*
X115569744Y-64496621D01*
X115569744Y-64496621D02*
X115542807Y-64577433D01*
X116054618Y-63742373D02*
X116108492Y-63688499D01*
X116108492Y-63688499D02*
X116189305Y-63661561D01*
X116189305Y-63661561D02*
X116243179Y-63661561D01*
X116243179Y-63661561D02*
X116323992Y-63688499D01*
X116323992Y-63688499D02*
X116458679Y-63769311D01*
X116458679Y-63769311D02*
X116593366Y-63903998D01*
X116593366Y-63903998D02*
X116674178Y-64038685D01*
X116674178Y-64038685D02*
X116701115Y-64119497D01*
X116701115Y-64119497D02*
X116701115Y-64173372D01*
X116701115Y-64173372D02*
X116674178Y-64254184D01*
X116674178Y-64254184D02*
X116620303Y-64308059D01*
X116620303Y-64308059D02*
X116539491Y-64334996D01*
X116539491Y-64334996D02*
X116485616Y-64334996D01*
X116485616Y-64334996D02*
X116404804Y-64308059D01*
X116404804Y-64308059D02*
X116270117Y-64227247D01*
X116270117Y-64227247D02*
X116135430Y-64092560D01*
X116135430Y-64092560D02*
X116054618Y-63957873D01*
X116054618Y-63957873D02*
X116027680Y-63877060D01*
X116027680Y-63877060D02*
X116027680Y-63823186D01*
X116027680Y-63823186D02*
X116054618Y-63742373D01*
X114599998Y-72870868D02*
X114519185Y-72897805D01*
X114519185Y-72897805D02*
X114438373Y-72978618D01*
X114438373Y-72978618D02*
X114384498Y-73086367D01*
X114384498Y-73086367D02*
X114384498Y-73194117D01*
X114384498Y-73194117D02*
X114411436Y-73274929D01*
X114411436Y-73274929D02*
X114492248Y-73409616D01*
X114492248Y-73409616D02*
X114573060Y-73490428D01*
X114573060Y-73490428D02*
X114707747Y-73571241D01*
X114707747Y-73571241D02*
X114788560Y-73598178D01*
X114788560Y-73598178D02*
X114896309Y-73598178D01*
X114896309Y-73598178D02*
X115004059Y-73544303D01*
X115004059Y-73544303D02*
X115057934Y-73490428D01*
X115057934Y-73490428D02*
X115111808Y-73382679D01*
X115111808Y-73382679D02*
X115111808Y-73328804D01*
X115111808Y-73328804D02*
X114923247Y-73140242D01*
X114923247Y-73140242D02*
X114815497Y-73247992D01*
X115408120Y-73140242D02*
X114842434Y-72574557D01*
X114842434Y-72574557D02*
X115057934Y-72359057D01*
X115057934Y-72359057D02*
X115138746Y-72332120D01*
X115138746Y-72332120D02*
X115192621Y-72332120D01*
X115192621Y-72332120D02*
X115273433Y-72359057D01*
X115273433Y-72359057D02*
X115354245Y-72439870D01*
X115354245Y-72439870D02*
X115381182Y-72520682D01*
X115381182Y-72520682D02*
X115381182Y-72574557D01*
X115381182Y-72574557D02*
X115354245Y-72655369D01*
X115354245Y-72655369D02*
X115138746Y-72870868D01*
X116270117Y-72278245D02*
X115946868Y-72601494D01*
X116108492Y-72439870D02*
X115542807Y-71874184D01*
X115542807Y-71874184D02*
X115569744Y-72008871D01*
X115569744Y-72008871D02*
X115569744Y-72116621D01*
X115569744Y-72116621D02*
X115542807Y-72197433D01*
X115892993Y-71523998D02*
X116243179Y-71173812D01*
X116243179Y-71173812D02*
X116270117Y-71577873D01*
X116270117Y-71577873D02*
X116350929Y-71497060D01*
X116350929Y-71497060D02*
X116431741Y-71470123D01*
X116431741Y-71470123D02*
X116485616Y-71470123D01*
X116485616Y-71470123D02*
X116566428Y-71497060D01*
X116566428Y-71497060D02*
X116701115Y-71631747D01*
X116701115Y-71631747D02*
X116728053Y-71712560D01*
X116728053Y-71712560D02*
X116728053Y-71766434D01*
X116728053Y-71766434D02*
X116701115Y-71847247D01*
X116701115Y-71847247D02*
X116539491Y-72008871D01*
X116539491Y-72008871D02*
X116458679Y-72035808D01*
X116458679Y-72035808D02*
X116404804Y-72035808D01*
X114599998Y-80490868D02*
X114519185Y-80517805D01*
X114519185Y-80517805D02*
X114438373Y-80598618D01*
X114438373Y-80598618D02*
X114384498Y-80706367D01*
X114384498Y-80706367D02*
X114384498Y-80814117D01*
X114384498Y-80814117D02*
X114411436Y-80894929D01*
X114411436Y-80894929D02*
X114492248Y-81029616D01*
X114492248Y-81029616D02*
X114573060Y-81110428D01*
X114573060Y-81110428D02*
X114707747Y-81191241D01*
X114707747Y-81191241D02*
X114788560Y-81218178D01*
X114788560Y-81218178D02*
X114896309Y-81218178D01*
X114896309Y-81218178D02*
X115004059Y-81164303D01*
X115004059Y-81164303D02*
X115057934Y-81110428D01*
X115057934Y-81110428D02*
X115111808Y-81002679D01*
X115111808Y-81002679D02*
X115111808Y-80948804D01*
X115111808Y-80948804D02*
X114923247Y-80760242D01*
X114923247Y-80760242D02*
X114815497Y-80867992D01*
X115408120Y-80760242D02*
X114842434Y-80194557D01*
X114842434Y-80194557D02*
X115057934Y-79979057D01*
X115057934Y-79979057D02*
X115138746Y-79952120D01*
X115138746Y-79952120D02*
X115192621Y-79952120D01*
X115192621Y-79952120D02*
X115273433Y-79979057D01*
X115273433Y-79979057D02*
X115354245Y-80059870D01*
X115354245Y-80059870D02*
X115381182Y-80140682D01*
X115381182Y-80140682D02*
X115381182Y-80194557D01*
X115381182Y-80194557D02*
X115354245Y-80275369D01*
X115354245Y-80275369D02*
X115138746Y-80490868D01*
X116270117Y-79898245D02*
X115946868Y-80221494D01*
X116108492Y-80059870D02*
X115542807Y-79494184D01*
X115542807Y-79494184D02*
X115569744Y-79628871D01*
X115569744Y-79628871D02*
X115569744Y-79736621D01*
X115569744Y-79736621D02*
X115542807Y-79817433D01*
X116216242Y-78820749D02*
X115946868Y-79090123D01*
X115946868Y-79090123D02*
X116189305Y-79386434D01*
X116189305Y-79386434D02*
X116189305Y-79332560D01*
X116189305Y-79332560D02*
X116216242Y-79251747D01*
X116216242Y-79251747D02*
X116350929Y-79117060D01*
X116350929Y-79117060D02*
X116431741Y-79090123D01*
X116431741Y-79090123D02*
X116485616Y-79090123D01*
X116485616Y-79090123D02*
X116566428Y-79117060D01*
X116566428Y-79117060D02*
X116701115Y-79251747D01*
X116701115Y-79251747D02*
X116728053Y-79332560D01*
X116728053Y-79332560D02*
X116728053Y-79386434D01*
X116728053Y-79386434D02*
X116701115Y-79467247D01*
X116701115Y-79467247D02*
X116566428Y-79601934D01*
X116566428Y-79601934D02*
X116485616Y-79628871D01*
X116485616Y-79628871D02*
X116431741Y-79628871D01*
X115023372Y-34491494D02*
X114942560Y-34518431D01*
X114942560Y-34518431D02*
X114861748Y-34599243D01*
X114861748Y-34599243D02*
X114807873Y-34706993D01*
X114807873Y-34706993D02*
X114807873Y-34814742D01*
X114807873Y-34814742D02*
X114834810Y-34895555D01*
X114834810Y-34895555D02*
X114915623Y-35030242D01*
X114915623Y-35030242D02*
X114996435Y-35111054D01*
X114996435Y-35111054D02*
X115131122Y-35191866D01*
X115131122Y-35191866D02*
X115211934Y-35218803D01*
X115211934Y-35218803D02*
X115319684Y-35218803D01*
X115319684Y-35218803D02*
X115427433Y-35164929D01*
X115427433Y-35164929D02*
X115481308Y-35111054D01*
X115481308Y-35111054D02*
X115535183Y-35003304D01*
X115535183Y-35003304D02*
X115535183Y-34949429D01*
X115535183Y-34949429D02*
X115346621Y-34760868D01*
X115346621Y-34760868D02*
X115238871Y-34868617D01*
X115831494Y-34760868D02*
X115265809Y-34195182D01*
X115265809Y-34195182D02*
X115481308Y-33979683D01*
X115481308Y-33979683D02*
X115562120Y-33952746D01*
X115562120Y-33952746D02*
X115615995Y-33952746D01*
X115615995Y-33952746D02*
X115696807Y-33979683D01*
X115696807Y-33979683D02*
X115777619Y-34060495D01*
X115777619Y-34060495D02*
X115804557Y-34141307D01*
X115804557Y-34141307D02*
X115804557Y-34195182D01*
X115804557Y-34195182D02*
X115777619Y-34275994D01*
X115777619Y-34275994D02*
X115562120Y-34491494D01*
X116693491Y-33898871D02*
X116370242Y-34222120D01*
X116531867Y-34060495D02*
X115966181Y-33494810D01*
X115966181Y-33494810D02*
X115993119Y-33629497D01*
X115993119Y-33629497D02*
X115993119Y-33737246D01*
X115993119Y-33737246D02*
X115966181Y-33818059D01*
X115023372Y-39581494D02*
X114942560Y-39608431D01*
X114942560Y-39608431D02*
X114861748Y-39689243D01*
X114861748Y-39689243D02*
X114807873Y-39796993D01*
X114807873Y-39796993D02*
X114807873Y-39904742D01*
X114807873Y-39904742D02*
X114834810Y-39985555D01*
X114834810Y-39985555D02*
X114915623Y-40120242D01*
X114915623Y-40120242D02*
X114996435Y-40201054D01*
X114996435Y-40201054D02*
X115131122Y-40281866D01*
X115131122Y-40281866D02*
X115211934Y-40308803D01*
X115211934Y-40308803D02*
X115319684Y-40308803D01*
X115319684Y-40308803D02*
X115427433Y-40254929D01*
X115427433Y-40254929D02*
X115481308Y-40201054D01*
X115481308Y-40201054D02*
X115535183Y-40093304D01*
X115535183Y-40093304D02*
X115535183Y-40039429D01*
X115535183Y-40039429D02*
X115346621Y-39850868D01*
X115346621Y-39850868D02*
X115238871Y-39958617D01*
X115831494Y-39850868D02*
X115265809Y-39285182D01*
X115265809Y-39285182D02*
X115481308Y-39069683D01*
X115481308Y-39069683D02*
X115562120Y-39042746D01*
X115562120Y-39042746D02*
X115615995Y-39042746D01*
X115615995Y-39042746D02*
X115696807Y-39069683D01*
X115696807Y-39069683D02*
X115777619Y-39150495D01*
X115777619Y-39150495D02*
X115804557Y-39231307D01*
X115804557Y-39231307D02*
X115804557Y-39285182D01*
X115804557Y-39285182D02*
X115777619Y-39365994D01*
X115777619Y-39365994D02*
X115562120Y-39581494D01*
X115858432Y-38800309D02*
X115858432Y-38746434D01*
X115858432Y-38746434D02*
X115885369Y-38665622D01*
X115885369Y-38665622D02*
X116020056Y-38530935D01*
X116020056Y-38530935D02*
X116100868Y-38503998D01*
X116100868Y-38503998D02*
X116154743Y-38503998D01*
X116154743Y-38503998D02*
X116235555Y-38530935D01*
X116235555Y-38530935D02*
X116289430Y-38584810D01*
X116289430Y-38584810D02*
X116343305Y-38692559D01*
X116343305Y-38692559D02*
X116343305Y-39339057D01*
X116343305Y-39339057D02*
X116693491Y-38988871D01*
X115123372Y-31961494D02*
X115042560Y-31988431D01*
X115042560Y-31988431D02*
X114961748Y-32069243D01*
X114961748Y-32069243D02*
X114907873Y-32176993D01*
X114907873Y-32176993D02*
X114907873Y-32284742D01*
X114907873Y-32284742D02*
X114934810Y-32365555D01*
X114934810Y-32365555D02*
X115015623Y-32500242D01*
X115015623Y-32500242D02*
X115096435Y-32581054D01*
X115096435Y-32581054D02*
X115231122Y-32661866D01*
X115231122Y-32661866D02*
X115311934Y-32688803D01*
X115311934Y-32688803D02*
X115419684Y-32688803D01*
X115419684Y-32688803D02*
X115527433Y-32634929D01*
X115527433Y-32634929D02*
X115581308Y-32581054D01*
X115581308Y-32581054D02*
X115635183Y-32473304D01*
X115635183Y-32473304D02*
X115635183Y-32419429D01*
X115635183Y-32419429D02*
X115446621Y-32230868D01*
X115446621Y-32230868D02*
X115338871Y-32338617D01*
X115931494Y-32230868D02*
X115365809Y-31665182D01*
X115365809Y-31665182D02*
X115581308Y-31449683D01*
X115581308Y-31449683D02*
X115662120Y-31422746D01*
X115662120Y-31422746D02*
X115715995Y-31422746D01*
X115715995Y-31422746D02*
X115796807Y-31449683D01*
X115796807Y-31449683D02*
X115877619Y-31530495D01*
X115877619Y-31530495D02*
X115904557Y-31611307D01*
X115904557Y-31611307D02*
X115904557Y-31665182D01*
X115904557Y-31665182D02*
X115877619Y-31745994D01*
X115877619Y-31745994D02*
X115662120Y-31961494D01*
X116039244Y-30991747D02*
X116093119Y-30937872D01*
X116093119Y-30937872D02*
X116173931Y-30910935D01*
X116173931Y-30910935D02*
X116227806Y-30910935D01*
X116227806Y-30910935D02*
X116308618Y-30937872D01*
X116308618Y-30937872D02*
X116443305Y-31018685D01*
X116443305Y-31018685D02*
X116577992Y-31153372D01*
X116577992Y-31153372D02*
X116658804Y-31288059D01*
X116658804Y-31288059D02*
X116685741Y-31368871D01*
X116685741Y-31368871D02*
X116685741Y-31422746D01*
X116685741Y-31422746D02*
X116658804Y-31503558D01*
X116658804Y-31503558D02*
X116604929Y-31557433D01*
X116604929Y-31557433D02*
X116524117Y-31584370D01*
X116524117Y-31584370D02*
X116470242Y-31584370D01*
X116470242Y-31584370D02*
X116389430Y-31557433D01*
X116389430Y-31557433D02*
X116254743Y-31476620D01*
X116254743Y-31476620D02*
X116120056Y-31341933D01*
X116120056Y-31341933D02*
X116039244Y-31207246D01*
X116039244Y-31207246D02*
X116012306Y-31126434D01*
X116012306Y-31126434D02*
X116012306Y-31072559D01*
X116012306Y-31072559D02*
X116039244Y-30991747D01*
X115096435Y-37068431D02*
X115015623Y-37095368D01*
X115015623Y-37095368D02*
X114934811Y-37176180D01*
X114934811Y-37176180D02*
X114880936Y-37283930D01*
X114880936Y-37283930D02*
X114880936Y-37391680D01*
X114880936Y-37391680D02*
X114907873Y-37472492D01*
X114907873Y-37472492D02*
X114988685Y-37607179D01*
X114988685Y-37607179D02*
X115069498Y-37687991D01*
X115069498Y-37687991D02*
X115204185Y-37768803D01*
X115204185Y-37768803D02*
X115284997Y-37795741D01*
X115284997Y-37795741D02*
X115392746Y-37795741D01*
X115392746Y-37795741D02*
X115500496Y-37741866D01*
X115500496Y-37741866D02*
X115554371Y-37687991D01*
X115554371Y-37687991D02*
X115608246Y-37580241D01*
X115608246Y-37580241D02*
X115608246Y-37526367D01*
X115608246Y-37526367D02*
X115419684Y-37337805D01*
X115419684Y-37337805D02*
X115311934Y-37445554D01*
X115904557Y-37337805D02*
X115338872Y-36772119D01*
X115338872Y-36772119D02*
X116227806Y-37014556D01*
X116227806Y-37014556D02*
X115662120Y-36448871D01*
X116497180Y-36745182D02*
X115931494Y-36179497D01*
X115931494Y-36179497D02*
X116066181Y-36044810D01*
X116066181Y-36044810D02*
X116173931Y-35990935D01*
X116173931Y-35990935D02*
X116281680Y-35990935D01*
X116281680Y-35990935D02*
X116362493Y-36017872D01*
X116362493Y-36017872D02*
X116497180Y-36098685D01*
X116497180Y-36098685D02*
X116577992Y-36179497D01*
X116577992Y-36179497D02*
X116658804Y-36314184D01*
X116658804Y-36314184D02*
X116685741Y-36394996D01*
X116685741Y-36394996D02*
X116685741Y-36502746D01*
X116685741Y-36502746D02*
X116631867Y-36610495D01*
X116631867Y-36610495D02*
X116497180Y-36745182D01*
X115123372Y-42121494D02*
X115042560Y-42148431D01*
X115042560Y-42148431D02*
X114961748Y-42229243D01*
X114961748Y-42229243D02*
X114907873Y-42336993D01*
X114907873Y-42336993D02*
X114907873Y-42444742D01*
X114907873Y-42444742D02*
X114934810Y-42525555D01*
X114934810Y-42525555D02*
X115015623Y-42660242D01*
X115015623Y-42660242D02*
X115096435Y-42741054D01*
X115096435Y-42741054D02*
X115231122Y-42821866D01*
X115231122Y-42821866D02*
X115311934Y-42848803D01*
X115311934Y-42848803D02*
X115419684Y-42848803D01*
X115419684Y-42848803D02*
X115527433Y-42794929D01*
X115527433Y-42794929D02*
X115581308Y-42741054D01*
X115581308Y-42741054D02*
X115635183Y-42633304D01*
X115635183Y-42633304D02*
X115635183Y-42579429D01*
X115635183Y-42579429D02*
X115446621Y-42390868D01*
X115446621Y-42390868D02*
X115338871Y-42498617D01*
X115931494Y-42390868D02*
X115365809Y-41825182D01*
X115365809Y-41825182D02*
X115581308Y-41609683D01*
X115581308Y-41609683D02*
X115662120Y-41582746D01*
X115662120Y-41582746D02*
X115715995Y-41582746D01*
X115715995Y-41582746D02*
X115796807Y-41609683D01*
X115796807Y-41609683D02*
X115877619Y-41690495D01*
X115877619Y-41690495D02*
X115904557Y-41771307D01*
X115904557Y-41771307D02*
X115904557Y-41825182D01*
X115904557Y-41825182D02*
X115877619Y-41905994D01*
X115877619Y-41905994D02*
X115662120Y-42121494D01*
X115877619Y-41313372D02*
X116227806Y-40963185D01*
X116227806Y-40963185D02*
X116254743Y-41367246D01*
X116254743Y-41367246D02*
X116335555Y-41286434D01*
X116335555Y-41286434D02*
X116416367Y-41259497D01*
X116416367Y-41259497D02*
X116470242Y-41259497D01*
X116470242Y-41259497D02*
X116551054Y-41286434D01*
X116551054Y-41286434D02*
X116685741Y-41421121D01*
X116685741Y-41421121D02*
X116712679Y-41501933D01*
X116712679Y-41501933D02*
X116712679Y-41555808D01*
X116712679Y-41555808D02*
X116685741Y-41636620D01*
X116685741Y-41636620D02*
X116524117Y-41798245D01*
X116524117Y-41798245D02*
X116443305Y-41825182D01*
X116443305Y-41825182D02*
X116389430Y-41825182D01*
X115123372Y-44661494D02*
X115042560Y-44688431D01*
X115042560Y-44688431D02*
X114961748Y-44769243D01*
X114961748Y-44769243D02*
X114907873Y-44876993D01*
X114907873Y-44876993D02*
X114907873Y-44984742D01*
X114907873Y-44984742D02*
X114934810Y-45065555D01*
X114934810Y-45065555D02*
X115015623Y-45200242D01*
X115015623Y-45200242D02*
X115096435Y-45281054D01*
X115096435Y-45281054D02*
X115231122Y-45361866D01*
X115231122Y-45361866D02*
X115311934Y-45388803D01*
X115311934Y-45388803D02*
X115419684Y-45388803D01*
X115419684Y-45388803D02*
X115527433Y-45334929D01*
X115527433Y-45334929D02*
X115581308Y-45281054D01*
X115581308Y-45281054D02*
X115635183Y-45173304D01*
X115635183Y-45173304D02*
X115635183Y-45119429D01*
X115635183Y-45119429D02*
X115446621Y-44930868D01*
X115446621Y-44930868D02*
X115338871Y-45038617D01*
X115931494Y-44930868D02*
X115365809Y-44365182D01*
X115365809Y-44365182D02*
X115581308Y-44149683D01*
X115581308Y-44149683D02*
X115662120Y-44122746D01*
X115662120Y-44122746D02*
X115715995Y-44122746D01*
X115715995Y-44122746D02*
X115796807Y-44149683D01*
X115796807Y-44149683D02*
X115877619Y-44230495D01*
X115877619Y-44230495D02*
X115904557Y-44311307D01*
X115904557Y-44311307D02*
X115904557Y-44365182D01*
X115904557Y-44365182D02*
X115877619Y-44445994D01*
X115877619Y-44445994D02*
X115662120Y-44661494D01*
X116362493Y-43745622D02*
X116739616Y-44122746D01*
X116012306Y-43664810D02*
X116281680Y-44203558D01*
X116281680Y-44203558D02*
X116631867Y-43853372D01*
X115123372Y-47201494D02*
X115042560Y-47228431D01*
X115042560Y-47228431D02*
X114961748Y-47309243D01*
X114961748Y-47309243D02*
X114907873Y-47416993D01*
X114907873Y-47416993D02*
X114907873Y-47524742D01*
X114907873Y-47524742D02*
X114934810Y-47605555D01*
X114934810Y-47605555D02*
X115015623Y-47740242D01*
X115015623Y-47740242D02*
X115096435Y-47821054D01*
X115096435Y-47821054D02*
X115231122Y-47901866D01*
X115231122Y-47901866D02*
X115311934Y-47928803D01*
X115311934Y-47928803D02*
X115419684Y-47928803D01*
X115419684Y-47928803D02*
X115527433Y-47874929D01*
X115527433Y-47874929D02*
X115581308Y-47821054D01*
X115581308Y-47821054D02*
X115635183Y-47713304D01*
X115635183Y-47713304D02*
X115635183Y-47659429D01*
X115635183Y-47659429D02*
X115446621Y-47470868D01*
X115446621Y-47470868D02*
X115338871Y-47578617D01*
X115931494Y-47470868D02*
X115365809Y-46905182D01*
X115365809Y-46905182D02*
X115581308Y-46689683D01*
X115581308Y-46689683D02*
X115662120Y-46662746D01*
X115662120Y-46662746D02*
X115715995Y-46662746D01*
X115715995Y-46662746D02*
X115796807Y-46689683D01*
X115796807Y-46689683D02*
X115877619Y-46770495D01*
X115877619Y-46770495D02*
X115904557Y-46851307D01*
X115904557Y-46851307D02*
X115904557Y-46905182D01*
X115904557Y-46905182D02*
X115877619Y-46985994D01*
X115877619Y-46985994D02*
X115662120Y-47201494D01*
X116200868Y-46070123D02*
X115931494Y-46339497D01*
X115931494Y-46339497D02*
X116173931Y-46635808D01*
X116173931Y-46635808D02*
X116173931Y-46581933D01*
X116173931Y-46581933D02*
X116200868Y-46501121D01*
X116200868Y-46501121D02*
X116335555Y-46366434D01*
X116335555Y-46366434D02*
X116416367Y-46339497D01*
X116416367Y-46339497D02*
X116470242Y-46339497D01*
X116470242Y-46339497D02*
X116551054Y-46366434D01*
X116551054Y-46366434D02*
X116685741Y-46501121D01*
X116685741Y-46501121D02*
X116712679Y-46581933D01*
X116712679Y-46581933D02*
X116712679Y-46635808D01*
X116712679Y-46635808D02*
X116685741Y-46716620D01*
X116685741Y-46716620D02*
X116551054Y-46851307D01*
X116551054Y-46851307D02*
X116470242Y-46878245D01*
X116470242Y-46878245D02*
X116416367Y-46878245D01*
X115096435Y-49768431D02*
X115015623Y-49795368D01*
X115015623Y-49795368D02*
X114934811Y-49876180D01*
X114934811Y-49876180D02*
X114880936Y-49983930D01*
X114880936Y-49983930D02*
X114880936Y-50091680D01*
X114880936Y-50091680D02*
X114907873Y-50172492D01*
X114907873Y-50172492D02*
X114988685Y-50307179D01*
X114988685Y-50307179D02*
X115069498Y-50387991D01*
X115069498Y-50387991D02*
X115204185Y-50468803D01*
X115204185Y-50468803D02*
X115284997Y-50495741D01*
X115284997Y-50495741D02*
X115392746Y-50495741D01*
X115392746Y-50495741D02*
X115500496Y-50441866D01*
X115500496Y-50441866D02*
X115554371Y-50387991D01*
X115554371Y-50387991D02*
X115608246Y-50280241D01*
X115608246Y-50280241D02*
X115608246Y-50226367D01*
X115608246Y-50226367D02*
X115419684Y-50037805D01*
X115419684Y-50037805D02*
X115311934Y-50145554D01*
X115904557Y-50037805D02*
X115338872Y-49472119D01*
X115338872Y-49472119D02*
X116227806Y-49714556D01*
X116227806Y-49714556D02*
X115662120Y-49148871D01*
X116497180Y-49445182D02*
X115931494Y-48879497D01*
X115931494Y-48879497D02*
X116066181Y-48744810D01*
X116066181Y-48744810D02*
X116173931Y-48690935D01*
X116173931Y-48690935D02*
X116281680Y-48690935D01*
X116281680Y-48690935D02*
X116362493Y-48717872D01*
X116362493Y-48717872D02*
X116497180Y-48798685D01*
X116497180Y-48798685D02*
X116577992Y-48879497D01*
X116577992Y-48879497D02*
X116658804Y-49014184D01*
X116658804Y-49014184D02*
X116685741Y-49094996D01*
X116685741Y-49094996D02*
X116685741Y-49202746D01*
X116685741Y-49202746D02*
X116631867Y-49310495D01*
X116631867Y-49310495D02*
X116497180Y-49445182D01*
X115123372Y-52281494D02*
X115042560Y-52308431D01*
X115042560Y-52308431D02*
X114961748Y-52389243D01*
X114961748Y-52389243D02*
X114907873Y-52496993D01*
X114907873Y-52496993D02*
X114907873Y-52604742D01*
X114907873Y-52604742D02*
X114934810Y-52685555D01*
X114934810Y-52685555D02*
X115015623Y-52820242D01*
X115015623Y-52820242D02*
X115096435Y-52901054D01*
X115096435Y-52901054D02*
X115231122Y-52981866D01*
X115231122Y-52981866D02*
X115311934Y-53008803D01*
X115311934Y-53008803D02*
X115419684Y-53008803D01*
X115419684Y-53008803D02*
X115527433Y-52954929D01*
X115527433Y-52954929D02*
X115581308Y-52901054D01*
X115581308Y-52901054D02*
X115635183Y-52793304D01*
X115635183Y-52793304D02*
X115635183Y-52739429D01*
X115635183Y-52739429D02*
X115446621Y-52550868D01*
X115446621Y-52550868D02*
X115338871Y-52658617D01*
X115931494Y-52550868D02*
X115365809Y-51985182D01*
X115365809Y-51985182D02*
X115581308Y-51769683D01*
X115581308Y-51769683D02*
X115662120Y-51742746D01*
X115662120Y-51742746D02*
X115715995Y-51742746D01*
X115715995Y-51742746D02*
X115796807Y-51769683D01*
X115796807Y-51769683D02*
X115877619Y-51850495D01*
X115877619Y-51850495D02*
X115904557Y-51931307D01*
X115904557Y-51931307D02*
X115904557Y-51985182D01*
X115904557Y-51985182D02*
X115877619Y-52065994D01*
X115877619Y-52065994D02*
X115662120Y-52281494D01*
X116173931Y-51177060D02*
X116066181Y-51284810D01*
X116066181Y-51284810D02*
X116039244Y-51365622D01*
X116039244Y-51365622D02*
X116039244Y-51419497D01*
X116039244Y-51419497D02*
X116066181Y-51554184D01*
X116066181Y-51554184D02*
X116146993Y-51688871D01*
X116146993Y-51688871D02*
X116362493Y-51904370D01*
X116362493Y-51904370D02*
X116443305Y-51931307D01*
X116443305Y-51931307D02*
X116497180Y-51931307D01*
X116497180Y-51931307D02*
X116577992Y-51904370D01*
X116577992Y-51904370D02*
X116685741Y-51796620D01*
X116685741Y-51796620D02*
X116712679Y-51715808D01*
X116712679Y-51715808D02*
X116712679Y-51661933D01*
X116712679Y-51661933D02*
X116685741Y-51581121D01*
X116685741Y-51581121D02*
X116551054Y-51446434D01*
X116551054Y-51446434D02*
X116470242Y-51419497D01*
X116470242Y-51419497D02*
X116416367Y-51419497D01*
X116416367Y-51419497D02*
X116335555Y-51446434D01*
X116335555Y-51446434D02*
X116227806Y-51554184D01*
X116227806Y-51554184D02*
X116200868Y-51634996D01*
X116200868Y-51634996D02*
X116200868Y-51688871D01*
X116200868Y-51688871D02*
X116227806Y-51769683D01*
X115123372Y-57361494D02*
X115042560Y-57388431D01*
X115042560Y-57388431D02*
X114961748Y-57469243D01*
X114961748Y-57469243D02*
X114907873Y-57576993D01*
X114907873Y-57576993D02*
X114907873Y-57684742D01*
X114907873Y-57684742D02*
X114934810Y-57765555D01*
X114934810Y-57765555D02*
X115015623Y-57900242D01*
X115015623Y-57900242D02*
X115096435Y-57981054D01*
X115096435Y-57981054D02*
X115231122Y-58061866D01*
X115231122Y-58061866D02*
X115311934Y-58088803D01*
X115311934Y-58088803D02*
X115419684Y-58088803D01*
X115419684Y-58088803D02*
X115527433Y-58034929D01*
X115527433Y-58034929D02*
X115581308Y-57981054D01*
X115581308Y-57981054D02*
X115635183Y-57873304D01*
X115635183Y-57873304D02*
X115635183Y-57819429D01*
X115635183Y-57819429D02*
X115446621Y-57630868D01*
X115446621Y-57630868D02*
X115338871Y-57738617D01*
X115931494Y-57630868D02*
X115365809Y-57065182D01*
X115365809Y-57065182D02*
X115581308Y-56849683D01*
X115581308Y-56849683D02*
X115662120Y-56822746D01*
X115662120Y-56822746D02*
X115715995Y-56822746D01*
X115715995Y-56822746D02*
X115796807Y-56849683D01*
X115796807Y-56849683D02*
X115877619Y-56930495D01*
X115877619Y-56930495D02*
X115904557Y-57011307D01*
X115904557Y-57011307D02*
X115904557Y-57065182D01*
X115904557Y-57065182D02*
X115877619Y-57145994D01*
X115877619Y-57145994D02*
X115662120Y-57361494D01*
X116254743Y-56661121D02*
X116173931Y-56688059D01*
X116173931Y-56688059D02*
X116120056Y-56688059D01*
X116120056Y-56688059D02*
X116039244Y-56661121D01*
X116039244Y-56661121D02*
X116012306Y-56634184D01*
X116012306Y-56634184D02*
X115985369Y-56553372D01*
X115985369Y-56553372D02*
X115985369Y-56499497D01*
X115985369Y-56499497D02*
X116012306Y-56418685D01*
X116012306Y-56418685D02*
X116120056Y-56310935D01*
X116120056Y-56310935D02*
X116200868Y-56283998D01*
X116200868Y-56283998D02*
X116254743Y-56283998D01*
X116254743Y-56283998D02*
X116335555Y-56310935D01*
X116335555Y-56310935D02*
X116362493Y-56337872D01*
X116362493Y-56337872D02*
X116389430Y-56418685D01*
X116389430Y-56418685D02*
X116389430Y-56472559D01*
X116389430Y-56472559D02*
X116362493Y-56553372D01*
X116362493Y-56553372D02*
X116254743Y-56661121D01*
X116254743Y-56661121D02*
X116227806Y-56741933D01*
X116227806Y-56741933D02*
X116227806Y-56795808D01*
X116227806Y-56795808D02*
X116254743Y-56876620D01*
X116254743Y-56876620D02*
X116362493Y-56984370D01*
X116362493Y-56984370D02*
X116443305Y-57011307D01*
X116443305Y-57011307D02*
X116497180Y-57011307D01*
X116497180Y-57011307D02*
X116577992Y-56984370D01*
X116577992Y-56984370D02*
X116685741Y-56876620D01*
X116685741Y-56876620D02*
X116712679Y-56795808D01*
X116712679Y-56795808D02*
X116712679Y-56741933D01*
X116712679Y-56741933D02*
X116685741Y-56661121D01*
X116685741Y-56661121D02*
X116577992Y-56553372D01*
X116577992Y-56553372D02*
X116497180Y-56526434D01*
X116497180Y-56526434D02*
X116443305Y-56526434D01*
X116443305Y-56526434D02*
X116362493Y-56553372D01*
X115123372Y-59901494D02*
X115042560Y-59928431D01*
X115042560Y-59928431D02*
X114961748Y-60009243D01*
X114961748Y-60009243D02*
X114907873Y-60116993D01*
X114907873Y-60116993D02*
X114907873Y-60224742D01*
X114907873Y-60224742D02*
X114934810Y-60305555D01*
X114934810Y-60305555D02*
X115015623Y-60440242D01*
X115015623Y-60440242D02*
X115096435Y-60521054D01*
X115096435Y-60521054D02*
X115231122Y-60601866D01*
X115231122Y-60601866D02*
X115311934Y-60628803D01*
X115311934Y-60628803D02*
X115419684Y-60628803D01*
X115419684Y-60628803D02*
X115527433Y-60574929D01*
X115527433Y-60574929D02*
X115581308Y-60521054D01*
X115581308Y-60521054D02*
X115635183Y-60413304D01*
X115635183Y-60413304D02*
X115635183Y-60359429D01*
X115635183Y-60359429D02*
X115446621Y-60170868D01*
X115446621Y-60170868D02*
X115338871Y-60278617D01*
X115931494Y-60170868D02*
X115365809Y-59605182D01*
X115365809Y-59605182D02*
X115581308Y-59389683D01*
X115581308Y-59389683D02*
X115662120Y-59362746D01*
X115662120Y-59362746D02*
X115715995Y-59362746D01*
X115715995Y-59362746D02*
X115796807Y-59389683D01*
X115796807Y-59389683D02*
X115877619Y-59470495D01*
X115877619Y-59470495D02*
X115904557Y-59551307D01*
X115904557Y-59551307D02*
X115904557Y-59605182D01*
X115904557Y-59605182D02*
X115877619Y-59685994D01*
X115877619Y-59685994D02*
X115662120Y-59901494D01*
X116524117Y-59578245D02*
X116631867Y-59470495D01*
X116631867Y-59470495D02*
X116658804Y-59389683D01*
X116658804Y-59389683D02*
X116658804Y-59335808D01*
X116658804Y-59335808D02*
X116631867Y-59201121D01*
X116631867Y-59201121D02*
X116551054Y-59066434D01*
X116551054Y-59066434D02*
X116335555Y-58850935D01*
X116335555Y-58850935D02*
X116254743Y-58823998D01*
X116254743Y-58823998D02*
X116200868Y-58823998D01*
X116200868Y-58823998D02*
X116120056Y-58850935D01*
X116120056Y-58850935D02*
X116012306Y-58958685D01*
X116012306Y-58958685D02*
X115985369Y-59039497D01*
X115985369Y-59039497D02*
X115985369Y-59093372D01*
X115985369Y-59093372D02*
X116012306Y-59174184D01*
X116012306Y-59174184D02*
X116146993Y-59308871D01*
X116146993Y-59308871D02*
X116227806Y-59335808D01*
X116227806Y-59335808D02*
X116281680Y-59335808D01*
X116281680Y-59335808D02*
X116362493Y-59308871D01*
X116362493Y-59308871D02*
X116470242Y-59201121D01*
X116470242Y-59201121D02*
X116497180Y-59120309D01*
X116497180Y-59120309D02*
X116497180Y-59066434D01*
X116497180Y-59066434D02*
X116470242Y-58985622D01*
X115096435Y-62468431D02*
X115015623Y-62495368D01*
X115015623Y-62495368D02*
X114934811Y-62576180D01*
X114934811Y-62576180D02*
X114880936Y-62683930D01*
X114880936Y-62683930D02*
X114880936Y-62791680D01*
X114880936Y-62791680D02*
X114907873Y-62872492D01*
X114907873Y-62872492D02*
X114988685Y-63007179D01*
X114988685Y-63007179D02*
X115069498Y-63087991D01*
X115069498Y-63087991D02*
X115204185Y-63168803D01*
X115204185Y-63168803D02*
X115284997Y-63195741D01*
X115284997Y-63195741D02*
X115392746Y-63195741D01*
X115392746Y-63195741D02*
X115500496Y-63141866D01*
X115500496Y-63141866D02*
X115554371Y-63087991D01*
X115554371Y-63087991D02*
X115608246Y-62980241D01*
X115608246Y-62980241D02*
X115608246Y-62926367D01*
X115608246Y-62926367D02*
X115419684Y-62737805D01*
X115419684Y-62737805D02*
X115311934Y-62845554D01*
X115904557Y-62737805D02*
X115338872Y-62172119D01*
X115338872Y-62172119D02*
X116227806Y-62414556D01*
X116227806Y-62414556D02*
X115662120Y-61848871D01*
X116497180Y-62145182D02*
X115931494Y-61579497D01*
X115931494Y-61579497D02*
X116066181Y-61444810D01*
X116066181Y-61444810D02*
X116173931Y-61390935D01*
X116173931Y-61390935D02*
X116281680Y-61390935D01*
X116281680Y-61390935D02*
X116362493Y-61417872D01*
X116362493Y-61417872D02*
X116497180Y-61498685D01*
X116497180Y-61498685D02*
X116577992Y-61579497D01*
X116577992Y-61579497D02*
X116658804Y-61714184D01*
X116658804Y-61714184D02*
X116685741Y-61794996D01*
X116685741Y-61794996D02*
X116685741Y-61902746D01*
X116685741Y-61902746D02*
X116631867Y-62010495D01*
X116631867Y-62010495D02*
X116497180Y-62145182D01*
X115096435Y-75168431D02*
X115015623Y-75195368D01*
X115015623Y-75195368D02*
X114934811Y-75276180D01*
X114934811Y-75276180D02*
X114880936Y-75383930D01*
X114880936Y-75383930D02*
X114880936Y-75491680D01*
X114880936Y-75491680D02*
X114907873Y-75572492D01*
X114907873Y-75572492D02*
X114988685Y-75707179D01*
X114988685Y-75707179D02*
X115069498Y-75787991D01*
X115069498Y-75787991D02*
X115204185Y-75868803D01*
X115204185Y-75868803D02*
X115284997Y-75895741D01*
X115284997Y-75895741D02*
X115392746Y-75895741D01*
X115392746Y-75895741D02*
X115500496Y-75841866D01*
X115500496Y-75841866D02*
X115554371Y-75787991D01*
X115554371Y-75787991D02*
X115608246Y-75680241D01*
X115608246Y-75680241D02*
X115608246Y-75626367D01*
X115608246Y-75626367D02*
X115419684Y-75437805D01*
X115419684Y-75437805D02*
X115311934Y-75545554D01*
X115904557Y-75437805D02*
X115338872Y-74872119D01*
X115338872Y-74872119D02*
X116227806Y-75114556D01*
X116227806Y-75114556D02*
X115662120Y-74548871D01*
X116497180Y-74845182D02*
X115931494Y-74279497D01*
X115931494Y-74279497D02*
X116066181Y-74144810D01*
X116066181Y-74144810D02*
X116173931Y-74090935D01*
X116173931Y-74090935D02*
X116281680Y-74090935D01*
X116281680Y-74090935D02*
X116362493Y-74117872D01*
X116362493Y-74117872D02*
X116497180Y-74198685D01*
X116497180Y-74198685D02*
X116577992Y-74279497D01*
X116577992Y-74279497D02*
X116658804Y-74414184D01*
X116658804Y-74414184D02*
X116685741Y-74494996D01*
X116685741Y-74494996D02*
X116685741Y-74602746D01*
X116685741Y-74602746D02*
X116631867Y-74710495D01*
X116631867Y-74710495D02*
X116497180Y-74845182D01*
X115223372Y-54791494D02*
X115142560Y-54818431D01*
X115142560Y-54818431D02*
X115061748Y-54899243D01*
X115061748Y-54899243D02*
X115007873Y-55006993D01*
X115007873Y-55006993D02*
X115007873Y-55114742D01*
X115007873Y-55114742D02*
X115034810Y-55195555D01*
X115034810Y-55195555D02*
X115115623Y-55330242D01*
X115115623Y-55330242D02*
X115196435Y-55411054D01*
X115196435Y-55411054D02*
X115331122Y-55491866D01*
X115331122Y-55491866D02*
X115411934Y-55518803D01*
X115411934Y-55518803D02*
X115519684Y-55518803D01*
X115519684Y-55518803D02*
X115627433Y-55464929D01*
X115627433Y-55464929D02*
X115681308Y-55411054D01*
X115681308Y-55411054D02*
X115735183Y-55303304D01*
X115735183Y-55303304D02*
X115735183Y-55249429D01*
X115735183Y-55249429D02*
X115546621Y-55060868D01*
X115546621Y-55060868D02*
X115438871Y-55168617D01*
X116031494Y-55060868D02*
X115465809Y-54495182D01*
X115465809Y-54495182D02*
X115681308Y-54279683D01*
X115681308Y-54279683D02*
X115762120Y-54252746D01*
X115762120Y-54252746D02*
X115815995Y-54252746D01*
X115815995Y-54252746D02*
X115896807Y-54279683D01*
X115896807Y-54279683D02*
X115977619Y-54360495D01*
X115977619Y-54360495D02*
X116004557Y-54441307D01*
X116004557Y-54441307D02*
X116004557Y-54495182D01*
X116004557Y-54495182D02*
X115977619Y-54575994D01*
X115977619Y-54575994D02*
X115762120Y-54791494D01*
X115977619Y-53983372D02*
X116354743Y-53606248D01*
X116354743Y-53606248D02*
X116677992Y-54414370D01*
X121100475Y-82494200D02*
X121214761Y-82532295D01*
X121214761Y-82532295D02*
X121405237Y-82532295D01*
X121405237Y-82532295D02*
X121481428Y-82494200D01*
X121481428Y-82494200D02*
X121519523Y-82456104D01*
X121519523Y-82456104D02*
X121557618Y-82379914D01*
X121557618Y-82379914D02*
X121557618Y-82303723D01*
X121557618Y-82303723D02*
X121519523Y-82227533D01*
X121519523Y-82227533D02*
X121481428Y-82189438D01*
X121481428Y-82189438D02*
X121405237Y-82151342D01*
X121405237Y-82151342D02*
X121252856Y-82113247D01*
X121252856Y-82113247D02*
X121176666Y-82075152D01*
X121176666Y-82075152D02*
X121138571Y-82037057D01*
X121138571Y-82037057D02*
X121100475Y-81960866D01*
X121100475Y-81960866D02*
X121100475Y-81884676D01*
X121100475Y-81884676D02*
X121138571Y-81808485D01*
X121138571Y-81808485D02*
X121176666Y-81770390D01*
X121176666Y-81770390D02*
X121252856Y-81732295D01*
X121252856Y-81732295D02*
X121443333Y-81732295D01*
X121443333Y-81732295D02*
X121557618Y-81770390D01*
X121824285Y-81732295D02*
X122014761Y-82532295D01*
X122014761Y-82532295D02*
X122167142Y-81960866D01*
X122167142Y-81960866D02*
X122319523Y-82532295D01*
X122319523Y-82532295D02*
X122510000Y-81732295D01*
X123271905Y-82456104D02*
X123233809Y-82494200D01*
X123233809Y-82494200D02*
X123119524Y-82532295D01*
X123119524Y-82532295D02*
X123043333Y-82532295D01*
X123043333Y-82532295D02*
X122929047Y-82494200D01*
X122929047Y-82494200D02*
X122852857Y-82418009D01*
X122852857Y-82418009D02*
X122814762Y-82341819D01*
X122814762Y-82341819D02*
X122776666Y-82189438D01*
X122776666Y-82189438D02*
X122776666Y-82075152D01*
X122776666Y-82075152D02*
X122814762Y-81922771D01*
X122814762Y-81922771D02*
X122852857Y-81846580D01*
X122852857Y-81846580D02*
X122929047Y-81770390D01*
X122929047Y-81770390D02*
X123043333Y-81732295D01*
X123043333Y-81732295D02*
X123119524Y-81732295D01*
X123119524Y-81732295D02*
X123233809Y-81770390D01*
X123233809Y-81770390D02*
X123271905Y-81808485D01*
X123995714Y-82532295D02*
X123614762Y-82532295D01*
X123614762Y-82532295D02*
X123614762Y-81732295D01*
X124262381Y-82532295D02*
X124262381Y-81732295D01*
X124719524Y-82532295D02*
X124376666Y-82075152D01*
X124719524Y-81732295D02*
X124262381Y-82189438D01*
X132514761Y-82494200D02*
X132629047Y-82532295D01*
X132629047Y-82532295D02*
X132819523Y-82532295D01*
X132819523Y-82532295D02*
X132895714Y-82494200D01*
X132895714Y-82494200D02*
X132933809Y-82456104D01*
X132933809Y-82456104D02*
X132971904Y-82379914D01*
X132971904Y-82379914D02*
X132971904Y-82303723D01*
X132971904Y-82303723D02*
X132933809Y-82227533D01*
X132933809Y-82227533D02*
X132895714Y-82189438D01*
X132895714Y-82189438D02*
X132819523Y-82151342D01*
X132819523Y-82151342D02*
X132667142Y-82113247D01*
X132667142Y-82113247D02*
X132590952Y-82075152D01*
X132590952Y-82075152D02*
X132552857Y-82037057D01*
X132552857Y-82037057D02*
X132514761Y-81960866D01*
X132514761Y-81960866D02*
X132514761Y-81884676D01*
X132514761Y-81884676D02*
X132552857Y-81808485D01*
X132552857Y-81808485D02*
X132590952Y-81770390D01*
X132590952Y-81770390D02*
X132667142Y-81732295D01*
X132667142Y-81732295D02*
X132857619Y-81732295D01*
X132857619Y-81732295D02*
X132971904Y-81770390D01*
X133238571Y-81732295D02*
X133429047Y-82532295D01*
X133429047Y-82532295D02*
X133581428Y-81960866D01*
X133581428Y-81960866D02*
X133733809Y-82532295D01*
X133733809Y-82532295D02*
X133924286Y-81732295D01*
X134229048Y-82532295D02*
X134229048Y-81732295D01*
X134229048Y-81732295D02*
X134419524Y-81732295D01*
X134419524Y-81732295D02*
X134533810Y-81770390D01*
X134533810Y-81770390D02*
X134610000Y-81846580D01*
X134610000Y-81846580D02*
X134648095Y-81922771D01*
X134648095Y-81922771D02*
X134686191Y-82075152D01*
X134686191Y-82075152D02*
X134686191Y-82189438D01*
X134686191Y-82189438D02*
X134648095Y-82341819D01*
X134648095Y-82341819D02*
X134610000Y-82418009D01*
X134610000Y-82418009D02*
X134533810Y-82494200D01*
X134533810Y-82494200D02*
X134419524Y-82532295D01*
X134419524Y-82532295D02*
X134229048Y-82532295D01*
X135029048Y-82532295D02*
X135029048Y-81732295D01*
X135562381Y-81732295D02*
X135714762Y-81732295D01*
X135714762Y-81732295D02*
X135790952Y-81770390D01*
X135790952Y-81770390D02*
X135867143Y-81846580D01*
X135867143Y-81846580D02*
X135905238Y-81998961D01*
X135905238Y-81998961D02*
X135905238Y-82265628D01*
X135905238Y-82265628D02*
X135867143Y-82418009D01*
X135867143Y-82418009D02*
X135790952Y-82494200D01*
X135790952Y-82494200D02*
X135714762Y-82532295D01*
X135714762Y-82532295D02*
X135562381Y-82532295D01*
X135562381Y-82532295D02*
X135486190Y-82494200D01*
X135486190Y-82494200D02*
X135410000Y-82418009D01*
X135410000Y-82418009D02*
X135371904Y-82265628D01*
X135371904Y-82265628D02*
X135371904Y-81998961D01*
X135371904Y-81998961D02*
X135410000Y-81846580D01*
X135410000Y-81846580D02*
X135486190Y-81770390D01*
X135486190Y-81770390D02*
X135562381Y-81732295D01*
X140696435Y-37068431D02*
X140615623Y-37095368D01*
X140615623Y-37095368D02*
X140534811Y-37176180D01*
X140534811Y-37176180D02*
X140480936Y-37283930D01*
X140480936Y-37283930D02*
X140480936Y-37391680D01*
X140480936Y-37391680D02*
X140507873Y-37472492D01*
X140507873Y-37472492D02*
X140588685Y-37607179D01*
X140588685Y-37607179D02*
X140669498Y-37687991D01*
X140669498Y-37687991D02*
X140804185Y-37768803D01*
X140804185Y-37768803D02*
X140884997Y-37795741D01*
X140884997Y-37795741D02*
X140992746Y-37795741D01*
X140992746Y-37795741D02*
X141100496Y-37741866D01*
X141100496Y-37741866D02*
X141154371Y-37687991D01*
X141154371Y-37687991D02*
X141208246Y-37580241D01*
X141208246Y-37580241D02*
X141208246Y-37526367D01*
X141208246Y-37526367D02*
X141019684Y-37337805D01*
X141019684Y-37337805D02*
X140911934Y-37445554D01*
X141504557Y-37337805D02*
X140938872Y-36772119D01*
X140938872Y-36772119D02*
X141827806Y-37014556D01*
X141827806Y-37014556D02*
X141262120Y-36448871D01*
X142097180Y-36745182D02*
X141531494Y-36179497D01*
X141531494Y-36179497D02*
X141666181Y-36044810D01*
X141666181Y-36044810D02*
X141773931Y-35990935D01*
X141773931Y-35990935D02*
X141881680Y-35990935D01*
X141881680Y-35990935D02*
X141962493Y-36017872D01*
X141962493Y-36017872D02*
X142097180Y-36098685D01*
X142097180Y-36098685D02*
X142177992Y-36179497D01*
X142177992Y-36179497D02*
X142258804Y-36314184D01*
X142258804Y-36314184D02*
X142285741Y-36394996D01*
X142285741Y-36394996D02*
X142285741Y-36502746D01*
X142285741Y-36502746D02*
X142231867Y-36610495D01*
X142231867Y-36610495D02*
X142097180Y-36745182D01*
X140696435Y-62468431D02*
X140615623Y-62495368D01*
X140615623Y-62495368D02*
X140534811Y-62576180D01*
X140534811Y-62576180D02*
X140480936Y-62683930D01*
X140480936Y-62683930D02*
X140480936Y-62791680D01*
X140480936Y-62791680D02*
X140507873Y-62872492D01*
X140507873Y-62872492D02*
X140588685Y-63007179D01*
X140588685Y-63007179D02*
X140669498Y-63087991D01*
X140669498Y-63087991D02*
X140804185Y-63168803D01*
X140804185Y-63168803D02*
X140884997Y-63195741D01*
X140884997Y-63195741D02*
X140992746Y-63195741D01*
X140992746Y-63195741D02*
X141100496Y-63141866D01*
X141100496Y-63141866D02*
X141154371Y-63087991D01*
X141154371Y-63087991D02*
X141208246Y-62980241D01*
X141208246Y-62980241D02*
X141208246Y-62926367D01*
X141208246Y-62926367D02*
X141019684Y-62737805D01*
X141019684Y-62737805D02*
X140911934Y-62845554D01*
X141504557Y-62737805D02*
X140938872Y-62172119D01*
X140938872Y-62172119D02*
X141827806Y-62414556D01*
X141827806Y-62414556D02*
X141262120Y-61848871D01*
X142097180Y-62145182D02*
X141531494Y-61579497D01*
X141531494Y-61579497D02*
X141666181Y-61444810D01*
X141666181Y-61444810D02*
X141773931Y-61390935D01*
X141773931Y-61390935D02*
X141881680Y-61390935D01*
X141881680Y-61390935D02*
X141962493Y-61417872D01*
X141962493Y-61417872D02*
X142097180Y-61498685D01*
X142097180Y-61498685D02*
X142177992Y-61579497D01*
X142177992Y-61579497D02*
X142258804Y-61714184D01*
X142258804Y-61714184D02*
X142285741Y-61794996D01*
X142285741Y-61794996D02*
X142285741Y-61902746D01*
X142285741Y-61902746D02*
X142231867Y-62010495D01*
X142231867Y-62010495D02*
X142097180Y-62145182D01*
X140696435Y-75168431D02*
X140615623Y-75195368D01*
X140615623Y-75195368D02*
X140534811Y-75276180D01*
X140534811Y-75276180D02*
X140480936Y-75383930D01*
X140480936Y-75383930D02*
X140480936Y-75491680D01*
X140480936Y-75491680D02*
X140507873Y-75572492D01*
X140507873Y-75572492D02*
X140588685Y-75707179D01*
X140588685Y-75707179D02*
X140669498Y-75787991D01*
X140669498Y-75787991D02*
X140804185Y-75868803D01*
X140804185Y-75868803D02*
X140884997Y-75895741D01*
X140884997Y-75895741D02*
X140992746Y-75895741D01*
X140992746Y-75895741D02*
X141100496Y-75841866D01*
X141100496Y-75841866D02*
X141154371Y-75787991D01*
X141154371Y-75787991D02*
X141208246Y-75680241D01*
X141208246Y-75680241D02*
X141208246Y-75626367D01*
X141208246Y-75626367D02*
X141019684Y-75437805D01*
X141019684Y-75437805D02*
X140911934Y-75545554D01*
X141504557Y-75437805D02*
X140938872Y-74872119D01*
X140938872Y-74872119D02*
X141827806Y-75114556D01*
X141827806Y-75114556D02*
X141262120Y-74548871D01*
X142097180Y-74845182D02*
X141531494Y-74279497D01*
X141531494Y-74279497D02*
X141666181Y-74144810D01*
X141666181Y-74144810D02*
X141773931Y-74090935D01*
X141773931Y-74090935D02*
X141881680Y-74090935D01*
X141881680Y-74090935D02*
X141962493Y-74117872D01*
X141962493Y-74117872D02*
X142097180Y-74198685D01*
X142097180Y-74198685D02*
X142177992Y-74279497D01*
X142177992Y-74279497D02*
X142258804Y-74414184D01*
X142258804Y-74414184D02*
X142285741Y-74494996D01*
X142285741Y-74494996D02*
X142285741Y-74602746D01*
X142285741Y-74602746D02*
X142231867Y-74710495D01*
X142231867Y-74710495D02*
X142097180Y-74845182D01*
X140500123Y-42460868D02*
X140850309Y-42110682D01*
X140850309Y-42110682D02*
X140877247Y-42514743D01*
X140877247Y-42514743D02*
X140958059Y-42433931D01*
X140958059Y-42433931D02*
X141038871Y-42406993D01*
X141038871Y-42406993D02*
X141092746Y-42406993D01*
X141092746Y-42406993D02*
X141173558Y-42433931D01*
X141173558Y-42433931D02*
X141308245Y-42568618D01*
X141308245Y-42568618D02*
X141335182Y-42649430D01*
X141335182Y-42649430D02*
X141335182Y-42703305D01*
X141335182Y-42703305D02*
X141308245Y-42784117D01*
X141308245Y-42784117D02*
X141146621Y-42945741D01*
X141146621Y-42945741D02*
X141065808Y-42972679D01*
X141065808Y-42972679D02*
X141011934Y-42972679D01*
X141011934Y-41949057D02*
X141766181Y-42326181D01*
X141766181Y-42326181D02*
X141389057Y-41571934D01*
X141523744Y-41437247D02*
X141873930Y-41087061D01*
X141873930Y-41087061D02*
X141900868Y-41491122D01*
X141900868Y-41491122D02*
X141981680Y-41410309D01*
X141981680Y-41410309D02*
X142062492Y-41383372D01*
X142062492Y-41383372D02*
X142116367Y-41383372D01*
X142116367Y-41383372D02*
X142197179Y-41410309D01*
X142197179Y-41410309D02*
X142331866Y-41544996D01*
X142331866Y-41544996D02*
X142358804Y-41625809D01*
X142358804Y-41625809D02*
X142358804Y-41679683D01*
X142358804Y-41679683D02*
X142331866Y-41760496D01*
X142331866Y-41760496D02*
X142170242Y-41922120D01*
X142170242Y-41922120D02*
X142089430Y-41949057D01*
X142089430Y-41949057D02*
X142035555Y-41949057D01*
X141448651Y-57913710D02*
X140990716Y-57832898D01*
X141125403Y-58236959D02*
X140559717Y-57671274D01*
X140559717Y-57671274D02*
X140775216Y-57455775D01*
X140775216Y-57455775D02*
X140856029Y-57428837D01*
X140856029Y-57428837D02*
X140909903Y-57428837D01*
X140909903Y-57428837D02*
X140990716Y-57455775D01*
X140990716Y-57455775D02*
X141071528Y-57536587D01*
X141071528Y-57536587D02*
X141098465Y-57617399D01*
X141098465Y-57617399D02*
X141098465Y-57671274D01*
X141098465Y-57671274D02*
X141071528Y-57752086D01*
X141071528Y-57752086D02*
X140856029Y-57967585D01*
X141125403Y-57105588D02*
X141583338Y-57563524D01*
X141583338Y-57563524D02*
X141664151Y-57590462D01*
X141664151Y-57590462D02*
X141718025Y-57590462D01*
X141718025Y-57590462D02*
X141798838Y-57563524D01*
X141798838Y-57563524D02*
X141906587Y-57455775D01*
X141906587Y-57455775D02*
X141933525Y-57374962D01*
X141933525Y-57374962D02*
X141933525Y-57321088D01*
X141933525Y-57321088D02*
X141906587Y-57240275D01*
X141906587Y-57240275D02*
X141448651Y-56782340D01*
X142283711Y-57078651D02*
X141718025Y-56512966D01*
X141718025Y-56512966D02*
X142606959Y-56755402D01*
X142606959Y-56755402D02*
X142041274Y-56189717D01*
X140707998Y-47216868D02*
X140627185Y-47243805D01*
X140627185Y-47243805D02*
X140546373Y-47324618D01*
X140546373Y-47324618D02*
X140492498Y-47432367D01*
X140492498Y-47432367D02*
X140492498Y-47540117D01*
X140492498Y-47540117D02*
X140519436Y-47620929D01*
X140519436Y-47620929D02*
X140600248Y-47755616D01*
X140600248Y-47755616D02*
X140681060Y-47836428D01*
X140681060Y-47836428D02*
X140815747Y-47917241D01*
X140815747Y-47917241D02*
X140896560Y-47944178D01*
X140896560Y-47944178D02*
X141004309Y-47944178D01*
X141004309Y-47944178D02*
X141112059Y-47890303D01*
X141112059Y-47890303D02*
X141165934Y-47836428D01*
X141165934Y-47836428D02*
X141219808Y-47728679D01*
X141219808Y-47728679D02*
X141219808Y-47674804D01*
X141219808Y-47674804D02*
X141031247Y-47486242D01*
X141031247Y-47486242D02*
X140923497Y-47593992D01*
X141516120Y-47486242D02*
X140950434Y-46920557D01*
X140950434Y-46920557D02*
X141165934Y-46705057D01*
X141165934Y-46705057D02*
X141246746Y-46678120D01*
X141246746Y-46678120D02*
X141300621Y-46678120D01*
X141300621Y-46678120D02*
X141381433Y-46705057D01*
X141381433Y-46705057D02*
X141462245Y-46785870D01*
X141462245Y-46785870D02*
X141489182Y-46866682D01*
X141489182Y-46866682D02*
X141489182Y-46920557D01*
X141489182Y-46920557D02*
X141462245Y-47001369D01*
X141462245Y-47001369D02*
X141246746Y-47216868D01*
X141543057Y-46435683D02*
X141543057Y-46381809D01*
X141543057Y-46381809D02*
X141569995Y-46300996D01*
X141569995Y-46300996D02*
X141704682Y-46166309D01*
X141704682Y-46166309D02*
X141785494Y-46139372D01*
X141785494Y-46139372D02*
X141839369Y-46139372D01*
X141839369Y-46139372D02*
X141920181Y-46166309D01*
X141920181Y-46166309D02*
X141974056Y-46220184D01*
X141974056Y-46220184D02*
X142027930Y-46327934D01*
X142027930Y-46327934D02*
X142027930Y-46974431D01*
X142027930Y-46974431D02*
X142378117Y-46624245D01*
X142378117Y-45977747D02*
X142297305Y-46004685D01*
X142297305Y-46004685D02*
X142243430Y-46004685D01*
X142243430Y-46004685D02*
X142162618Y-45977747D01*
X142162618Y-45977747D02*
X142135680Y-45950810D01*
X142135680Y-45950810D02*
X142108743Y-45869998D01*
X142108743Y-45869998D02*
X142108743Y-45816123D01*
X142108743Y-45816123D02*
X142135680Y-45735311D01*
X142135680Y-45735311D02*
X142243430Y-45627561D01*
X142243430Y-45627561D02*
X142324242Y-45600624D01*
X142324242Y-45600624D02*
X142378117Y-45600624D01*
X142378117Y-45600624D02*
X142458929Y-45627561D01*
X142458929Y-45627561D02*
X142485866Y-45654499D01*
X142485866Y-45654499D02*
X142512804Y-45735311D01*
X142512804Y-45735311D02*
X142512804Y-45789186D01*
X142512804Y-45789186D02*
X142485866Y-45869998D01*
X142485866Y-45869998D02*
X142378117Y-45977747D01*
X142378117Y-45977747D02*
X142351179Y-46058560D01*
X142351179Y-46058560D02*
X142351179Y-46112434D01*
X142351179Y-46112434D02*
X142378117Y-46193247D01*
X142378117Y-46193247D02*
X142485866Y-46300996D01*
X142485866Y-46300996D02*
X142566679Y-46327934D01*
X142566679Y-46327934D02*
X142620553Y-46327934D01*
X142620553Y-46327934D02*
X142701366Y-46300996D01*
X142701366Y-46300996D02*
X142809115Y-46193247D01*
X142809115Y-46193247D02*
X142836053Y-46112434D01*
X142836053Y-46112434D02*
X142836053Y-46058560D01*
X142836053Y-46058560D02*
X142809115Y-45977747D01*
X142809115Y-45977747D02*
X142701366Y-45869998D01*
X142701366Y-45869998D02*
X142620553Y-45843060D01*
X142620553Y-45843060D02*
X142566679Y-45843060D01*
X142566679Y-45843060D02*
X142485866Y-45869998D01*
X140761873Y-50711240D02*
X141031247Y-50441866D01*
X140869623Y-50926739D02*
X140492499Y-50172492D01*
X140492499Y-50172492D02*
X141246746Y-50549615D01*
X141192871Y-49525994D02*
X141112059Y-49552932D01*
X141112059Y-49552932D02*
X141031247Y-49633744D01*
X141031247Y-49633744D02*
X140977372Y-49741494D01*
X140977372Y-49741494D02*
X140977372Y-49849243D01*
X140977372Y-49849243D02*
X141004310Y-49930055D01*
X141004310Y-49930055D02*
X141085122Y-50064742D01*
X141085122Y-50064742D02*
X141165934Y-50145555D01*
X141165934Y-50145555D02*
X141300621Y-50226367D01*
X141300621Y-50226367D02*
X141381433Y-50253304D01*
X141381433Y-50253304D02*
X141489183Y-50253304D01*
X141489183Y-50253304D02*
X141596932Y-50199429D01*
X141596932Y-50199429D02*
X141650807Y-50145555D01*
X141650807Y-50145555D02*
X141704682Y-50037805D01*
X141704682Y-50037805D02*
X141704682Y-49983930D01*
X141704682Y-49983930D02*
X141516120Y-49795368D01*
X141516120Y-49795368D02*
X141408371Y-49903118D01*
X142000993Y-49795368D02*
X141435308Y-49229683D01*
X141435308Y-49229683D02*
X142324242Y-49472120D01*
X142324242Y-49472120D02*
X141758557Y-48906434D01*
X142593616Y-49202746D02*
X142027931Y-48637060D01*
X142027931Y-48637060D02*
X142162618Y-48502373D01*
X142162618Y-48502373D02*
X142270367Y-48448498D01*
X142270367Y-48448498D02*
X142378117Y-48448498D01*
X142378117Y-48448498D02*
X142458929Y-48475436D01*
X142458929Y-48475436D02*
X142593616Y-48556248D01*
X142593616Y-48556248D02*
X142674428Y-48637060D01*
X142674428Y-48637060D02*
X142755241Y-48771747D01*
X142755241Y-48771747D02*
X142782178Y-48852560D01*
X142782178Y-48852560D02*
X142782178Y-48960309D01*
X142782178Y-48960309D02*
X142728303Y-49068059D01*
X142728303Y-49068059D02*
X142593616Y-49202746D01*
X140707998Y-52560868D02*
X140627185Y-52587805D01*
X140627185Y-52587805D02*
X140546373Y-52668618D01*
X140546373Y-52668618D02*
X140492498Y-52776367D01*
X140492498Y-52776367D02*
X140492498Y-52884117D01*
X140492498Y-52884117D02*
X140519436Y-52964929D01*
X140519436Y-52964929D02*
X140600248Y-53099616D01*
X140600248Y-53099616D02*
X140681060Y-53180428D01*
X140681060Y-53180428D02*
X140815747Y-53261241D01*
X140815747Y-53261241D02*
X140896560Y-53288178D01*
X140896560Y-53288178D02*
X141004309Y-53288178D01*
X141004309Y-53288178D02*
X141112059Y-53234303D01*
X141112059Y-53234303D02*
X141165934Y-53180428D01*
X141165934Y-53180428D02*
X141219808Y-53072679D01*
X141219808Y-53072679D02*
X141219808Y-53018804D01*
X141219808Y-53018804D02*
X141031247Y-52830242D01*
X141031247Y-52830242D02*
X140923497Y-52937992D01*
X141516120Y-52830242D02*
X140950434Y-52264557D01*
X140950434Y-52264557D02*
X141165934Y-52049057D01*
X141165934Y-52049057D02*
X141246746Y-52022120D01*
X141246746Y-52022120D02*
X141300621Y-52022120D01*
X141300621Y-52022120D02*
X141381433Y-52049057D01*
X141381433Y-52049057D02*
X141462245Y-52129870D01*
X141462245Y-52129870D02*
X141489182Y-52210682D01*
X141489182Y-52210682D02*
X141489182Y-52264557D01*
X141489182Y-52264557D02*
X141462245Y-52345369D01*
X141462245Y-52345369D02*
X141246746Y-52560868D01*
X141543057Y-51779683D02*
X141543057Y-51725809D01*
X141543057Y-51725809D02*
X141569995Y-51644996D01*
X141569995Y-51644996D02*
X141704682Y-51510309D01*
X141704682Y-51510309D02*
X141785494Y-51483372D01*
X141785494Y-51483372D02*
X141839369Y-51483372D01*
X141839369Y-51483372D02*
X141920181Y-51510309D01*
X141920181Y-51510309D02*
X141974056Y-51564184D01*
X141974056Y-51564184D02*
X142027930Y-51671934D01*
X142027930Y-51671934D02*
X142027930Y-52318431D01*
X142027930Y-52318431D02*
X142378117Y-51968245D01*
X142000993Y-51213998D02*
X142378117Y-50836874D01*
X142378117Y-50836874D02*
X142701366Y-51644996D01*
X140707998Y-55090868D02*
X140627185Y-55117805D01*
X140627185Y-55117805D02*
X140546373Y-55198618D01*
X140546373Y-55198618D02*
X140492498Y-55306367D01*
X140492498Y-55306367D02*
X140492498Y-55414117D01*
X140492498Y-55414117D02*
X140519436Y-55494929D01*
X140519436Y-55494929D02*
X140600248Y-55629616D01*
X140600248Y-55629616D02*
X140681060Y-55710428D01*
X140681060Y-55710428D02*
X140815747Y-55791241D01*
X140815747Y-55791241D02*
X140896560Y-55818178D01*
X140896560Y-55818178D02*
X141004309Y-55818178D01*
X141004309Y-55818178D02*
X141112059Y-55764303D01*
X141112059Y-55764303D02*
X141165934Y-55710428D01*
X141165934Y-55710428D02*
X141219808Y-55602679D01*
X141219808Y-55602679D02*
X141219808Y-55548804D01*
X141219808Y-55548804D02*
X141031247Y-55360242D01*
X141031247Y-55360242D02*
X140923497Y-55467992D01*
X141516120Y-55360242D02*
X140950434Y-54794557D01*
X140950434Y-54794557D02*
X141165934Y-54579057D01*
X141165934Y-54579057D02*
X141246746Y-54552120D01*
X141246746Y-54552120D02*
X141300621Y-54552120D01*
X141300621Y-54552120D02*
X141381433Y-54579057D01*
X141381433Y-54579057D02*
X141462245Y-54659870D01*
X141462245Y-54659870D02*
X141489182Y-54740682D01*
X141489182Y-54740682D02*
X141489182Y-54794557D01*
X141489182Y-54794557D02*
X141462245Y-54875369D01*
X141462245Y-54875369D02*
X141246746Y-55090868D01*
X141543057Y-54309683D02*
X141543057Y-54255809D01*
X141543057Y-54255809D02*
X141569995Y-54174996D01*
X141569995Y-54174996D02*
X141704682Y-54040309D01*
X141704682Y-54040309D02*
X141785494Y-54013372D01*
X141785494Y-54013372D02*
X141839369Y-54013372D01*
X141839369Y-54013372D02*
X141920181Y-54040309D01*
X141920181Y-54040309D02*
X141974056Y-54094184D01*
X141974056Y-54094184D02*
X142027930Y-54201934D01*
X142027930Y-54201934D02*
X142027930Y-54848431D01*
X142027930Y-54848431D02*
X142378117Y-54498245D01*
X142297305Y-53447686D02*
X142189555Y-53555436D01*
X142189555Y-53555436D02*
X142162618Y-53636248D01*
X142162618Y-53636248D02*
X142162618Y-53690123D01*
X142162618Y-53690123D02*
X142189555Y-53824810D01*
X142189555Y-53824810D02*
X142270367Y-53959497D01*
X142270367Y-53959497D02*
X142485866Y-54174996D01*
X142485866Y-54174996D02*
X142566679Y-54201934D01*
X142566679Y-54201934D02*
X142620553Y-54201934D01*
X142620553Y-54201934D02*
X142701366Y-54174996D01*
X142701366Y-54174996D02*
X142809115Y-54067247D01*
X142809115Y-54067247D02*
X142836053Y-53986434D01*
X142836053Y-53986434D02*
X142836053Y-53932560D01*
X142836053Y-53932560D02*
X142809115Y-53851747D01*
X142809115Y-53851747D02*
X142674428Y-53717060D01*
X142674428Y-53717060D02*
X142593616Y-53690123D01*
X142593616Y-53690123D02*
X142539741Y-53690123D01*
X142539741Y-53690123D02*
X142458929Y-53717060D01*
X142458929Y-53717060D02*
X142351179Y-53824810D01*
X142351179Y-53824810D02*
X142324242Y-53905622D01*
X142324242Y-53905622D02*
X142324242Y-53959497D01*
X142324242Y-53959497D02*
X142351179Y-54040309D01*
X140707998Y-60170868D02*
X140627185Y-60197805D01*
X140627185Y-60197805D02*
X140546373Y-60278618D01*
X140546373Y-60278618D02*
X140492498Y-60386367D01*
X140492498Y-60386367D02*
X140492498Y-60494117D01*
X140492498Y-60494117D02*
X140519436Y-60574929D01*
X140519436Y-60574929D02*
X140600248Y-60709616D01*
X140600248Y-60709616D02*
X140681060Y-60790428D01*
X140681060Y-60790428D02*
X140815747Y-60871241D01*
X140815747Y-60871241D02*
X140896560Y-60898178D01*
X140896560Y-60898178D02*
X141004309Y-60898178D01*
X141004309Y-60898178D02*
X141112059Y-60844303D01*
X141112059Y-60844303D02*
X141165934Y-60790428D01*
X141165934Y-60790428D02*
X141219808Y-60682679D01*
X141219808Y-60682679D02*
X141219808Y-60628804D01*
X141219808Y-60628804D02*
X141031247Y-60440242D01*
X141031247Y-60440242D02*
X140923497Y-60547992D01*
X141516120Y-60440242D02*
X140950434Y-59874557D01*
X140950434Y-59874557D02*
X141165934Y-59659057D01*
X141165934Y-59659057D02*
X141246746Y-59632120D01*
X141246746Y-59632120D02*
X141300621Y-59632120D01*
X141300621Y-59632120D02*
X141381433Y-59659057D01*
X141381433Y-59659057D02*
X141462245Y-59739870D01*
X141462245Y-59739870D02*
X141489182Y-59820682D01*
X141489182Y-59820682D02*
X141489182Y-59874557D01*
X141489182Y-59874557D02*
X141462245Y-59955369D01*
X141462245Y-59955369D02*
X141246746Y-60170868D01*
X141543057Y-59389683D02*
X141543057Y-59335809D01*
X141543057Y-59335809D02*
X141569995Y-59254996D01*
X141569995Y-59254996D02*
X141704682Y-59120309D01*
X141704682Y-59120309D02*
X141785494Y-59093372D01*
X141785494Y-59093372D02*
X141839369Y-59093372D01*
X141839369Y-59093372D02*
X141920181Y-59120309D01*
X141920181Y-59120309D02*
X141974056Y-59174184D01*
X141974056Y-59174184D02*
X142027930Y-59281934D01*
X142027930Y-59281934D02*
X142027930Y-59928431D01*
X142027930Y-59928431D02*
X142378117Y-59578245D01*
X142081805Y-58850935D02*
X142081805Y-58797060D01*
X142081805Y-58797060D02*
X142108743Y-58716248D01*
X142108743Y-58716248D02*
X142243430Y-58581561D01*
X142243430Y-58581561D02*
X142324242Y-58554624D01*
X142324242Y-58554624D02*
X142378117Y-58554624D01*
X142378117Y-58554624D02*
X142458929Y-58581561D01*
X142458929Y-58581561D02*
X142512804Y-58635436D01*
X142512804Y-58635436D02*
X142566679Y-58743186D01*
X142566679Y-58743186D02*
X142566679Y-59389683D01*
X142566679Y-59389683D02*
X142916865Y-59039497D01*
X140707998Y-65260868D02*
X140627185Y-65287805D01*
X140627185Y-65287805D02*
X140546373Y-65368618D01*
X140546373Y-65368618D02*
X140492498Y-65476367D01*
X140492498Y-65476367D02*
X140492498Y-65584117D01*
X140492498Y-65584117D02*
X140519436Y-65664929D01*
X140519436Y-65664929D02*
X140600248Y-65799616D01*
X140600248Y-65799616D02*
X140681060Y-65880428D01*
X140681060Y-65880428D02*
X140815747Y-65961241D01*
X140815747Y-65961241D02*
X140896560Y-65988178D01*
X140896560Y-65988178D02*
X141004309Y-65988178D01*
X141004309Y-65988178D02*
X141112059Y-65934303D01*
X141112059Y-65934303D02*
X141165934Y-65880428D01*
X141165934Y-65880428D02*
X141219808Y-65772679D01*
X141219808Y-65772679D02*
X141219808Y-65718804D01*
X141219808Y-65718804D02*
X141031247Y-65530242D01*
X141031247Y-65530242D02*
X140923497Y-65637992D01*
X141516120Y-65530242D02*
X140950434Y-64964557D01*
X140950434Y-64964557D02*
X141165934Y-64749057D01*
X141165934Y-64749057D02*
X141246746Y-64722120D01*
X141246746Y-64722120D02*
X141300621Y-64722120D01*
X141300621Y-64722120D02*
X141381433Y-64749057D01*
X141381433Y-64749057D02*
X141462245Y-64829870D01*
X141462245Y-64829870D02*
X141489182Y-64910682D01*
X141489182Y-64910682D02*
X141489182Y-64964557D01*
X141489182Y-64964557D02*
X141462245Y-65045369D01*
X141462245Y-65045369D02*
X141246746Y-65260868D01*
X141543057Y-64479683D02*
X141543057Y-64425809D01*
X141543057Y-64425809D02*
X141569995Y-64344996D01*
X141569995Y-64344996D02*
X141704682Y-64210309D01*
X141704682Y-64210309D02*
X141785494Y-64183372D01*
X141785494Y-64183372D02*
X141839369Y-64183372D01*
X141839369Y-64183372D02*
X141920181Y-64210309D01*
X141920181Y-64210309D02*
X141974056Y-64264184D01*
X141974056Y-64264184D02*
X142027930Y-64371934D01*
X142027930Y-64371934D02*
X142027930Y-65018431D01*
X142027930Y-65018431D02*
X142378117Y-64668245D01*
X142916865Y-64129497D02*
X142593616Y-64452746D01*
X142755240Y-64291121D02*
X142189555Y-63725436D01*
X142189555Y-63725436D02*
X142216492Y-63860123D01*
X142216492Y-63860123D02*
X142216492Y-63967873D01*
X142216492Y-63967873D02*
X142189555Y-64048685D01*
X140707998Y-67790868D02*
X140627185Y-67817805D01*
X140627185Y-67817805D02*
X140546373Y-67898618D01*
X140546373Y-67898618D02*
X140492498Y-68006367D01*
X140492498Y-68006367D02*
X140492498Y-68114117D01*
X140492498Y-68114117D02*
X140519436Y-68194929D01*
X140519436Y-68194929D02*
X140600248Y-68329616D01*
X140600248Y-68329616D02*
X140681060Y-68410428D01*
X140681060Y-68410428D02*
X140815747Y-68491241D01*
X140815747Y-68491241D02*
X140896560Y-68518178D01*
X140896560Y-68518178D02*
X141004309Y-68518178D01*
X141004309Y-68518178D02*
X141112059Y-68464303D01*
X141112059Y-68464303D02*
X141165934Y-68410428D01*
X141165934Y-68410428D02*
X141219808Y-68302679D01*
X141219808Y-68302679D02*
X141219808Y-68248804D01*
X141219808Y-68248804D02*
X141031247Y-68060242D01*
X141031247Y-68060242D02*
X140923497Y-68167992D01*
X141516120Y-68060242D02*
X140950434Y-67494557D01*
X140950434Y-67494557D02*
X141165934Y-67279057D01*
X141165934Y-67279057D02*
X141246746Y-67252120D01*
X141246746Y-67252120D02*
X141300621Y-67252120D01*
X141300621Y-67252120D02*
X141381433Y-67279057D01*
X141381433Y-67279057D02*
X141462245Y-67359870D01*
X141462245Y-67359870D02*
X141489182Y-67440682D01*
X141489182Y-67440682D02*
X141489182Y-67494557D01*
X141489182Y-67494557D02*
X141462245Y-67575369D01*
X141462245Y-67575369D02*
X141246746Y-67790868D01*
X141543057Y-67009683D02*
X141543057Y-66955809D01*
X141543057Y-66955809D02*
X141569995Y-66874996D01*
X141569995Y-66874996D02*
X141704682Y-66740309D01*
X141704682Y-66740309D02*
X141785494Y-66713372D01*
X141785494Y-66713372D02*
X141839369Y-66713372D01*
X141839369Y-66713372D02*
X141920181Y-66740309D01*
X141920181Y-66740309D02*
X141974056Y-66794184D01*
X141974056Y-66794184D02*
X142027930Y-66901934D01*
X142027930Y-66901934D02*
X142027930Y-67548431D01*
X142027930Y-67548431D02*
X142378117Y-67198245D01*
X142162618Y-66282373D02*
X142216492Y-66228499D01*
X142216492Y-66228499D02*
X142297305Y-66201561D01*
X142297305Y-66201561D02*
X142351179Y-66201561D01*
X142351179Y-66201561D02*
X142431992Y-66228499D01*
X142431992Y-66228499D02*
X142566679Y-66309311D01*
X142566679Y-66309311D02*
X142701366Y-66443998D01*
X142701366Y-66443998D02*
X142782178Y-66578685D01*
X142782178Y-66578685D02*
X142809115Y-66659497D01*
X142809115Y-66659497D02*
X142809115Y-66713372D01*
X142809115Y-66713372D02*
X142782178Y-66794184D01*
X142782178Y-66794184D02*
X142728303Y-66848059D01*
X142728303Y-66848059D02*
X142647491Y-66874996D01*
X142647491Y-66874996D02*
X142593616Y-66874996D01*
X142593616Y-66874996D02*
X142512804Y-66848059D01*
X142512804Y-66848059D02*
X142378117Y-66767247D01*
X142378117Y-66767247D02*
X142243430Y-66632560D01*
X142243430Y-66632560D02*
X142162618Y-66497873D01*
X142162618Y-66497873D02*
X142135680Y-66417060D01*
X142135680Y-66417060D02*
X142135680Y-66363186D01*
X142135680Y-66363186D02*
X142162618Y-66282373D01*
X140707998Y-70330868D02*
X140627185Y-70357805D01*
X140627185Y-70357805D02*
X140546373Y-70438618D01*
X140546373Y-70438618D02*
X140492498Y-70546367D01*
X140492498Y-70546367D02*
X140492498Y-70654117D01*
X140492498Y-70654117D02*
X140519436Y-70734929D01*
X140519436Y-70734929D02*
X140600248Y-70869616D01*
X140600248Y-70869616D02*
X140681060Y-70950428D01*
X140681060Y-70950428D02*
X140815747Y-71031241D01*
X140815747Y-71031241D02*
X140896560Y-71058178D01*
X140896560Y-71058178D02*
X141004309Y-71058178D01*
X141004309Y-71058178D02*
X141112059Y-71004303D01*
X141112059Y-71004303D02*
X141165934Y-70950428D01*
X141165934Y-70950428D02*
X141219808Y-70842679D01*
X141219808Y-70842679D02*
X141219808Y-70788804D01*
X141219808Y-70788804D02*
X141031247Y-70600242D01*
X141031247Y-70600242D02*
X140923497Y-70707992D01*
X141516120Y-70600242D02*
X140950434Y-70034557D01*
X140950434Y-70034557D02*
X141165934Y-69819057D01*
X141165934Y-69819057D02*
X141246746Y-69792120D01*
X141246746Y-69792120D02*
X141300621Y-69792120D01*
X141300621Y-69792120D02*
X141381433Y-69819057D01*
X141381433Y-69819057D02*
X141462245Y-69899870D01*
X141462245Y-69899870D02*
X141489182Y-69980682D01*
X141489182Y-69980682D02*
X141489182Y-70034557D01*
X141489182Y-70034557D02*
X141462245Y-70115369D01*
X141462245Y-70115369D02*
X141246746Y-70330868D01*
X142378117Y-69738245D02*
X142054868Y-70061494D01*
X142216492Y-69899870D02*
X141650807Y-69334184D01*
X141650807Y-69334184D02*
X141677744Y-69468871D01*
X141677744Y-69468871D02*
X141677744Y-69576621D01*
X141677744Y-69576621D02*
X141650807Y-69657433D01*
X142647491Y-69468871D02*
X142755240Y-69361121D01*
X142755240Y-69361121D02*
X142782178Y-69280309D01*
X142782178Y-69280309D02*
X142782178Y-69226434D01*
X142782178Y-69226434D02*
X142755240Y-69091747D01*
X142755240Y-69091747D02*
X142674428Y-68957060D01*
X142674428Y-68957060D02*
X142458929Y-68741561D01*
X142458929Y-68741561D02*
X142378117Y-68714624D01*
X142378117Y-68714624D02*
X142324242Y-68714624D01*
X142324242Y-68714624D02*
X142243430Y-68741561D01*
X142243430Y-68741561D02*
X142135680Y-68849311D01*
X142135680Y-68849311D02*
X142108743Y-68930123D01*
X142108743Y-68930123D02*
X142108743Y-68983998D01*
X142108743Y-68983998D02*
X142135680Y-69064810D01*
X142135680Y-69064810D02*
X142270367Y-69199497D01*
X142270367Y-69199497D02*
X142351179Y-69226434D01*
X142351179Y-69226434D02*
X142405054Y-69226434D01*
X142405054Y-69226434D02*
X142485866Y-69199497D01*
X142485866Y-69199497D02*
X142593616Y-69091747D01*
X142593616Y-69091747D02*
X142620553Y-69010935D01*
X142620553Y-69010935D02*
X142620553Y-68957060D01*
X142620553Y-68957060D02*
X142593616Y-68876248D01*
X140707998Y-72870868D02*
X140627185Y-72897805D01*
X140627185Y-72897805D02*
X140546373Y-72978618D01*
X140546373Y-72978618D02*
X140492498Y-73086367D01*
X140492498Y-73086367D02*
X140492498Y-73194117D01*
X140492498Y-73194117D02*
X140519436Y-73274929D01*
X140519436Y-73274929D02*
X140600248Y-73409616D01*
X140600248Y-73409616D02*
X140681060Y-73490428D01*
X140681060Y-73490428D02*
X140815747Y-73571241D01*
X140815747Y-73571241D02*
X140896560Y-73598178D01*
X140896560Y-73598178D02*
X141004309Y-73598178D01*
X141004309Y-73598178D02*
X141112059Y-73544303D01*
X141112059Y-73544303D02*
X141165934Y-73490428D01*
X141165934Y-73490428D02*
X141219808Y-73382679D01*
X141219808Y-73382679D02*
X141219808Y-73328804D01*
X141219808Y-73328804D02*
X141031247Y-73140242D01*
X141031247Y-73140242D02*
X140923497Y-73247992D01*
X141516120Y-73140242D02*
X140950434Y-72574557D01*
X140950434Y-72574557D02*
X141165934Y-72359057D01*
X141165934Y-72359057D02*
X141246746Y-72332120D01*
X141246746Y-72332120D02*
X141300621Y-72332120D01*
X141300621Y-72332120D02*
X141381433Y-72359057D01*
X141381433Y-72359057D02*
X141462245Y-72439870D01*
X141462245Y-72439870D02*
X141489182Y-72520682D01*
X141489182Y-72520682D02*
X141489182Y-72574557D01*
X141489182Y-72574557D02*
X141462245Y-72655369D01*
X141462245Y-72655369D02*
X141246746Y-72870868D01*
X142378117Y-72278245D02*
X142054868Y-72601494D01*
X142216492Y-72439870D02*
X141650807Y-71874184D01*
X141650807Y-71874184D02*
X141677744Y-72008871D01*
X141677744Y-72008871D02*
X141677744Y-72116621D01*
X141677744Y-72116621D02*
X141650807Y-72197433D01*
X142378117Y-71631747D02*
X142297305Y-71658685D01*
X142297305Y-71658685D02*
X142243430Y-71658685D01*
X142243430Y-71658685D02*
X142162618Y-71631747D01*
X142162618Y-71631747D02*
X142135680Y-71604810D01*
X142135680Y-71604810D02*
X142108743Y-71523998D01*
X142108743Y-71523998D02*
X142108743Y-71470123D01*
X142108743Y-71470123D02*
X142135680Y-71389311D01*
X142135680Y-71389311D02*
X142243430Y-71281561D01*
X142243430Y-71281561D02*
X142324242Y-71254624D01*
X142324242Y-71254624D02*
X142378117Y-71254624D01*
X142378117Y-71254624D02*
X142458929Y-71281561D01*
X142458929Y-71281561D02*
X142485866Y-71308499D01*
X142485866Y-71308499D02*
X142512804Y-71389311D01*
X142512804Y-71389311D02*
X142512804Y-71443186D01*
X142512804Y-71443186D02*
X142485866Y-71523998D01*
X142485866Y-71523998D02*
X142378117Y-71631747D01*
X142378117Y-71631747D02*
X142351179Y-71712560D01*
X142351179Y-71712560D02*
X142351179Y-71766434D01*
X142351179Y-71766434D02*
X142378117Y-71847247D01*
X142378117Y-71847247D02*
X142485866Y-71954996D01*
X142485866Y-71954996D02*
X142566679Y-71981934D01*
X142566679Y-71981934D02*
X142620553Y-71981934D01*
X142620553Y-71981934D02*
X142701366Y-71954996D01*
X142701366Y-71954996D02*
X142809115Y-71847247D01*
X142809115Y-71847247D02*
X142836053Y-71766434D01*
X142836053Y-71766434D02*
X142836053Y-71712560D01*
X142836053Y-71712560D02*
X142809115Y-71631747D01*
X142809115Y-71631747D02*
X142701366Y-71523998D01*
X142701366Y-71523998D02*
X142620553Y-71497060D01*
X142620553Y-71497060D02*
X142566679Y-71497060D01*
X142566679Y-71497060D02*
X142485866Y-71523998D01*
X140707998Y-77950868D02*
X140627185Y-77977805D01*
X140627185Y-77977805D02*
X140546373Y-78058618D01*
X140546373Y-78058618D02*
X140492498Y-78166367D01*
X140492498Y-78166367D02*
X140492498Y-78274117D01*
X140492498Y-78274117D02*
X140519436Y-78354929D01*
X140519436Y-78354929D02*
X140600248Y-78489616D01*
X140600248Y-78489616D02*
X140681060Y-78570428D01*
X140681060Y-78570428D02*
X140815747Y-78651241D01*
X140815747Y-78651241D02*
X140896560Y-78678178D01*
X140896560Y-78678178D02*
X141004309Y-78678178D01*
X141004309Y-78678178D02*
X141112059Y-78624303D01*
X141112059Y-78624303D02*
X141165934Y-78570428D01*
X141165934Y-78570428D02*
X141219808Y-78462679D01*
X141219808Y-78462679D02*
X141219808Y-78408804D01*
X141219808Y-78408804D02*
X141031247Y-78220242D01*
X141031247Y-78220242D02*
X140923497Y-78327992D01*
X141516120Y-78220242D02*
X140950434Y-77654557D01*
X140950434Y-77654557D02*
X141165934Y-77439057D01*
X141165934Y-77439057D02*
X141246746Y-77412120D01*
X141246746Y-77412120D02*
X141300621Y-77412120D01*
X141300621Y-77412120D02*
X141381433Y-77439057D01*
X141381433Y-77439057D02*
X141462245Y-77519870D01*
X141462245Y-77519870D02*
X141489182Y-77600682D01*
X141489182Y-77600682D02*
X141489182Y-77654557D01*
X141489182Y-77654557D02*
X141462245Y-77735369D01*
X141462245Y-77735369D02*
X141246746Y-77950868D01*
X142378117Y-77358245D02*
X142054868Y-77681494D01*
X142216492Y-77519870D02*
X141650807Y-76954184D01*
X141650807Y-76954184D02*
X141677744Y-77088871D01*
X141677744Y-77088871D02*
X141677744Y-77196621D01*
X141677744Y-77196621D02*
X141650807Y-77277433D01*
X142000993Y-76603998D02*
X142378117Y-76226874D01*
X142378117Y-76226874D02*
X142701366Y-77034996D01*
X140707998Y-80490868D02*
X140627185Y-80517805D01*
X140627185Y-80517805D02*
X140546373Y-80598618D01*
X140546373Y-80598618D02*
X140492498Y-80706367D01*
X140492498Y-80706367D02*
X140492498Y-80814117D01*
X140492498Y-80814117D02*
X140519436Y-80894929D01*
X140519436Y-80894929D02*
X140600248Y-81029616D01*
X140600248Y-81029616D02*
X140681060Y-81110428D01*
X140681060Y-81110428D02*
X140815747Y-81191241D01*
X140815747Y-81191241D02*
X140896560Y-81218178D01*
X140896560Y-81218178D02*
X141004309Y-81218178D01*
X141004309Y-81218178D02*
X141112059Y-81164303D01*
X141112059Y-81164303D02*
X141165934Y-81110428D01*
X141165934Y-81110428D02*
X141219808Y-81002679D01*
X141219808Y-81002679D02*
X141219808Y-80948804D01*
X141219808Y-80948804D02*
X141031247Y-80760242D01*
X141031247Y-80760242D02*
X140923497Y-80867992D01*
X141516120Y-80760242D02*
X140950434Y-80194557D01*
X140950434Y-80194557D02*
X141165934Y-79979057D01*
X141165934Y-79979057D02*
X141246746Y-79952120D01*
X141246746Y-79952120D02*
X141300621Y-79952120D01*
X141300621Y-79952120D02*
X141381433Y-79979057D01*
X141381433Y-79979057D02*
X141462245Y-80059870D01*
X141462245Y-80059870D02*
X141489182Y-80140682D01*
X141489182Y-80140682D02*
X141489182Y-80194557D01*
X141489182Y-80194557D02*
X141462245Y-80275369D01*
X141462245Y-80275369D02*
X141246746Y-80490868D01*
X142378117Y-79898245D02*
X142054868Y-80221494D01*
X142216492Y-80059870D02*
X141650807Y-79494184D01*
X141650807Y-79494184D02*
X141677744Y-79628871D01*
X141677744Y-79628871D02*
X141677744Y-79736621D01*
X141677744Y-79736621D02*
X141650807Y-79817433D01*
X142297305Y-78847686D02*
X142189555Y-78955436D01*
X142189555Y-78955436D02*
X142162618Y-79036248D01*
X142162618Y-79036248D02*
X142162618Y-79090123D01*
X142162618Y-79090123D02*
X142189555Y-79224810D01*
X142189555Y-79224810D02*
X142270367Y-79359497D01*
X142270367Y-79359497D02*
X142485866Y-79574996D01*
X142485866Y-79574996D02*
X142566679Y-79601934D01*
X142566679Y-79601934D02*
X142620553Y-79601934D01*
X142620553Y-79601934D02*
X142701366Y-79574996D01*
X142701366Y-79574996D02*
X142809115Y-79467247D01*
X142809115Y-79467247D02*
X142836053Y-79386434D01*
X142836053Y-79386434D02*
X142836053Y-79332560D01*
X142836053Y-79332560D02*
X142809115Y-79251747D01*
X142809115Y-79251747D02*
X142674428Y-79117060D01*
X142674428Y-79117060D02*
X142593616Y-79090123D01*
X142593616Y-79090123D02*
X142539741Y-79090123D01*
X142539741Y-79090123D02*
X142458929Y-79117060D01*
X142458929Y-79117060D02*
X142351179Y-79224810D01*
X142351179Y-79224810D02*
X142324242Y-79305622D01*
X142324242Y-79305622D02*
X142324242Y-79359497D01*
X142324242Y-79359497D02*
X142351179Y-79440309D01*
X140530749Y-35040242D02*
X141284996Y-35417366D01*
X141284996Y-35417366D02*
X140907873Y-34663118D01*
X141608245Y-35040242D02*
X141715995Y-34986367D01*
X141715995Y-34986367D02*
X141850682Y-34851680D01*
X141850682Y-34851680D02*
X141877619Y-34770868D01*
X141877619Y-34770868D02*
X141877619Y-34716993D01*
X141877619Y-34716993D02*
X141850682Y-34636181D01*
X141850682Y-34636181D02*
X141796807Y-34582306D01*
X141796807Y-34582306D02*
X141715995Y-34555369D01*
X141715995Y-34555369D02*
X141662120Y-34555369D01*
X141662120Y-34555369D02*
X141581308Y-34582306D01*
X141581308Y-34582306D02*
X141446621Y-34663118D01*
X141446621Y-34663118D02*
X141365808Y-34690056D01*
X141365808Y-34690056D02*
X141311934Y-34690056D01*
X141311934Y-34690056D02*
X141231121Y-34663118D01*
X141231121Y-34663118D02*
X141177247Y-34609244D01*
X141177247Y-34609244D02*
X141150309Y-34528431D01*
X141150309Y-34528431D02*
X141150309Y-34474557D01*
X141150309Y-34474557D02*
X141177247Y-34393744D01*
X141177247Y-34393744D02*
X141311934Y-34259057D01*
X141311934Y-34259057D02*
X141419683Y-34205183D01*
X142039244Y-34124370D02*
X142308618Y-34393744D01*
X141554370Y-34016621D02*
X142039244Y-34124370D01*
X142039244Y-34124370D02*
X141931494Y-33639497D01*
X142631866Y-34016621D02*
X142739616Y-33962746D01*
X142739616Y-33962746D02*
X142874303Y-33828059D01*
X142874303Y-33828059D02*
X142901240Y-33747247D01*
X142901240Y-33747247D02*
X142901240Y-33693372D01*
X142901240Y-33693372D02*
X142874303Y-33612560D01*
X142874303Y-33612560D02*
X142820428Y-33558685D01*
X142820428Y-33558685D02*
X142739616Y-33531748D01*
X142739616Y-33531748D02*
X142685741Y-33531748D01*
X142685741Y-33531748D02*
X142604929Y-33558685D01*
X142604929Y-33558685D02*
X142470242Y-33639497D01*
X142470242Y-33639497D02*
X142389430Y-33666435D01*
X142389430Y-33666435D02*
X142335555Y-33666435D01*
X142335555Y-33666435D02*
X142254743Y-33639497D01*
X142254743Y-33639497D02*
X142200868Y-33585622D01*
X142200868Y-33585622D02*
X142173930Y-33504810D01*
X142173930Y-33504810D02*
X142173930Y-33450935D01*
X142173930Y-33450935D02*
X142200868Y-33370123D01*
X142200868Y-33370123D02*
X142335555Y-33235436D01*
X142335555Y-33235436D02*
X142443304Y-33181561D01*
X140563406Y-32497585D02*
X141317653Y-32874709D01*
X141317653Y-32874709D02*
X140940529Y-32120462D01*
X141587027Y-32012712D02*
X141694776Y-31958838D01*
X141694776Y-31958838D02*
X141748651Y-31958838D01*
X141748651Y-31958838D02*
X141829463Y-31985775D01*
X141829463Y-31985775D02*
X141910276Y-32066587D01*
X141910276Y-32066587D02*
X141937213Y-32147399D01*
X141937213Y-32147399D02*
X141937213Y-32201274D01*
X141937213Y-32201274D02*
X141910276Y-32282086D01*
X141910276Y-32282086D02*
X141694776Y-32497586D01*
X141694776Y-32497586D02*
X141129091Y-31931900D01*
X141129091Y-31931900D02*
X141317653Y-31743338D01*
X141317653Y-31743338D02*
X141398465Y-31716401D01*
X141398465Y-31716401D02*
X141452340Y-31716401D01*
X141452340Y-31716401D02*
X141533152Y-31743338D01*
X141533152Y-31743338D02*
X141587027Y-31797213D01*
X141587027Y-31797213D02*
X141613964Y-31878025D01*
X141613964Y-31878025D02*
X141613964Y-31931900D01*
X141613964Y-31931900D02*
X141587027Y-32012712D01*
X141587027Y-32012712D02*
X141398465Y-32201274D01*
X141694776Y-31366215D02*
X142152712Y-31824151D01*
X142152712Y-31824151D02*
X142233524Y-31851088D01*
X142233524Y-31851088D02*
X142287399Y-31851088D01*
X142287399Y-31851088D02*
X142368211Y-31824151D01*
X142368211Y-31824151D02*
X142475961Y-31716401D01*
X142475961Y-31716401D02*
X142502898Y-31635589D01*
X142502898Y-31635589D02*
X142502898Y-31581714D01*
X142502898Y-31581714D02*
X142475961Y-31500902D01*
X142475961Y-31500902D02*
X142018025Y-31042966D01*
X142799210Y-31339277D02*
X142906959Y-31285403D01*
X142906959Y-31285403D02*
X143041646Y-31150716D01*
X143041646Y-31150716D02*
X143068584Y-31069903D01*
X143068584Y-31069903D02*
X143068584Y-31016029D01*
X143068584Y-31016029D02*
X143041646Y-30935216D01*
X143041646Y-30935216D02*
X142987771Y-30881342D01*
X142987771Y-30881342D02*
X142906959Y-30854404D01*
X142906959Y-30854404D02*
X142853084Y-30854404D01*
X142853084Y-30854404D02*
X142772272Y-30881342D01*
X142772272Y-30881342D02*
X142637585Y-30962154D01*
X142637585Y-30962154D02*
X142556773Y-30989091D01*
X142556773Y-30989091D02*
X142502898Y-30989091D01*
X142502898Y-30989091D02*
X142422086Y-30962154D01*
X142422086Y-30962154D02*
X142368211Y-30908279D01*
X142368211Y-30908279D02*
X142341274Y-30827467D01*
X142341274Y-30827467D02*
X142341274Y-30773592D01*
X142341274Y-30773592D02*
X142368211Y-30692780D01*
X142368211Y-30692780D02*
X142502898Y-30558093D01*
X142502898Y-30558093D02*
X142610648Y-30504218D01*
X140532407Y-39928584D02*
X140882593Y-39578398D01*
X140882593Y-39578398D02*
X140909531Y-39982459D01*
X140909531Y-39982459D02*
X140990343Y-39901646D01*
X140990343Y-39901646D02*
X141071155Y-39874709D01*
X141071155Y-39874709D02*
X141125030Y-39874709D01*
X141125030Y-39874709D02*
X141205842Y-39901646D01*
X141205842Y-39901646D02*
X141340529Y-40036333D01*
X141340529Y-40036333D02*
X141367467Y-40117146D01*
X141367467Y-40117146D02*
X141367467Y-40171020D01*
X141367467Y-40171020D02*
X141340529Y-40251833D01*
X141340529Y-40251833D02*
X141178905Y-40413457D01*
X141178905Y-40413457D02*
X141098093Y-40440394D01*
X141098093Y-40440394D02*
X141044218Y-40440394D01*
X141044218Y-39416773D02*
X141798465Y-39793897D01*
X141798465Y-39793897D02*
X141421342Y-39039649D01*
X141556028Y-38904963D02*
X141906215Y-38554776D01*
X141906215Y-38554776D02*
X141933152Y-38958837D01*
X141933152Y-38958837D02*
X142013964Y-38878025D01*
X142013964Y-38878025D02*
X142094776Y-38851088D01*
X142094776Y-38851088D02*
X142148651Y-38851088D01*
X142148651Y-38851088D02*
X142229464Y-38878025D01*
X142229464Y-38878025D02*
X142364151Y-39012712D01*
X142364151Y-39012712D02*
X142391088Y-39093524D01*
X142391088Y-39093524D02*
X142391088Y-39147399D01*
X142391088Y-39147399D02*
X142364151Y-39228211D01*
X142364151Y-39228211D02*
X142202526Y-39389836D01*
X142202526Y-39389836D02*
X142121714Y-39416773D01*
X142121714Y-39416773D02*
X142067839Y-39416773D01*
X142633525Y-39066587D02*
X143064523Y-38635588D01*
X142849024Y-38150715D02*
X143037586Y-37962153D01*
X143414709Y-38177652D02*
X143145335Y-38447026D01*
X143145335Y-38447026D02*
X142579650Y-37881341D01*
X142579650Y-37881341D02*
X142849024Y-37611967D01*
X143657146Y-37935215D02*
X143091461Y-37369530D01*
X143091461Y-37369530D02*
X143980395Y-37611967D01*
X143980395Y-37611967D02*
X143414710Y-37046281D01*
X140765064Y-45504049D02*
X141034438Y-45234675D01*
X140872813Y-45719549D02*
X140495690Y-44965301D01*
X140495690Y-44965301D02*
X141249937Y-45342425D01*
X141438499Y-45153863D02*
X140872813Y-44588178D01*
X140872813Y-44588178D02*
X141007500Y-44453491D01*
X141007500Y-44453491D02*
X141115250Y-44399616D01*
X141115250Y-44399616D02*
X141222999Y-44399616D01*
X141222999Y-44399616D02*
X141303812Y-44426553D01*
X141303812Y-44426553D02*
X141438499Y-44507366D01*
X141438499Y-44507366D02*
X141519311Y-44588178D01*
X141519311Y-44588178D02*
X141600123Y-44722865D01*
X141600123Y-44722865D02*
X141627060Y-44803677D01*
X141627060Y-44803677D02*
X141627060Y-44911427D01*
X141627060Y-44911427D02*
X141573186Y-45019176D01*
X141573186Y-45019176D02*
X141438499Y-45153863D01*
X142273558Y-44211054D02*
X142273558Y-44264929D01*
X142273558Y-44264929D02*
X142219683Y-44372679D01*
X142219683Y-44372679D02*
X142165808Y-44426553D01*
X142165808Y-44426553D02*
X142058059Y-44480428D01*
X142058059Y-44480428D02*
X141950309Y-44480428D01*
X141950309Y-44480428D02*
X141869497Y-44453491D01*
X141869497Y-44453491D02*
X141734810Y-44372679D01*
X141734810Y-44372679D02*
X141653998Y-44291866D01*
X141653998Y-44291866D02*
X141573186Y-44157179D01*
X141573186Y-44157179D02*
X141546248Y-44076367D01*
X141546248Y-44076367D02*
X141546248Y-43968618D01*
X141546248Y-43968618D02*
X141600123Y-43860868D01*
X141600123Y-43860868D02*
X141653998Y-43806993D01*
X141653998Y-43806993D02*
X141761747Y-43753118D01*
X141761747Y-43753118D02*
X141815622Y-43753118D01*
X142489057Y-44211054D02*
X142920056Y-43780056D01*
X142354370Y-43106621D02*
X143108618Y-43483744D01*
X143108618Y-43483744D02*
X142731494Y-42729497D01*
X143808990Y-42783372D02*
X143351054Y-42702560D01*
X143485741Y-43106621D02*
X142920056Y-42540935D01*
X142920056Y-42540935D02*
X143135555Y-42325436D01*
X143135555Y-42325436D02*
X143216367Y-42298499D01*
X143216367Y-42298499D02*
X143270242Y-42298499D01*
X143270242Y-42298499D02*
X143351054Y-42325436D01*
X143351054Y-42325436D02*
X143431866Y-42406248D01*
X143431866Y-42406248D02*
X143458804Y-42487061D01*
X143458804Y-42487061D02*
X143458804Y-42540935D01*
X143458804Y-42540935D02*
X143431866Y-42621748D01*
X143431866Y-42621748D02*
X143216367Y-42837247D01*
X143755115Y-42244624D02*
X143943677Y-42056062D01*
X144320800Y-42271561D02*
X144051426Y-42540935D01*
X144051426Y-42540935D02*
X143485741Y-41975250D01*
X143485741Y-41975250D02*
X143755115Y-41705876D01*
X144455488Y-41544251D02*
X144266926Y-41732813D01*
X144563237Y-42029125D02*
X143997552Y-41463439D01*
X143997552Y-41463439D02*
X144266926Y-41194065D01*
X158659580Y-65436666D02*
X158707200Y-65484285D01*
X158707200Y-65484285D02*
X158754819Y-65627142D01*
X158754819Y-65627142D02*
X158754819Y-65722380D01*
X158754819Y-65722380D02*
X158707200Y-65865237D01*
X158707200Y-65865237D02*
X158611961Y-65960475D01*
X158611961Y-65960475D02*
X158516723Y-66008094D01*
X158516723Y-66008094D02*
X158326247Y-66055713D01*
X158326247Y-66055713D02*
X158183390Y-66055713D01*
X158183390Y-66055713D02*
X157992914Y-66008094D01*
X157992914Y-66008094D02*
X157897676Y-65960475D01*
X157897676Y-65960475D02*
X157802438Y-65865237D01*
X157802438Y-65865237D02*
X157754819Y-65722380D01*
X157754819Y-65722380D02*
X157754819Y-65627142D01*
X157754819Y-65627142D02*
X157802438Y-65484285D01*
X157802438Y-65484285D02*
X157850057Y-65436666D01*
X157850057Y-65055713D02*
X157802438Y-65008094D01*
X157802438Y-65008094D02*
X157754819Y-64912856D01*
X157754819Y-64912856D02*
X157754819Y-64674761D01*
X157754819Y-64674761D02*
X157802438Y-64579523D01*
X157802438Y-64579523D02*
X157850057Y-64531904D01*
X157850057Y-64531904D02*
X157945295Y-64484285D01*
X157945295Y-64484285D02*
X158040533Y-64484285D01*
X158040533Y-64484285D02*
X158183390Y-64531904D01*
X158183390Y-64531904D02*
X158754819Y-65103332D01*
X158754819Y-65103332D02*
X158754819Y-64484285D01*
X151666666Y-34431009D02*
X151333333Y-34431009D01*
X151333333Y-34954819D02*
X151333333Y-33954819D01*
X151333333Y-33954819D02*
X151809523Y-33954819D01*
X152523809Y-34431009D02*
X152666666Y-34478628D01*
X152666666Y-34478628D02*
X152714285Y-34526247D01*
X152714285Y-34526247D02*
X152761904Y-34621485D01*
X152761904Y-34621485D02*
X152761904Y-34764342D01*
X152761904Y-34764342D02*
X152714285Y-34859580D01*
X152714285Y-34859580D02*
X152666666Y-34907200D01*
X152666666Y-34907200D02*
X152571428Y-34954819D01*
X152571428Y-34954819D02*
X152190476Y-34954819D01*
X152190476Y-34954819D02*
X152190476Y-33954819D01*
X152190476Y-33954819D02*
X152523809Y-33954819D01*
X152523809Y-33954819D02*
X152619047Y-34002438D01*
X152619047Y-34002438D02*
X152666666Y-34050057D01*
X152666666Y-34050057D02*
X152714285Y-34145295D01*
X152714285Y-34145295D02*
X152714285Y-34240533D01*
X152714285Y-34240533D02*
X152666666Y-34335771D01*
X152666666Y-34335771D02*
X152619047Y-34383390D01*
X152619047Y-34383390D02*
X152523809Y-34431009D01*
X152523809Y-34431009D02*
X152190476Y-34431009D01*
X153714285Y-34954819D02*
X153142857Y-34954819D01*
X153428571Y-34954819D02*
X153428571Y-33954819D01*
X153428571Y-33954819D02*
X153333333Y-34097676D01*
X153333333Y-34097676D02*
X153238095Y-34192914D01*
X153238095Y-34192914D02*
X153142857Y-34240533D01*
X178666667Y-80752200D02*
X178809524Y-80799819D01*
X178809524Y-80799819D02*
X179047619Y-80799819D01*
X179047619Y-80799819D02*
X179142857Y-80752200D01*
X179142857Y-80752200D02*
X179190476Y-80704580D01*
X179190476Y-80704580D02*
X179238095Y-80609342D01*
X179238095Y-80609342D02*
X179238095Y-80514104D01*
X179238095Y-80514104D02*
X179190476Y-80418866D01*
X179190476Y-80418866D02*
X179142857Y-80371247D01*
X179142857Y-80371247D02*
X179047619Y-80323628D01*
X179047619Y-80323628D02*
X178857143Y-80276009D01*
X178857143Y-80276009D02*
X178761905Y-80228390D01*
X178761905Y-80228390D02*
X178714286Y-80180771D01*
X178714286Y-80180771D02*
X178666667Y-80085533D01*
X178666667Y-80085533D02*
X178666667Y-79990295D01*
X178666667Y-79990295D02*
X178714286Y-79895057D01*
X178714286Y-79895057D02*
X178761905Y-79847438D01*
X178761905Y-79847438D02*
X178857143Y-79799819D01*
X178857143Y-79799819D02*
X179095238Y-79799819D01*
X179095238Y-79799819D02*
X179238095Y-79847438D01*
X179571429Y-79799819D02*
X179809524Y-80799819D01*
X179809524Y-80799819D02*
X180000000Y-80085533D01*
X180000000Y-80085533D02*
X180190476Y-80799819D01*
X180190476Y-80799819D02*
X180428572Y-79799819D01*
X181238095Y-80133152D02*
X181238095Y-80799819D01*
X181000000Y-79752200D02*
X180761905Y-80466485D01*
X180761905Y-80466485D02*
X181380952Y-80466485D01*
X213668095Y-80154819D02*
X213668095Y-79154819D01*
X213668095Y-79631009D02*
X214239523Y-79631009D01*
X214239523Y-80154819D02*
X214239523Y-79154819D01*
X214620476Y-79154819D02*
X215239523Y-79154819D01*
X215239523Y-79154819D02*
X214906190Y-79535771D01*
X214906190Y-79535771D02*
X215049047Y-79535771D01*
X215049047Y-79535771D02*
X215144285Y-79583390D01*
X215144285Y-79583390D02*
X215191904Y-79631009D01*
X215191904Y-79631009D02*
X215239523Y-79726247D01*
X215239523Y-79726247D02*
X215239523Y-79964342D01*
X215239523Y-79964342D02*
X215191904Y-80059580D01*
X215191904Y-80059580D02*
X215144285Y-80107200D01*
X215144285Y-80107200D02*
X215049047Y-80154819D01*
X215049047Y-80154819D02*
X214763333Y-80154819D01*
X214763333Y-80154819D02*
X214668095Y-80107200D01*
X214668095Y-80107200D02*
X214620476Y-80059580D01*
X152627142Y-53659580D02*
X152579523Y-53707200D01*
X152579523Y-53707200D02*
X152436666Y-53754819D01*
X152436666Y-53754819D02*
X152341428Y-53754819D01*
X152341428Y-53754819D02*
X152198571Y-53707200D01*
X152198571Y-53707200D02*
X152103333Y-53611961D01*
X152103333Y-53611961D02*
X152055714Y-53516723D01*
X152055714Y-53516723D02*
X152008095Y-53326247D01*
X152008095Y-53326247D02*
X152008095Y-53183390D01*
X152008095Y-53183390D02*
X152055714Y-52992914D01*
X152055714Y-52992914D02*
X152103333Y-52897676D01*
X152103333Y-52897676D02*
X152198571Y-52802438D01*
X152198571Y-52802438D02*
X152341428Y-52754819D01*
X152341428Y-52754819D02*
X152436666Y-52754819D01*
X152436666Y-52754819D02*
X152579523Y-52802438D01*
X152579523Y-52802438D02*
X152627142Y-52850057D01*
X153579523Y-53754819D02*
X153008095Y-53754819D01*
X153293809Y-53754819D02*
X153293809Y-52754819D01*
X153293809Y-52754819D02*
X153198571Y-52897676D01*
X153198571Y-52897676D02*
X153103333Y-52992914D01*
X153103333Y-52992914D02*
X153008095Y-53040533D01*
X154484285Y-52754819D02*
X154008095Y-52754819D01*
X154008095Y-52754819D02*
X153960476Y-53231009D01*
X153960476Y-53231009D02*
X154008095Y-53183390D01*
X154008095Y-53183390D02*
X154103333Y-53135771D01*
X154103333Y-53135771D02*
X154341428Y-53135771D01*
X154341428Y-53135771D02*
X154436666Y-53183390D01*
X154436666Y-53183390D02*
X154484285Y-53231009D01*
X154484285Y-53231009D02*
X154531904Y-53326247D01*
X154531904Y-53326247D02*
X154531904Y-53564342D01*
X154531904Y-53564342D02*
X154484285Y-53659580D01*
X154484285Y-53659580D02*
X154436666Y-53707200D01*
X154436666Y-53707200D02*
X154341428Y-53754819D01*
X154341428Y-53754819D02*
X154103333Y-53754819D01*
X154103333Y-53754819D02*
X154008095Y-53707200D01*
X154008095Y-53707200D02*
X153960476Y-53659580D01*
X177154819Y-73166666D02*
X176678628Y-73499999D01*
X177154819Y-73738094D02*
X176154819Y-73738094D01*
X176154819Y-73738094D02*
X176154819Y-73357142D01*
X176154819Y-73357142D02*
X176202438Y-73261904D01*
X176202438Y-73261904D02*
X176250057Y-73214285D01*
X176250057Y-73214285D02*
X176345295Y-73166666D01*
X176345295Y-73166666D02*
X176488152Y-73166666D01*
X176488152Y-73166666D02*
X176583390Y-73214285D01*
X176583390Y-73214285D02*
X176631009Y-73261904D01*
X176631009Y-73261904D02*
X176678628Y-73357142D01*
X176678628Y-73357142D02*
X176678628Y-73738094D01*
X176154819Y-72833332D02*
X176154819Y-72214285D01*
X176154819Y-72214285D02*
X176535771Y-72547618D01*
X176535771Y-72547618D02*
X176535771Y-72404761D01*
X176535771Y-72404761D02*
X176583390Y-72309523D01*
X176583390Y-72309523D02*
X176631009Y-72261904D01*
X176631009Y-72261904D02*
X176726247Y-72214285D01*
X176726247Y-72214285D02*
X176964342Y-72214285D01*
X176964342Y-72214285D02*
X177059580Y-72261904D01*
X177059580Y-72261904D02*
X177107200Y-72309523D01*
X177107200Y-72309523D02*
X177154819Y-72404761D01*
X177154819Y-72404761D02*
X177154819Y-72690475D01*
X177154819Y-72690475D02*
X177107200Y-72785713D01*
X177107200Y-72785713D02*
X177059580Y-72833332D01*
X194654819Y-59142857D02*
X194178628Y-59476190D01*
X194654819Y-59714285D02*
X193654819Y-59714285D01*
X193654819Y-59714285D02*
X193654819Y-59333333D01*
X193654819Y-59333333D02*
X193702438Y-59238095D01*
X193702438Y-59238095D02*
X193750057Y-59190476D01*
X193750057Y-59190476D02*
X193845295Y-59142857D01*
X193845295Y-59142857D02*
X193988152Y-59142857D01*
X193988152Y-59142857D02*
X194083390Y-59190476D01*
X194083390Y-59190476D02*
X194131009Y-59238095D01*
X194131009Y-59238095D02*
X194178628Y-59333333D01*
X194178628Y-59333333D02*
X194178628Y-59714285D01*
X194654819Y-58190476D02*
X194654819Y-58761904D01*
X194654819Y-58476190D02*
X193654819Y-58476190D01*
X193654819Y-58476190D02*
X193797676Y-58571428D01*
X193797676Y-58571428D02*
X193892914Y-58666666D01*
X193892914Y-58666666D02*
X193940533Y-58761904D01*
X194654819Y-57238095D02*
X194654819Y-57809523D01*
X194654819Y-57523809D02*
X193654819Y-57523809D01*
X193654819Y-57523809D02*
X193797676Y-57619047D01*
X193797676Y-57619047D02*
X193892914Y-57714285D01*
X193892914Y-57714285D02*
X193940533Y-57809523D01*
X150486666Y-39431009D02*
X150153333Y-39431009D01*
X150153333Y-39954819D02*
X150153333Y-38954819D01*
X150153333Y-38954819D02*
X150629523Y-38954819D01*
X151343809Y-39431009D02*
X151486666Y-39478628D01*
X151486666Y-39478628D02*
X151534285Y-39526247D01*
X151534285Y-39526247D02*
X151581904Y-39621485D01*
X151581904Y-39621485D02*
X151581904Y-39764342D01*
X151581904Y-39764342D02*
X151534285Y-39859580D01*
X151534285Y-39859580D02*
X151486666Y-39907200D01*
X151486666Y-39907200D02*
X151391428Y-39954819D01*
X151391428Y-39954819D02*
X151010476Y-39954819D01*
X151010476Y-39954819D02*
X151010476Y-38954819D01*
X151010476Y-38954819D02*
X151343809Y-38954819D01*
X151343809Y-38954819D02*
X151439047Y-39002438D01*
X151439047Y-39002438D02*
X151486666Y-39050057D01*
X151486666Y-39050057D02*
X151534285Y-39145295D01*
X151534285Y-39145295D02*
X151534285Y-39240533D01*
X151534285Y-39240533D02*
X151486666Y-39335771D01*
X151486666Y-39335771D02*
X151439047Y-39383390D01*
X151439047Y-39383390D02*
X151343809Y-39431009D01*
X151343809Y-39431009D02*
X151010476Y-39431009D01*
X151962857Y-39050057D02*
X152010476Y-39002438D01*
X152010476Y-39002438D02*
X152105714Y-38954819D01*
X152105714Y-38954819D02*
X152343809Y-38954819D01*
X152343809Y-38954819D02*
X152439047Y-39002438D01*
X152439047Y-39002438D02*
X152486666Y-39050057D01*
X152486666Y-39050057D02*
X152534285Y-39145295D01*
X152534285Y-39145295D02*
X152534285Y-39240533D01*
X152534285Y-39240533D02*
X152486666Y-39383390D01*
X152486666Y-39383390D02*
X151915238Y-39954819D01*
X151915238Y-39954819D02*
X152534285Y-39954819D01*
%TO.C,J1*%
D12*
X216580000Y-46880000D02*
X216580000Y-45500000D01*
X217960000Y-46880000D02*
X216580000Y-46880000D01*
X219230000Y-44120000D02*
X224420000Y-44120000D01*
X219230000Y-46880000D02*
X219230000Y-44120000D01*
X219230000Y-46880000D02*
X224420000Y-46880000D01*
X224420000Y-46880000D02*
X224420000Y-44120000D01*
%TO.C,RV1*%
X185620000Y-70080000D02*
X187000000Y-70080000D01*
X185620000Y-71460000D02*
X185620000Y-70080000D01*
X185620000Y-72730000D02*
X185620000Y-77920000D01*
X185620000Y-72730000D02*
X188380000Y-72730000D01*
X185620000Y-77920000D02*
X188380000Y-77920000D01*
X188380000Y-72730000D02*
X188380000Y-77920000D01*
%TO.C,J5*%
X109120000Y-84270000D02*
X109120000Y-79080000D01*
X111880000Y-79080000D02*
X109120000Y-79080000D01*
X111880000Y-84270000D02*
X109120000Y-84270000D01*
X111880000Y-84270000D02*
X111880000Y-79080000D01*
X111880000Y-85540000D02*
X111880000Y-86920000D01*
X111880000Y-86920000D02*
X110500000Y-86920000D01*
%TO.C,SW2*%
X190620000Y-66540000D02*
X192000000Y-66540000D01*
X190620000Y-67920000D02*
X190620000Y-66540000D01*
X190620000Y-69190000D02*
X190620000Y-79460000D01*
X190620000Y-69190000D02*
X193380000Y-69190000D01*
X190620000Y-79460000D02*
X193380000Y-79460000D01*
X193380000Y-69190000D02*
X193380000Y-79460000D01*
%TO.C,U4*%
X161750000Y-50860000D02*
X161750000Y-61140000D01*
X161750000Y-61140000D02*
X166250000Y-61140000D01*
X163000000Y-50860000D02*
X161750000Y-50860000D01*
X166250000Y-50860000D02*
X165000000Y-50860000D01*
X166250000Y-61140000D02*
X166250000Y-50860000D01*
X165000000Y-50860000D02*
G75*
G02*
X163000000Y-50860000I-1000000J0D01*
G01*
%TO.C,e1*%
X208145000Y-30550000D02*
X208145000Y-33450000D01*
X210050000Y-28645000D02*
X212950000Y-28645000D01*
X210050000Y-35355000D02*
X212950000Y-35355000D01*
X214855000Y-30550000D02*
X214855000Y-33450000D01*
%TO.C,C1*%
X146340302Y-76185000D02*
X147140302Y-76185000D01*
X146740302Y-75785000D02*
X146740302Y-76585000D01*
X150750000Y-74420000D02*
X150750000Y-82580000D01*
X150790000Y-74420000D02*
X150790000Y-82580000D01*
X150830000Y-74421000D02*
X150830000Y-82579000D01*
X150870000Y-74422000D02*
X150870000Y-82578000D01*
X150910000Y-74423000D02*
X150910000Y-82577000D01*
X150950000Y-74425000D02*
X150950000Y-82575000D01*
X150990000Y-74427000D02*
X150990000Y-77460000D01*
X150990000Y-79540000D02*
X150990000Y-82573000D01*
X151030000Y-74430000D02*
X151030000Y-77460000D01*
X151030000Y-79540000D02*
X151030000Y-82570000D01*
X151070000Y-74432000D02*
X151070000Y-77460000D01*
X151070000Y-79540000D02*
X151070000Y-82568000D01*
X151110000Y-74436000D02*
X151110000Y-77460000D01*
X151110000Y-79540000D02*
X151110000Y-82564000D01*
X151150000Y-74439000D02*
X151150000Y-77460000D01*
X151150000Y-79540000D02*
X151150000Y-82561000D01*
X151190000Y-74444000D02*
X151190000Y-77460000D01*
X151190000Y-79540000D02*
X151190000Y-82556000D01*
X151230000Y-74448000D02*
X151230000Y-77460000D01*
X151230000Y-79540000D02*
X151230000Y-82552000D01*
X151270000Y-74453000D02*
X151270000Y-77460000D01*
X151270000Y-79540000D02*
X151270000Y-82547000D01*
X151310000Y-74458000D02*
X151310000Y-77460000D01*
X151310000Y-79540000D02*
X151310000Y-82542000D01*
X151350000Y-74464000D02*
X151350000Y-77460000D01*
X151350000Y-79540000D02*
X151350000Y-82536000D01*
X151390000Y-74470000D02*
X151390000Y-77460000D01*
X151390000Y-79540000D02*
X151390000Y-82530000D01*
X151430000Y-74477000D02*
X151430000Y-77460000D01*
X151430000Y-79540000D02*
X151430000Y-82523000D01*
X151470000Y-74483000D02*
X151470000Y-77460000D01*
X151470000Y-79540000D02*
X151470000Y-82517000D01*
X151510000Y-74491000D02*
X151510000Y-77460000D01*
X151510000Y-79540000D02*
X151510000Y-82509000D01*
X151550000Y-74498000D02*
X151550000Y-77460000D01*
X151550000Y-79540000D02*
X151550000Y-82502000D01*
X151590000Y-74507000D02*
X151590000Y-77460000D01*
X151590000Y-79540000D02*
X151590000Y-82493000D01*
X151630000Y-74515000D02*
X151630000Y-77460000D01*
X151630000Y-79540000D02*
X151630000Y-82485000D01*
X151670000Y-74524000D02*
X151670000Y-77460000D01*
X151670000Y-79540000D02*
X151670000Y-82476000D01*
X151710000Y-74533000D02*
X151710000Y-77460000D01*
X151710000Y-79540000D02*
X151710000Y-82467000D01*
X151750000Y-74543000D02*
X151750000Y-77460000D01*
X151750000Y-79540000D02*
X151750000Y-82457000D01*
X151790000Y-74553000D02*
X151790000Y-77460000D01*
X151790000Y-79540000D02*
X151790000Y-82447000D01*
X151830000Y-74564000D02*
X151830000Y-77460000D01*
X151830000Y-79540000D02*
X151830000Y-82436000D01*
X151870000Y-74575000D02*
X151870000Y-77460000D01*
X151870000Y-79540000D02*
X151870000Y-82425000D01*
X151910000Y-74587000D02*
X151910000Y-77460000D01*
X151910000Y-79540000D02*
X151910000Y-82413000D01*
X151950000Y-74599000D02*
X151950000Y-77460000D01*
X151950000Y-79540000D02*
X151950000Y-82401000D01*
X151990000Y-74611000D02*
X151990000Y-77460000D01*
X151990000Y-79540000D02*
X151990000Y-82389000D01*
X152030000Y-74624000D02*
X152030000Y-77460000D01*
X152030000Y-79540000D02*
X152030000Y-82376000D01*
X152070000Y-74637000D02*
X152070000Y-77460000D01*
X152070000Y-79540000D02*
X152070000Y-82363000D01*
X152110000Y-74651000D02*
X152110000Y-77460000D01*
X152110000Y-79540000D02*
X152110000Y-82349000D01*
X152150000Y-74665000D02*
X152150000Y-77460000D01*
X152150000Y-79540000D02*
X152150000Y-82335000D01*
X152190000Y-74680000D02*
X152190000Y-77460000D01*
X152190000Y-79540000D02*
X152190000Y-82320000D01*
X152230000Y-74695000D02*
X152230000Y-77460000D01*
X152230000Y-79540000D02*
X152230000Y-82305000D01*
X152270000Y-74711000D02*
X152270000Y-77460000D01*
X152270000Y-79540000D02*
X152270000Y-82289000D01*
X152310000Y-74727000D02*
X152310000Y-77460000D01*
X152310000Y-79540000D02*
X152310000Y-82273000D01*
X152350000Y-74743000D02*
X152350000Y-77460000D01*
X152350000Y-79540000D02*
X152350000Y-82257000D01*
X152390000Y-74760000D02*
X152390000Y-77460000D01*
X152390000Y-79540000D02*
X152390000Y-82240000D01*
X152430000Y-74778000D02*
X152430000Y-77460000D01*
X152430000Y-79540000D02*
X152430000Y-82222000D01*
X152470000Y-74796000D02*
X152470000Y-77460000D01*
X152470000Y-79540000D02*
X152470000Y-82204000D01*
X152510000Y-74815000D02*
X152510000Y-77460000D01*
X152510000Y-79540000D02*
X152510000Y-82185000D01*
X152550000Y-74834000D02*
X152550000Y-77460000D01*
X152550000Y-79540000D02*
X152550000Y-82166000D01*
X152590000Y-74854000D02*
X152590000Y-77460000D01*
X152590000Y-79540000D02*
X152590000Y-82146000D01*
X152630000Y-74874000D02*
X152630000Y-77460000D01*
X152630000Y-79540000D02*
X152630000Y-82126000D01*
X152670000Y-74895000D02*
X152670000Y-77460000D01*
X152670000Y-79540000D02*
X152670000Y-82105000D01*
X152710000Y-74916000D02*
X152710000Y-77460000D01*
X152710000Y-79540000D02*
X152710000Y-82084000D01*
X152750000Y-74938000D02*
X152750000Y-77460000D01*
X152750000Y-79540000D02*
X152750000Y-82062000D01*
X152790000Y-74961000D02*
X152790000Y-77460000D01*
X152790000Y-79540000D02*
X152790000Y-82039000D01*
X152830000Y-74984000D02*
X152830000Y-77460000D01*
X152830000Y-79540000D02*
X152830000Y-82016000D01*
X152870000Y-75007000D02*
X152870000Y-77460000D01*
X152870000Y-79540000D02*
X152870000Y-81993000D01*
X152910000Y-75032000D02*
X152910000Y-77460000D01*
X152910000Y-79540000D02*
X152910000Y-81968000D01*
X152950000Y-75057000D02*
X152950000Y-77460000D01*
X152950000Y-79540000D02*
X152950000Y-81943000D01*
X152990000Y-75082000D02*
X152990000Y-77460000D01*
X152990000Y-79540000D02*
X152990000Y-81918000D01*
X153030000Y-75108000D02*
X153030000Y-77460000D01*
X153030000Y-79540000D02*
X153030000Y-81892000D01*
X153070000Y-75135000D02*
X153070000Y-81865000D01*
X153110000Y-75163000D02*
X153110000Y-81837000D01*
X153150000Y-75191000D02*
X153150000Y-81809000D01*
X153190000Y-75220000D02*
X153190000Y-81780000D01*
X153230000Y-75250000D02*
X153230000Y-81750000D01*
X153270000Y-75281000D02*
X153270000Y-81719000D01*
X153310000Y-75312000D02*
X153310000Y-81688000D01*
X153350000Y-75344000D02*
X153350000Y-81656000D01*
X153390000Y-75377000D02*
X153390000Y-81623000D01*
X153430000Y-75411000D02*
X153430000Y-81589000D01*
X153470000Y-75445000D02*
X153470000Y-81555000D01*
X153510000Y-75481000D02*
X153510000Y-81519000D01*
X153550000Y-75518000D02*
X153550000Y-81482000D01*
X153590000Y-75555000D02*
X153590000Y-81445000D01*
X153630000Y-75594000D02*
X153630000Y-81406000D01*
X153670000Y-75633000D02*
X153670000Y-81367000D01*
X153710000Y-75674000D02*
X153710000Y-81326000D01*
X153750000Y-75716000D02*
X153750000Y-81284000D01*
X153790000Y-75759000D02*
X153790000Y-81241000D01*
X153830000Y-75804000D02*
X153830000Y-81196000D01*
X153870000Y-75849000D02*
X153870000Y-81151000D01*
X153910000Y-75896000D02*
X153910000Y-81104000D01*
X153950000Y-75945000D02*
X153950000Y-81055000D01*
X153990000Y-75995000D02*
X153990000Y-81005000D01*
X154030000Y-76047000D02*
X154030000Y-80953000D01*
X154070000Y-76100000D02*
X154070000Y-80900000D01*
X154110000Y-76156000D02*
X154110000Y-80844000D01*
X154150000Y-76213000D02*
X154150000Y-80787000D01*
X154190000Y-76273000D02*
X154190000Y-80727000D01*
X154230000Y-76335000D02*
X154230000Y-80665000D01*
X154270000Y-76399000D02*
X154270000Y-80601000D01*
X154310000Y-76466000D02*
X154310000Y-80534000D01*
X154350000Y-76536000D02*
X154350000Y-80464000D01*
X154390000Y-76610000D02*
X154390000Y-80390000D01*
X154430000Y-76687000D02*
X154430000Y-80313000D01*
X154470000Y-76769000D02*
X154470000Y-80231000D01*
X154510000Y-76856000D02*
X154510000Y-80144000D01*
X154550000Y-76948000D02*
X154550000Y-80052000D01*
X154590000Y-77047000D02*
X154590000Y-79953000D01*
X154630000Y-77154000D02*
X154630000Y-79846000D01*
X154670000Y-77272000D02*
X154670000Y-79728000D01*
X154710000Y-77403000D02*
X154710000Y-79597000D01*
X154750000Y-77553000D02*
X154750000Y-79447000D01*
X154790000Y-77732000D02*
X154790000Y-79268000D01*
X154830000Y-77967000D02*
X154830000Y-79033000D01*
X154870000Y-78500000D02*
G75*
G02*
X146630000Y-78500000I-4120000J0D01*
G01*
X146630000Y-78500000D02*
G75*
G02*
X154870000Y-78500000I4120000J0D01*
G01*
%TO.C,SW3*%
X183620000Y-81620000D02*
X185000000Y-81620000D01*
X183620000Y-83000000D02*
X183620000Y-81620000D01*
X183620000Y-84270000D02*
X183620000Y-86920000D01*
X183620000Y-84270000D02*
X186380000Y-84270000D01*
X183620000Y-86920000D02*
X186380000Y-86920000D01*
X186380000Y-84270000D02*
X186380000Y-86920000D01*
%TO.C,J2*%
X109120000Y-74120000D02*
X109120000Y-56230000D01*
X111880000Y-56230000D02*
X109120000Y-56230000D01*
X111880000Y-74120000D02*
X109120000Y-74120000D01*
X111880000Y-74120000D02*
X111880000Y-56230000D01*
X111880000Y-75390000D02*
X111880000Y-76770000D01*
X111880000Y-76770000D02*
X110500000Y-76770000D01*
%TO.C,J4*%
X180120000Y-67540000D02*
X181500000Y-67540000D01*
X180120000Y-68920000D02*
X180120000Y-67540000D01*
X180120000Y-70190000D02*
X180120000Y-77920000D01*
X180120000Y-70190000D02*
X182880000Y-70190000D01*
X180120000Y-77920000D02*
X182880000Y-77920000D01*
X182880000Y-70190000D02*
X182880000Y-77920000D01*
%TO.C,JP1*%
X149000000Y-54389000D02*
X149000000Y-55151000D01*
%TO.C,JP2*%
X149889000Y-68000000D02*
X150651000Y-68000000D01*
%TO.C,LS1*%
X188855000Y-83620000D02*
X188855000Y-86380000D01*
X191505000Y-83620000D02*
X188855000Y-83620000D01*
X191505000Y-83620000D02*
X191505000Y-86380000D01*
X191505000Y-86380000D02*
X188855000Y-86380000D01*
X192775000Y-83620000D02*
X194155000Y-83620000D01*
X194155000Y-83620000D02*
X194155000Y-85000000D01*
%TO.C,U3*%
X168915000Y-32440000D02*
X173035000Y-32440000D01*
X168915000Y-32495000D02*
X168915000Y-32440000D01*
X168915000Y-42560000D02*
X168915000Y-42505000D01*
X173035000Y-32440000D02*
X173035000Y-32495000D01*
X173035000Y-42505000D02*
X173035000Y-42560000D01*
X173035000Y-42560000D02*
X168915000Y-42560000D01*
X168375000Y-32490000D02*
X168135000Y-32160000D01*
X168615000Y-32160000D01*
X168375000Y-32490000D01*
G36*
X168375000Y-32490000D02*
G01*
X168135000Y-32160000D01*
X168615000Y-32160000D01*
X168375000Y-32490000D01*
G37*
%TO.C,J3*%
X109120000Y-32420000D02*
X110500000Y-32420000D01*
X109120000Y-33800000D02*
X109120000Y-32420000D01*
X109120000Y-35070000D02*
X109120000Y-40260000D01*
X109120000Y-35070000D02*
X111880000Y-35070000D01*
X109120000Y-40260000D02*
X111880000Y-40260000D01*
X111880000Y-35070000D02*
X111880000Y-40260000D01*
%TO.C,SW1*%
X217400000Y-48907500D02*
X217400000Y-53107500D01*
X217400000Y-53107500D02*
X218600000Y-53107500D01*
X217750000Y-48907500D02*
X217400000Y-48907500D01*
X225400000Y-48907500D02*
X226600000Y-48907500D01*
X226600000Y-48907500D02*
X226600000Y-53107500D01*
X226600000Y-53107500D02*
X225400000Y-53107500D01*
X218500000Y-48907500D02*
X218020000Y-48907500D01*
X218500000Y-48427500D01*
X218500000Y-48907500D01*
G36*
X218500000Y-48907500D02*
G01*
X218020000Y-48907500D01*
X218500000Y-48427500D01*
X218500000Y-48907500D01*
G37*
%TO.C,U1*%
X118110000Y-30470000D02*
X118110000Y-30770000D01*
X118110000Y-30470000D02*
X139110000Y-30470000D01*
X118110000Y-32870000D02*
X118110000Y-33270000D01*
X118110000Y-33137000D02*
X121117000Y-33137000D01*
X118110000Y-35470000D02*
X118110000Y-35870000D01*
X118110000Y-37970000D02*
X118110000Y-38370000D01*
X118110000Y-40570000D02*
X118110000Y-40970000D01*
X118110000Y-43070000D02*
X118110000Y-43470000D01*
X118110000Y-45570000D02*
X118110000Y-45970000D01*
X118110000Y-48170000D02*
X118110000Y-48570000D01*
X118110000Y-50670000D02*
X118110000Y-51070000D01*
X118110000Y-53270000D02*
X118110000Y-53670000D01*
X118110000Y-55770000D02*
X118110000Y-56170000D01*
X118110000Y-58270000D02*
X118110000Y-58670000D01*
X118110000Y-60870000D02*
X118110000Y-61270000D01*
X118110000Y-63370000D02*
X118110000Y-63770000D01*
X118110000Y-65970000D02*
X118110000Y-66370000D01*
X118110000Y-68470000D02*
X118110000Y-68870000D01*
X118110000Y-71070000D02*
X118110000Y-71470000D01*
X118110000Y-73570000D02*
X118110000Y-73970000D01*
X118110000Y-76070000D02*
X118110000Y-76470000D01*
X118110000Y-78670000D02*
X118110000Y-79070000D01*
X121117000Y-33137000D02*
X121117000Y-30470000D01*
X124910000Y-81470000D02*
X118110000Y-81470000D01*
X127110000Y-81470000D02*
X127510000Y-81470000D01*
X129710000Y-81470000D02*
X130110000Y-81470000D01*
X139110000Y-30470000D02*
X139110000Y-30770000D01*
X139110000Y-32870000D02*
X139110000Y-33270000D01*
X139110000Y-35470000D02*
X139110000Y-35870000D01*
X139110000Y-37970000D02*
X139110000Y-38370000D01*
X139110000Y-40570000D02*
X139110000Y-40970000D01*
X139110000Y-43070000D02*
X139110000Y-43470000D01*
X139110000Y-45570000D02*
X139110000Y-45970000D01*
X139110000Y-48170000D02*
X139110000Y-48570000D01*
X139110000Y-50670000D02*
X139110000Y-51070000D01*
X139110000Y-53270000D02*
X139110000Y-53670000D01*
X139110000Y-55770000D02*
X139110000Y-56170000D01*
X139110000Y-58270000D02*
X139110000Y-58670000D01*
X139110000Y-60870000D02*
X139110000Y-61270000D01*
X139110000Y-63370000D02*
X139110000Y-63770000D01*
X139110000Y-65970000D02*
X139110000Y-66370000D01*
X139110000Y-68470000D02*
X139110000Y-68870000D01*
X139110000Y-71070000D02*
X139110000Y-71470000D01*
X139110000Y-73570000D02*
X139110000Y-73970000D01*
X139110000Y-76070000D02*
X139110000Y-76470000D01*
X139110000Y-78670000D02*
X139110000Y-79070000D01*
X139110000Y-81470000D02*
X132310000Y-81470000D01*
%TO.C,FB1*%
X146960000Y-34500000D02*
X147730000Y-34500000D01*
X155040000Y-34500000D02*
X154270000Y-34500000D01*
X147730000Y-33130000D02*
X154270000Y-33130000D01*
X154270000Y-35870000D01*
X147730000Y-35870000D01*
X147730000Y-33130000D01*
%TO.C,SW4*%
X178620000Y-81345000D02*
X180000000Y-81345000D01*
X178620000Y-82725000D02*
X178620000Y-81345000D01*
X178620000Y-83995000D02*
X178620000Y-86645000D01*
X178620000Y-83995000D02*
X181380000Y-83995000D01*
X178620000Y-86645000D02*
X181380000Y-86645000D01*
X181380000Y-83995000D02*
X181380000Y-86645000D01*
%TO.C,FB2*%
X145960000Y-39500000D02*
X146730000Y-39500000D01*
X154040000Y-39500000D02*
X153270000Y-39500000D01*
X146730000Y-38130000D02*
X153270000Y-38130000D01*
X153270000Y-40870000D01*
X146730000Y-40870000D01*
X146730000Y-38130000D01*
%TD*%
M02*
